<svg width="92" height="72" viewBox="0 0 92 72" fill="none" xmlns="http://www.w3.org/2000/svg">
<path d="M69.2592 15.7625C68.3707 13.4257 64.9176 12.8931 59.0012 14.1706C53.6254 15.3291 46.8722 17.8727 39.9834 21.3283C33.0945 24.784 26.8868 28.7495 22.4934 32.4884C17.6581 36.6097 15.6563 39.8784 16.5474 42.2124C17.1225 43.7249 18.7688 44.4784 21.469 44.4784C23.1026 44.4494 24.731 44.2598 26.3364 43.9119L26.3537 43.9345L26.3907 43.8977C26.529 43.8694 26.6647 43.8467 26.8054 43.8127C32.1812 42.6514 38.9344 40.1078 45.8109 36.6522C52.6874 33.1965 58.9099 29.2339 63.3034 25.495C68.1485 21.3623 70.1503 18.0993 69.2592 15.7625ZM45.1395 34.8337C39.6625 37.5784 34.2792 39.7368 29.6488 41.0652C33.7807 37.7738 39.3145 34.3239 45.4456 31.2506C50.3901 28.7663 55.4991 26.7375 60.724 25.1834C56.5601 28.4436 51.1102 31.8426 45.1395 34.8337ZM64.0438 22.3027C58.4162 23.5264 51.209 26.1889 44.7446 29.435C36.9079 33.3665 29.9894 37.9325 25.6503 42.0283C22.797 42.5608 18.7046 42.9007 18.1394 41.4221C17.5149 39.7821 21.2346 36.0404 23.5325 34.0803C27.8223 30.4263 33.9164 26.543 40.6868 23.144C47.4572 19.745 54.0795 17.2524 59.332 16.1165C61.0327 15.7391 62.7586 15.5306 64.4906 15.4934C66.0777 15.4934 67.3858 15.7766 67.6993 16.5556C68.1559 17.816 66.0678 20.3228 64.034 22.3027H64.0438Z" fill="url(#paint0_linear_438_533)"/>
<path d="M90.4018 21.6197L85.1494 7.83106C83.2069 2.73255 76.9203 0.288103 67.4372 0.928248C58.248 1.5514 47.0372 4.97873 35.8733 10.5786C24.7094 16.1784 14.8932 23.3022 8.26349 30.6242C1.41658 38.1728 -1.28614 45.1351 0.656369 50.228L5.90881 64.0194C7.63658 68.5797 12.8717 71.0242 20.7528 71.0242C21.6743 71.0242 22.6303 70.9902 23.6209 70.9222C32.8102 70.2991 44.021 66.8718 55.1849 61.2691C66.3487 55.6664 76.165 48.5483 82.7947 41.2291C89.6416 33.6777 92.3419 26.7125 90.4018 21.6197ZM2.23849 49.4349C0.631665 45.2201 3.26529 38.8838 9.46059 32.049C15.957 24.8884 25.5832 17.9091 36.5644 12.3999C47.5457 6.89067 58.5466 3.51716 67.5409 2.911C68.4863 2.84302 69.397 2.8147 70.2733 2.8147C77.3547 2.8147 82.1357 4.87392 83.5672 8.62699C85.1716 12.8418 82.5405 19.1781 76.3427 26.0129C69.8487 33.1763 60.2226 40.1584 49.2413 45.6676C38.2601 51.1769 27.2591 54.5447 18.2648 55.1565C9.68521 55.7372 3.84532 53.6525 2.23849 49.4349ZM81.5976 39.8043C75.1012 46.9649 65.475 53.9442 54.4938 59.4534C43.5125 64.9626 32.5116 68.339 23.5173 68.9451C14.9376 69.5116 9.09776 67.4411 7.4934 63.2235L4.18842 54.5504C6.83191 56.315 10.6651 57.2356 15.5004 57.2356C16.4211 57.2356 17.3763 57.2044 18.366 57.1364C27.5578 56.5161 38.7686 53.086 49.9325 47.4861C61.0963 41.8862 70.9126 34.7682 77.5398 27.4461C82.0172 22.5063 84.7224 17.8156 85.5147 13.7482L88.8271 22.4156C90.4265 26.6304 87.7929 32.9752 81.5976 39.8015V39.8043Z" fill="url(#paint1_linear_438_533)"/>
<path d="M83.5672 8.6154C82.1356 4.86234 77.3546 2.8031 70.2732 2.8031C69.397 2.8031 68.4862 2.83143 67.5409 2.89941C58.5466 3.50557 47.5481 6.86492 36.5644 12.3883C25.5807 17.9117 15.957 24.8768 9.46057 32.0374C3.26527 38.8722 0.631651 45.2085 2.23848 49.4233C3.84531 53.638 9.68519 55.7256 18.2648 55.1449C27.2591 54.5331 38.2576 51.1794 49.2413 45.656C60.225 40.1327 69.8487 33.1647 76.3427 26.0013C82.5405 19.1778 85.1716 12.8415 83.5672 8.6154ZM63.3128 25.4773C58.9193 29.2162 52.6993 33.1789 45.8203 36.6345C38.9413 40.0902 32.1808 42.6338 26.8148 43.7951C26.6741 43.8291 26.5384 43.8517 26.4002 43.8801L26.3632 43.9169L26.3459 43.8942C24.7405 44.2422 23.1121 44.4317 21.4785 44.4607C18.7807 44.4607 17.1319 43.7044 16.5568 42.1947C15.6657 39.8607 17.6675 36.592 22.5028 32.4707C26.8963 28.7318 33.1163 24.7692 39.9928 21.3107C46.8693 17.8522 53.6348 15.3114 59.0106 14.1529C64.9344 12.8755 68.39 13.408 69.2687 15.7448C70.1474 18.0816 68.1481 21.3617 63.3128 25.4886V25.4773Z" fill="#F2CFFF"/>
<path d="M64.0332 22.3025C58.4056 23.5261 51.1983 26.1887 44.734 29.4347C36.8973 33.3662 29.9788 37.9322 25.6396 42.028C22.7863 42.5606 18.6939 42.9005 18.1287 41.4219C17.5043 39.7819 21.2239 36.0401 23.5219 34.08C27.8117 30.4261 33.9058 26.5427 40.6762 23.1437C47.4466 19.7447 54.0689 17.2521 59.3213 16.1163C61.022 15.7389 62.748 15.5304 64.4799 15.4932C66.067 15.4932 67.3752 15.7764 67.6887 16.5554C68.1552 17.8158 66.067 20.3226 64.0332 22.3025Z" fill="url(#paint2_linear_438_533)"/>
<path d="M81.5972 39.8018C75.1007 46.9652 65.4746 53.9445 54.4933 59.4537C43.5121 64.9629 32.5111 68.3364 23.5168 68.9454C14.9372 69.5119 9.09734 67.4414 7.49297 63.2238L4.18799 54.5506C6.83148 56.3153 10.6647 57.2359 15.5 57.2359C16.4206 57.2359 17.3758 57.2047 18.3656 57.1367C27.5574 56.5136 38.7682 53.0862 49.932 47.4835C61.0959 41.8808 70.9121 34.7656 77.5394 27.4436C82.0168 22.5065 84.722 17.8131 85.5143 13.7456L88.8267 22.4159C90.4261 26.6307 87.7924 32.9755 81.5972 39.8018Z" fill="url(#paint3_linear_438_533)"/>
<defs>
<linearGradient id="paint0_linear_438_533" x1="42.9033" y1="13.4941" x2="42.9033" y2="44.4784" gradientUnits="userSpaceOnUse">
<stop stop-color="#7B5AFF"/>
<stop offset="1" stop-color="#2979FF"/>
</linearGradient>
<linearGradient id="paint1_linear_438_533" x1="45.5286" y1="0.828125" x2="45.5286" y2="71.0242" gradientUnits="userSpaceOnUse">
<stop stop-color="#7B5AFF"/>
<stop offset="1" stop-color="#2979FF"/>
</linearGradient>
<linearGradient id="paint2_linear_438_533" x1="42.9069" y1="15.4932" x2="42.9069" y2="42.4825" gradientUnits="userSpaceOnUse">
<stop stop-color="#7B5AFF"/>
<stop offset="1" stop-color="#2979FF"/>
</linearGradient>
<linearGradient id="paint3_linear_438_533" x1="46.7363" y1="13.7456" x2="46.7363" y2="69.0373" gradientUnits="userSpaceOnUse">
<stop stop-color="#7B5AFF"/>
<stop offset="1" stop-color="#2979FF"/>
</linearGradient>
</defs>
</svg>