<svg width="66" height="61" viewBox="0 0 66 61" fill="none" xmlns="http://www.w3.org/2000/svg">
<path d="M49.4498 0.347656C41.7558 14.5602 37.5048 21.6477 33.2187 21.6477C28.9325 21.6477 24.6815 14.5602 17.0226 0.347656C24.6815 14.5602 28.3353 22.0602 26.1922 25.9977C24.0491 29.9352 16.1443 30.3477 0.791504 30.3477C16.7065 30.3477 24.6112 30.7602 26.403 35.1102C28.0893 39.1602 24.4356 46.6227 17.0226 60.3477C24.7166 46.1352 28.9676 39.0477 33.2538 39.0477C37.5399 39.0477 41.791 46.1352 49.4849 60.3477C41.3342 45.2352 37.7507 37.7352 40.7721 33.9852C43.4422 30.6852 51.3118 30.3477 65.7161 30.3477C49.4849 30.3477 41.5802 29.8977 39.9992 25.2852C38.5588 21.1602 42.2125 13.7352 49.4498 0.347656Z" fill="white"/>
</svg>