<svg width="126" height="101" viewBox="0 0 126 101" fill="none" xmlns="http://www.w3.org/2000/svg">
<g clip-path="url(#clip0_622_62286)">
<path d="M74.6178 87.4801C93.6241 78.8497 102.48 57.412 94.3981 39.5975C86.3162 21.783 64.3569 14.3377 45.3506 22.9681C26.3443 31.5984 17.4882 53.0362 25.5701 70.8507C33.652 88.6652 55.6115 96.1104 74.6178 87.4801Z" fill="#FCE5D8"/>
<path d="M93.1836 82.2276C88.7908 87.1069 83.4343 91.0219 77.4524 93.7251C76.2741 94.2601 75.0848 94.7309 73.8903 95.1634L73.8535 95.1881L74.8576 98.6921L96.2855 100.427L93.215 82.2065L93.1836 82.2276Z" fill="#A876F5"/>
<path d="M96.2848 100.994C96.2446 100.994 96.2045 100.99 96.1652 100.981C96.0543 100.957 95.9531 100.901 95.8747 100.819C95.7963 100.737 95.7444 100.633 95.7256 100.521L92.6549 82.3003C92.6403 82.215 92.6448 82.1274 92.668 82.044C92.6913 81.9606 92.7327 81.8834 92.7894 81.8179C93.5727 80.9434 94.3461 80.0069 95.0874 79.0349C95.1574 78.9428 95.254 78.8745 95.364 78.839C95.4741 78.8034 95.5923 78.8024 95.7029 78.8361L95.7157 78.8399C95.8024 78.8664 95.8815 78.9133 95.9464 78.9766C96.0113 79.0399 96.0601 79.1178 96.0888 79.2038L101.006 94.0212C101.034 94.1034 101.042 94.1908 101.03 94.2766C101.018 94.3625 100.987 94.4444 100.939 94.5163L96.7553 100.743C96.7034 100.82 96.6334 100.884 96.5513 100.927C96.4693 100.971 96.3777 100.994 96.2848 100.994ZM93.8152 82.3706L96.6075 98.9304L99.8427 94.1148L95.3414 80.5524C94.8421 81.1793 94.3311 81.7875 93.8152 82.3706Z" fill="black"/>
<path d="M74.8575 98.6919L93.9629 86.6443L93.2152 82.2065H88.6461L73.8535 95.1882L74.8575 98.6919Z" fill="black"/>
<path d="M27.3401 85.9131L27.3334 85.9092L21.6963 95.7314L40.9814 97.875L45.5772 96.3438L45.5574 96.3326C38.7067 94.4451 32.4415 90.8617 27.3401 85.9131Z" fill="#A876F5"/>
<path d="M27.3393 85.9131L25.5049 89.0941L40.9806 97.875L45.5768 96.3437L38.1712 87.4285L27.3393 85.9131Z" fill="black"/>
<path d="M101.061 36.5741C91.4185 15.3068 65.2062 6.41988 42.5198 16.7246C19.8334 27.0236 9.26124 52.6126 18.9095 73.8743C28.5577 95.1417 54.7644 104.029 77.4508 93.7239C100.137 83.4247 110.709 57.8359 101.061 36.5741ZM74.6221 87.4798C55.6147 96.1115 33.6539 88.6651 25.5703 70.8515C17.4923 53.0379 26.3468 31.6004 45.3542 22.9687C64.3615 14.337 86.3166 21.7833 94.4003 39.597C102.484 57.4105 93.6237 78.8481 74.6221 87.4798Z" fill="#A876F5"/>
<path d="M64.6534 19.5435L64.1963 25.5293L68.7175 25.8749L69.1746 19.8891L64.6534 19.5435Z" fill="black"/>
<path d="M53.1463 84.8632L52.0098 90.4141L56.4532 91.3246L57.5897 85.7738L53.1463 84.8632Z" fill="black"/>
<path d="M23.2322 49.2374L22.8184 53.7559L29.857 54.4011L30.2709 49.8826L23.2322 49.2374Z" fill="black"/>
<path d="M90.1035 55.3981L89.8086 59.9253L96.9192 60.3889L97.2141 55.8617L90.1035 55.3981Z" fill="black"/>
<path d="M56.4917 64.358C58.1072 64.358 59.4169 63.0477 59.4169 61.4315C59.4169 59.8152 58.1072 58.5049 56.4917 58.5049C54.8761 58.5049 53.5664 59.8152 53.5664 61.4315C53.5664 63.0477 54.8761 64.358 56.4917 64.358Z" fill="black"/>
<path d="M47.4091 44.6215L50.8102 41.0147L37.3418 35.7065V52.1413L41.8993 48.8408L54.0073 61.0222L56.4901 58.5043L47.4091 44.6215Z" fill="black"/>
<path d="M57.8164 59.6962L80.6728 40.6066L78.8362 37.1357L89.9583 37.6462L86.2849 48.416L83.4279 44.3837L58.9388 61.4316L57.8164 59.6962Z" fill="black"/>
<path d="M82.1341 6.50163C82.0678 5.8691 81.9017 5.25108 81.642 4.67057C80.1743 1.43545 76.1866 0.0834751 72.7352 1.65075C71.8826 2.03662 71.1132 2.58468 70.4697 3.26443C74.6129 2.98262 78.7281 4.12468 82.1341 6.50163Z" fill="#A876F5"/>
<path d="M70.4697 3.26457C70.4697 3.26457 77.5616 0.062058 82.1341 6.50177L70.4697 3.26457Z" fill="black"/>
<path d="M89.0141 21.3992C89.2722 18.5687 88.7911 15.7197 87.6178 13.1312C83.6585 4.40379 72.9006 0.756364 63.5894 4.98436C59.859 6.65928 56.7594 9.47997 54.7402 13.037C67.1939 11.0357 79.6364 14.1669 89.0141 21.3992Z" fill="#A876F5"/>
<path d="M56.4435 10.5226C55.8087 11.3135 55.2391 12.1547 54.7402 13.0378C67.1939 11.0365 79.6364 14.1676 89.0141 21.3999C89.0946 20.4674 89.0969 19.5297 89.0209 18.5968C79.9947 11.8955 68.2654 8.90521 56.4435 10.5226Z" fill="black"/>
<path d="M100.867 82.4192L100.201 81.5009C100.304 81.4267 110.463 73.9488 112.442 63.2719C113.692 56.5806 116.059 50.1478 119.445 44.2437L120.406 44.8451C117.094 50.628 114.779 56.9273 113.557 63.479C111.493 74.6089 101.299 82.1057 100.867 82.4192Z" fill="#E57BD8"/>
<path d="M112.76 71.4542L108.062 73.4141L108.498 74.4607L113.196 72.5008L112.76 71.4542Z" fill="#E57BD8"/>
<path d="M113.673 61.9804L113.092 61.0067C113.116 60.9923 115.496 59.5627 116.487 58.3608L117.361 59.0831C116.245 60.4362 113.778 61.9183 113.673 61.9804Z" fill="#E57BD8"/>
<path d="M119.205 49.6828L116.159 51.2363L116.674 52.2464L119.719 50.6929L119.205 49.6828Z" fill="#E57BD8"/>
<path d="M112.053 68.3669L110.927 68.2312C110.932 68.1907 111.393 64.1375 109.732 61.9503L110.635 61.2646C112.575 63.8196 112.075 68.1824 112.053 68.3669Z" fill="#E57BD8"/>
<path d="M114.796 54.5918C114.7 53.277 114.338 50.9233 113.773 50.2066L114.664 49.5044C115.627 50.7278 115.899 54.126 115.926 54.5098L114.796 54.5918Z" fill="#E57BD8"/>
<path d="M112.131 72.3314C112.131 72.3314 121.322 74.5258 122.163 69.202C123.005 63.8781 113.705 67.4598 112.131 72.3314Z" fill="#E57BD8"/>
<path d="M115.881 59.7338C115.881 59.7338 124.8 60.1387 124.445 56.1307C124.09 52.1227 115.618 56.457 115.881 59.7338Z" fill="#E57BD8"/>
<path d="M118.028 50.9205C118.028 50.9205 125.156 51.4503 125.874 46.9567C126.593 42.463 118.263 48.7438 118.028 50.9205Z" fill="#E57BD8"/>
<path d="M119.359 45.5232C119.359 45.5232 127.045 41.4826 125.88 38.7819C124.716 36.0812 119.109 40.1337 119.359 45.5232Z" fill="#E57BD8"/>
<path d="M111.185 63.7693C111.185 63.7693 108.378 59.1488 106.484 58.6466C104.591 58.1444 101.413 58.0031 102.404 53.2191C103.394 48.4351 109.166 49.8449 110.586 54.8514C112.005 59.8579 111.442 63.232 111.185 63.7693Z" fill="#E57BD8"/>
<path d="M114.769 51.7373C114.52 50.9654 114.103 50.2585 113.548 49.6674C112.993 49.0764 112.314 48.616 111.559 48.3195C108.874 47.148 107.641 44.6335 108.249 41.5523C108.856 38.4712 114.906 36.8668 116.104 41.9932C117.303 47.1196 114.769 51.7373 114.769 51.7373Z" fill="#E57BD8"/>
<path d="M10.2075 19.0971C8.05837 25.6686 6.21167 32.9354 6.12107 39.8292C6.16234 43.1672 1.37396 43.646 0.746127 40.3854C-0.555511 32.4107 0.027706 24.7397 1.109 16.8295C2.49728 10.1734 12.1012 12.5571 10.2075 19.0971Z" fill="#FE897B"/>
<path d="M4.39548 49.8649C5.71576 49.8649 6.78607 48.7941 6.78607 47.4732C6.78607 46.1523 5.71576 45.0815 4.39548 45.0815C3.07519 45.0815 2.00488 46.1523 2.00488 47.4732C2.00488 48.7941 3.07519 49.8649 4.39548 49.8649Z" fill="#FE897B"/>
<path d="M21.6928 26.4526C18.8117 30.939 16.0026 36.0993 14.6154 41.219C13.7548 44.3109 9.21933 43.6258 9.28289 40.4441C9.56559 33.9874 11.222 28.1622 13.3524 22.1514C13.5872 21.5275 13.9514 20.9603 14.4208 20.4872C14.8903 20.014 15.4545 19.6457 16.0764 19.4063C16.6983 19.1668 17.3637 19.0616 18.0291 19.0978C18.6945 19.1339 19.3447 19.3106 19.937 19.616C20.5293 19.9215 21.0504 20.3489 21.4658 20.8701C21.8813 21.3914 22.1818 21.9946 22.3476 22.6403C22.5135 23.286 22.5408 23.9595 22.4279 24.6166C22.3151 25.2736 22.0645 25.8993 21.6928 26.4526Z" fill="#FE897B"/>
<path d="M11.4127 48.4053C12.4421 48.4053 13.2766 47.5704 13.2766 46.5405C13.2766 45.5107 12.4421 44.6758 11.4127 44.6758C10.3833 44.6758 9.54883 45.5107 9.54883 46.5405C9.54883 47.5704 10.3833 48.4053 11.4127 48.4053Z" fill="#FE897B"/>
</g>
<defs>
<clipPath id="clip0_622_62286">
<rect width="126" height="99.9961" fill="white" transform="translate(0 0.998047)"/>
</clipPath>
</defs>
</svg>