<svg width="112" height="100" viewBox="0 0 112 100" fill="none" xmlns="http://www.w3.org/2000/svg">
<path d="M0.817109 79.8394C0.761842 79.5666 0.714799 79.2274 0.620618 78.5492C0.425054 77.1409 -0.879499 67.2545 1.00959 56.7333C2.10105 50.6546 4.08609 39.5991 12.7512 29.3911C24.9089 15.0685 41.5558 12.6177 44.3186 12.2541C46.5362 11.9622 66.9744 9.606 83.393 23.8072C89.1871 28.8184 93.6786 35.1616 96.4819 42.2921C97.9371 46.0923 101.529 55.4724 98.7917 65.7833C95.5699 77.9202 85.4464 84.3117 78.1959 88.8893C76.954 89.6734 48.8581 106.858 21.6305 96.906C16.8729 95.1671 2.88619 90.0548 0.817109 79.8394Z" fill="white"/>
<path d="M24.8159 14.7168C25.0004 14.3194 25.1741 13.9165 25.3735 13.5267C25.4899 13.2993 25.6652 13.3007 25.7949 13.5176C25.898 13.7037 25.9874 13.8971 26.0624 14.0962C26.3468 14.9291 26.5194 15.7963 26.5754 16.6747C26.7016 17.6463 26.7999 18.6221 26.8833 19.5984C26.9294 19.7537 26.9369 19.918 26.9053 20.0769C26.8737 20.2359 26.804 20.3848 26.7021 20.5107C26.5723 20.6459 26.7003 21.0016 26.6508 21.245C26.4589 22.2666 26.1333 23.2584 25.6824 24.1949C25.5855 24.4929 25.5327 24.8036 25.5258 25.117L25.648 25.1654C25.7398 25.1138 25.8284 25.0566 25.9132 24.9942C26.9784 24.112 28.0253 23.2065 29.1142 22.3546C29.1911 22.3112 29.2582 22.2524 29.3115 22.1819C29.3647 22.1114 29.403 22.0308 29.4239 21.9449C29.4447 21.8591 29.4478 21.7699 29.4328 21.6828C29.4178 21.5957 29.3851 21.5127 29.3367 21.4387C28.5145 20.0917 28.632 18.64 28.8761 17.2008C29.0237 16.2867 29.2831 15.3942 29.6486 14.5434C30.0395 13.8004 30.4933 13.0922 31.0051 12.4266C31.0628 12.3405 31.1783 12.2929 31.3572 12.1608C31.8173 13.8111 31.8671 15.5488 31.5024 17.2226C31.1783 18.8784 30.6576 20.4572 29.5448 21.7988L29.6765 21.9018C29.7934 21.8472 29.9144 21.7999 30.0264 21.7368C31.0926 21.1365 32.1536 20.5269 33.224 19.9344C33.4441 19.8154 33.6126 19.6193 33.6973 19.3838C33.782 19.1483 33.777 18.8898 33.683 18.6577C33.4649 18.1601 33.4024 17.6081 33.5037 17.0743C33.5917 15.888 33.9755 14.7427 34.6199 13.7431C35.1011 13.1286 35.6217 12.5462 36.1786 11.9995C36.2244 11.9499 36.3294 11.9549 36.5197 11.9051C36.5967 12.4174 36.703 12.8863 36.7266 13.3595C36.7284 13.7165 36.6889 14.0725 36.6091 14.4205C36.3328 15.9111 35.8501 17.3136 34.7942 18.4546C34.6586 18.602 34.5023 18.7289 34.3302 18.8311C33.9602 19.0474 33.9543 19.0373 33.8802 19.5767C34.1528 19.4824 34.3975 19.3991 34.6414 19.313C35.5269 19.0007 36.409 18.6782 37.2988 18.3785C37.519 18.3134 37.7118 18.1778 37.8475 17.9926C37.9832 17.8073 38.0545 17.5826 38.0503 17.3529C37.8463 15.4776 38.7404 14.05 39.9451 12.7725C40.4808 12.2626 41.045 11.7836 41.6351 11.3379C41.704 11.4974 41.7564 11.5598 41.7527 11.6189C41.7231 12.7912 41.4618 13.9461 40.9837 15.0169C40.4818 16.1039 39.573 16.9501 38.4532 17.3731C38.2339 17.4598 38.123 17.8218 37.8916 18.1596C38.152 18.155 38.2844 18.1664 38.4127 18.1482C39.5959 17.9808 40.7794 17.8146 41.9599 17.6292C42.1216 17.6035 42.2671 17.5162 42.3661 17.3858C42.7169 16.8738 43.0112 16.3253 43.2439 15.75C43.3475 15.443 43.3261 15.1031 43.6207 14.8827C43.7689 14.772 43.9246 14.6714 44.0748 14.5634C44.5762 14.2028 44.9932 13.704 45.6017 13.5188C46.224 13.3294 46.8652 13.2029 47.6081 13.0221C47.3527 13.7363 46.9689 14.3979 46.4757 14.9741C45.7916 15.7647 44.9395 16.3924 43.9816 16.8111C43.7604 16.9103 43.5226 16.967 43.2804 16.9783C42.8605 16.9858 42.7147 17.2779 42.4578 17.6128C42.7025 17.6096 42.8537 17.6115 43.0044 17.605C43.6724 17.5761 44.3416 17.5612 45.0076 17.5072C45.3292 17.5021 45.6464 17.4321 45.9403 17.3013C47.687 16.3472 50.4089 17.0071 51.6381 18.3274C51.8102 18.4977 51.9718 18.6784 52.1218 18.8684C52.3483 19.1811 52.2897 19.3151 51.9042 19.3844C50.7353 19.6015 49.5332 19.5609 48.3817 19.2655C47.4604 19.0596 46.6084 18.6176 45.9095 17.9828C45.7739 17.8419 45.5939 17.7521 45.3998 17.7284C44.5164 17.7327 43.6331 17.7782 42.7499 17.8126C42.6874 17.8263 42.6269 17.8477 42.5697 17.8763C42.8757 18.2238 43.2932 18.4538 43.7504 18.5271C44.6269 18.6051 45.3004 19.1777 45.9362 19.6958C46.5298 20.2474 47.0726 20.8513 47.5582 21.5C47.6985 21.6649 47.8152 21.8832 47.4448 21.9482C47.065 21.2084 45.6101 19.7947 45.2547 19.8703C45.9274 20.5038 46.7961 20.9299 47.1496 21.9344C46.3414 21.8681 45.5772 21.8046 44.9962 21.2925C44.5253 20.8286 44.0851 20.3344 43.6787 19.8131L43.8012 20.1009L43.7233 20.1483C43.5125 19.7713 43.2692 19.4086 43.0972 19.0146C42.6547 18.0014 42.3602 17.7803 41.2596 17.8845C40.3228 17.9733 39.3922 18.1299 38.4592 18.2595C38.3668 18.29 38.2772 18.3285 38.1914 18.3747C38.4874 18.501 38.7174 18.6979 38.8993 18.6603C39.8974 18.4543 40.601 18.9718 41.2748 19.5582C42.2862 20.4228 43.0978 21.4967 43.6534 22.7059C43.7198 22.8521 43.7901 23.1353 43.7368 23.1706C43.5737 23.2748 43.3805 23.3212 43.1879 23.3026C42.3417 23.2188 41.5265 22.939 40.807 22.4855C40.0875 22.0321 39.4835 21.4172 39.0426 20.6898C38.7874 20.2027 38.6246 19.6724 38.5626 19.1259C38.4952 18.732 38.1734 18.3485 37.79 18.4703C36.5854 18.7922 35.4278 19.2693 34.346 19.8895C34.3256 19.9025 34.3184 19.9366 34.2412 20.077C34.9601 19.9388 35.7047 20.0407 36.3601 20.3672L35.7356 20.2241C36.0052 20.3663 36.2314 20.6364 36.5984 20.4637C36.6704 20.4299 36.8583 20.5777 36.9573 20.6771C37.6434 21.3658 38.3202 22.0637 39.0221 22.7503L38.4177 21.9307L38.5339 21.8566C38.9585 22.5765 39.3831 23.2964 39.8075 24.0164C39.9049 24.157 39.9879 24.3069 40.0554 24.464C40.1335 24.6931 40.5205 24.8595 40.25 25.1579C40.1018 25.3216 39.4693 25.1845 39.2473 24.9678C39.0761 25.3087 38.8052 25.1791 38.6012 25.0544C37.7917 24.5593 36.9725 24.0727 36.208 23.5132C35.171 22.7543 34.6243 21.6444 34.218 20.4574C34.1005 20.1143 33.9404 20.0712 33.5501 20.2964C33.1055 20.5529 32.6635 20.8147 32.2308 21.0906C31.5473 21.5266 30.8726 21.9763 30.0736 22.4991C30.58 22.6323 30.7219 23.1892 31.3129 22.9611C31.6435 22.8677 31.9952 22.8806 32.3181 22.998C32.7096 23.1563 33.0865 23.3483 33.4446 23.5721L33.4513 23.5629L33.1922 23.636C33.5704 23.9165 33.9032 24.1696 34.2448 24.4103C34.2998 24.4491 34.3938 24.4326 34.4698 24.4416L34.4584 24.2046L34.4571 24.2199C34.7966 24.5314 35.1594 24.8215 35.4701 25.1594C35.9326 25.6621 36.3631 26.1946 36.7961 26.7235C36.9032 26.8859 36.9967 27.0569 37.0758 27.2346C36.7168 27.2955 36.3539 27.331 35.9898 27.3408C34.6993 27.2593 33.4646 26.7847 32.4516 25.9808C31.4974 25.3088 30.8238 24.309 30.5592 23.172C30.5139 22.9681 30.0713 22.8541 29.8137 22.6963C29.768 22.6682 29.7294 22.6286 29.6154 22.5352C29.5389 22.7189 29.4357 22.8903 29.309 23.0438C29.0614 23.2751 28.7587 23.446 28.4903 23.6565C27.6164 24.3415 26.7476 25.0329 25.7819 25.7969C26.1056 26.0108 26.4614 26.1716 26.8359 26.2731C27.8567 26.3897 28.8397 26.7286 29.7156 27.2659C30.9227 27.9421 32.0342 28.7767 33.0204 29.7473C33.0552 29.781 33.0815 29.8223 33.0975 29.868C33.1134 29.9137 33.1184 29.9625 33.1121 30.0105L31.6379 28.7058C32.2553 29.7487 33.4796 30.2332 33.9871 31.4213C33.9829 31.4222 34.0337 31.4132 34.0834 31.3999C34.1335 31.3865 34.1825 31.3689 34.2589 31.3446L34.0365 30.9559L34.1001 30.9159C34.3519 31.3394 34.6134 31.7578 34.8416 32.1936C34.8668 32.2417 34.7089 32.4706 34.6233 32.4787C33.9467 32.5698 33.2643 32.6106 32.5817 32.6009C30.7286 32.4978 29.3885 31.4716 28.2569 30.0927C27.4085 29.0348 26.7385 27.8454 26.2734 26.5715C26.2002 26.3891 26.0755 26.2321 25.9145 26.1194C25.8485 26.0888 25.7759 26.0751 25.7033 26.0796C25.6306 26.084 25.5603 26.1064 25.4984 26.1449C23.396 28.048 21.5254 30.1926 19.9253 32.5342C19.8334 32.669 19.7602 32.8166 19.6782 32.9583L19.7464 33.0459C20.003 32.9988 20.249 32.9051 20.4719 32.7694C21.6679 31.6553 23.1115 31.4531 24.6522 31.5435C26.5053 31.6523 28.1676 32.3383 29.7685 33.2101C30.127 33.4053 30.4675 33.6336 30.9436 33.9244C30.6806 34.1318 30.3969 34.3116 30.097 34.4608C28.1789 35.1359 26.0839 35.1106 24.1825 34.3894C23.031 33.9781 21.9006 33.5077 20.7636 33.0565C20.486 33.0274 20.2054 33.0605 19.9422 33.1534C19.6789 33.2462 19.4397 33.3966 19.2418 33.5935C18.2038 35.3648 17.1703 37.1387 16.1415 38.9153C15.5864 39.8784 15.0823 40.872 14.4974 41.816C14.2559 42.0935 13.9725 42.3315 13.6574 42.5213L13.5232 42.4034C13.7237 41.9905 13.9161 41.5734 14.1268 41.1657C14.38 40.6758 14.6863 40.2094 14.8971 39.7029C14.9758 39.3736 15.1813 39.0887 15.4689 38.9102C15.5155 38.8871 15.4468 38.6314 15.4258 38.4292L15.7476 38.1917C15.2968 36.7649 14.5681 35.4415 13.6037 34.2977C13.5591 34.2373 13.4868 34.1502 13.4272 34.0551C13.3762 33.9751 13.3341 33.8897 13.3017 33.8005C12.5 31.6562 12.1703 29.3641 12.3353 27.0807C12.426 26.0474 12.6254 25.0224 12.8028 23.9984C12.8727 23.8067 12.9742 23.6281 13.103 23.47C13.2819 23.5692 13.4464 23.6924 13.5921 23.836C14.0956 24.4891 14.6123 25.1373 15.0535 25.8322C15.9728 27.2376 16.4328 28.894 16.3699 30.5723C16.3381 31.4135 16.4118 32.2645 16.3099 33.0956C16.1652 34.2753 15.9203 35.4444 15.6816 36.6106C15.6171 36.818 15.6135 37.0397 15.6715 37.2491C15.7294 37.4586 15.8464 37.6469 16.0083 37.7917C16.0459 37.7577 16.1236 37.7178 16.1206 37.6852C16.1003 37.5514 16.1238 37.4145 16.1875 37.2951C16.2512 37.1757 16.3519 37.0801 16.4744 37.0225C16.4986 37.0069 16.5193 36.9864 16.5353 36.9623C16.5512 36.9383 16.5619 36.9112 16.5668 36.8827C16.6316 36.2366 17.09 35.8344 17.4578 35.3601C18.0454 34.6021 18.5561 33.7851 19.1224 33.0099C19.761 32.1359 20.4254 31.2808 21.0766 30.4159C21.0967 30.3892 21.0946 30.3458 21.1168 30.2503L20.7629 30.6075L20.6938 30.5473C21.0129 30.1771 21.3106 29.7851 21.6575 29.443C21.9834 29.1216 22.0098 28.262 21.5996 28.0941C20.7273 27.737 20.3839 26.9822 20.0231 26.2229C19.3632 24.8342 19.2606 23.3493 19.258 21.8408C19.2957 20.0383 19.6253 18.2539 20.2338 16.5569C20.31 16.3807 20.3979 16.2099 20.4968 16.0454C20.689 16.2746 20.8653 16.5167 21.0244 16.77C22.0217 18.6697 22.5827 20.768 22.6665 22.9121C22.783 24.3108 22.6372 25.719 22.2365 27.0642C22.1153 27.3201 22.0498 27.5989 22.0443 27.882C22.0389 28.1652 22.0937 28.4462 22.205 28.7066L23.1348 28.0204L23.0957 27.9499L22.8672 28.0366L22.8044 27.9436C23.1278 27.7541 23.4378 27.5422 23.7319 27.3096C24.1158 26.9652 24.6435 26.751 24.7542 26.1338C24.789 25.9397 25.0656 25.7883 25.2319 25.6177C25.3389 25.4073 25.3954 25.1748 25.3968 24.9387C25.3982 24.7025 25.3446 24.4693 25.24 24.2577C24.9962 23.977 24.7743 23.6781 24.5759 23.3637C24.1986 22.6727 23.946 21.9207 23.8298 21.142C23.5471 19.4978 23.6606 17.8098 24.1609 16.2183C24.2617 15.9116 24.3785 15.6104 24.5106 15.3159C24.52 15.4061 24.5296 15.4957 24.5392 15.5853L24.6363 15.5868L25.0891 14.4131L25.0179 14.3764L24.8159 14.7168ZM28.8361 28.1002C28.762 28.7675 29.1763 28.8574 29.5058 29.0318C29.6307 29.0979 29.7425 29.1883 29.8632 29.2627C30.0965 29.4065 30.3318 29.5467 30.5663 29.6884L30.6304 29.6065L30.0339 29.0897C30.8558 29.5917 31.6273 30.1583 32.4138 30.7033C32.6573 30.8721 32.7988 31.0221 32.4985 31.3186L33.2838 31.6146L33.2689 31.2155C33.134 31.1407 33.0075 31.0515 32.8917 30.9496C32.7666 30.8072 32.7038 30.5982 32.5608 30.4859C32.1011 30.106 31.616 29.7579 31.1089 29.4441C30.6592 29.1816 30.2673 28.7291 29.6497 28.8531C29.5999 28.8631 29.5236 28.8002 29.4766 28.754C29.2763 28.5567 29.0825 28.3531 28.8361 28.1002ZM29.4694 34.5238L29.4667 34.357C29.1561 34.4217 28.8409 34.4619 28.5239 34.4771C27.8834 34.4779 27.2436 34.4324 26.6095 34.341C25.6173 34.1717 24.6391 33.9221 23.653 33.716C23.4368 33.6708 23.2123 33.6657 22.9916 33.6421L22.9774 33.8169C25.0408 34.6228 27.281 34.8668 29.4694 34.5238ZM25.2396 19.2055L25.1702 19.1986L25.1544 18.4465L24.9923 18.4463L24.8993 20.3482L25.048 20.3614L25.1498 19.494C25.6626 19.8451 25.0764 20.3042 25.398 20.6978L25.5673 18.9724L25.4198 19.0494L25.4723 18.4454L25.3802 18.4372L25.2396 19.2055ZM31.2648 28.7057C30.317 27.6876 28.7801 26.8201 28.0815 26.8423L31.2648 28.7057ZM26.5325 33.9266L26.5546 33.8567L27.9089 34.2238L27.9404 34.1231C27.8857 34.0883 27.8275 34.0593 27.7669 34.0364C27.2265 33.8928 26.7509 33.6001 26.1079 33.7564C25.6646 33.8642 25.1341 33.6112 24.6426 33.5193L24.613 33.6566L27.0268 34.2543L27.064 34.1277L26.5325 33.9266ZM14.0088 28.4982L13.79 28.5096C13.9442 29.6116 13.8512 30.7389 14.1136 31.8297L14.2976 31.8121C14.2013 30.7074 14.1051 29.6028 14.0088 28.4982ZM44.3383 16.3186L44.4018 16.4001C44.5151 16.2862 44.6467 16.1923 44.7913 16.1223C45.5239 15.9193 45.9731 15.3655 46.432 14.8269C46.4944 14.7537 46.457 14.5955 46.4658 14.4766C46.3014 14.6102 46.2448 14.8033 46.1581 14.8182C45.7821 14.8824 45.6416 15.1569 45.4553 15.4325C45.2897 15.6213 45.0966 15.7841 44.8826 15.9154C44.7046 16.0542 44.52 16.1845 44.3383 16.3186ZM40.1972 19.7514L40.1257 19.8294L42.9199 22.213L42.9995 22.1182C42.1704 21.2128 41.2285 20.4173 40.1972 19.7514ZM26.0181 19.4468L25.8013 19.4187L25.4647 21.703L25.6267 21.7263C25.7269 20.9618 26.0133 20.2259 26.0181 19.4468ZM30.4267 28.5864L30.5054 28.4414C29.9414 28.1148 29.3804 27.7826 28.8087 27.4698C28.751 27.4382 28.6291 27.5237 28.5371 27.5548C28.5971 27.6115 28.6619 27.663 28.7307 27.7087C28.9212 27.8144 29.1172 27.9103 29.3109 28.0102C29.6828 28.2022 30.0548 28.3943 30.4267 28.5864ZM28.4813 33.9963L28.5251 33.8373L25.8795 33.1239L25.8415 33.2618L28.4813 33.9963ZM13.5891 29.16L13.4115 29.1803L13.7444 31.5261L13.8768 31.5083L13.5891 29.16ZM29.6926 34.0217L29.7436 33.8895L27.2535 33.1595L27.2092 33.3103L29.6926 34.0217ZM35.4291 22.0805L35.5435 22.1016L35.6268 21.7969C36.0962 21.9257 35.704 22.1634 35.709 22.4386C36.0549 21.9008 36.2433 22.4357 36.5572 22.3873L35.6162 21.5079L35.4841 21.56L35.4291 22.0805ZM39.7443 15.5707C40.2288 15.4386 40.8005 14.7124 40.7348 14.295L39.7443 15.5707ZM13.7067 28.2404L13.8907 28.2253L13.6963 26.146L13.55 26.1583L13.7067 28.2404ZM30.4934 30.0675L30.5913 29.9076L29.0834 28.9845L28.9901 29.1369L30.4934 30.0675ZM41.621 21.5242L41.4756 21.6915L42.7095 22.7191L42.8296 22.5815L41.621 21.5242ZM48.6323 18.1921L48.5855 18.3622L50.7138 18.7704L50.7427 18.6282L48.6323 18.1921ZM13.15 31.7597L13.3158 31.7364L12.9471 29.7407L12.8122 29.7653L13.15 31.7597ZM28.8692 30.171L28.7472 30.331L29.9224 31.2822L30.0443 31.1323L28.8692 30.171ZM40.1203 21.3032L39.9866 21.5401L41.3464 22.5653L41.3765 22.5176L40.1203 21.3032ZM28.5168 29.9406L28.5799 29.9044L27.6077 28.586L27.547 28.6254L28.5168 29.9406ZM43.7517 15.0669L43.7997 15.1219L45.0678 14.1861L45.0196 14.1312L43.7517 15.0669ZM25.0019 16.1726C24.665 16.7146 24.5824 17.6097 24.8119 17.9576L25.0019 16.1726ZM44.2618 15.1182L44.3551 15.2437C44.7512 14.9884 45.1245 14.6995 45.4711 14.3802L45.3969 14.2805L44.2618 15.1182ZM35.7725 23.0036L35.8565 22.943L34.9689 21.7394L34.8846 21.7996L35.7725 23.0036ZM45.2104 19.5952L45.2955 19.4401L44.0338 18.8286L43.9667 18.9654L45.2104 19.5952ZM48.0043 18.4611L48.0475 18.2877L46.7983 18.0131L46.7604 18.1835L48.0043 18.4611ZM35.7912 13.19L35.6342 13.1136L35.074 14.3967L35.2118 14.458L35.7912 13.19ZM29.983 30.0687L29.9276 30.2057L31.1656 30.7788L31.2341 30.6245L29.983 30.0687ZM40.7026 13.9903L40.5578 13.8862L39.7507 15.0262L39.8726 15.1137L40.7026 13.9903ZM44.2831 19.5928L44.1988 19.7324L45.4284 20.6182L45.495 20.5215L44.2831 19.5928ZM40.7628 19.4297L40.6525 19.5853L41.5733 20.1923L41.6573 20.0684L40.7628 19.4297ZM49.162 18.8872L49.174 18.7442L47.8187 18.6033L47.8104 18.6642L49.162 18.8872ZM29.8294 17.1079L29.9096 17.2117L30.3626 17.2249L30.444 16.829L30.3439 16.7647L29.8294 17.1079ZM25.9135 21.6462L25.7789 21.6284L25.6621 23.0998L25.8179 23.11L25.9135 21.6462ZM24.1544 33.286L24.1714 33.151L22.6937 32.9593L22.6757 33.1013L24.1544 33.286ZM14.1186 33.2911L14.2358 33.2733L13.96 31.9087L13.8332 31.9354L14.1186 33.2911ZM34.7965 25.5432L34.8993 25.42L34.1261 24.8067L34.0191 24.942L34.7965 25.5432ZM40.2332 20.9236L40.122 21.0586L40.9131 21.6887L41.0139 21.56L40.2332 20.9236ZM14.5834 32.0902L14.4477 32.1057L14.6392 33.3285L14.8004 33.3012L14.5834 32.0902ZM37.2018 23.8286L37.2573 23.6853C36.9594 23.6703 36.8052 23.271 36.4619 23.3778L36.4143 23.5058L37.2018 23.8286Z" fill="#FE897B"/>
<path d="M39.2049 93.1248L15.7217 80.4165L68.9437 68.1895L60.8594 31.2197L4.84638 42.484L3.76367 45.5167L11.848 79.3815L14.6631 80.5127V83.8823L39.2049 97.2646L90.502 80.5127V76.758L39.2049 93.1248ZM7.82987 44.602L59.512 34.2043L66.0565 66.5528L16.0104 77.6244L7.82987 44.602Z" fill="black"/>
<path d="M5.03996 42.4362L4.65137 42.5366L14.4684 80.5662L14.857 80.4658L5.03996 42.4362Z" fill="white"/>
<path d="M39.4051 93.124H39.0039V97.2648H39.4051V93.124Z" fill="white"/>
<path d="M90.5002 77.3598C90.4241 77.3598 90.3488 77.3453 90.2781 77.3171L68.7191 68.7485C68.6457 68.7193 68.5788 68.676 68.5221 68.6209C68.4655 68.5659 68.4202 68.5002 68.389 68.4277C68.3577 68.3552 68.3411 68.2772 68.3399 68.1982C68.3388 68.1192 68.3531 68.0407 68.3823 67.9673C68.4115 67.8939 68.4547 67.827 68.5098 67.7703C68.5648 67.7137 68.6305 67.6684 68.703 67.6371C68.7756 67.6058 68.8535 67.5891 68.9324 67.588C69.0114 67.5868 69.0898 67.6012 69.1632 67.6304L90.7222 76.199C90.8522 76.2507 90.9601 76.3461 91.0274 76.4688C91.0947 76.5915 91.117 76.7338 91.0908 76.8712C91.0645 77.0086 90.9911 77.1326 90.8833 77.2218C90.7755 77.311 90.6401 77.3597 90.5002 77.3598Z" fill="black"/>
<path d="M34.6571 87.2033C34.5778 87.2034 34.4993 87.1877 34.4261 87.1571L21.9388 81.9582C21.8215 81.9094 21.7227 81.8247 21.6565 81.7163C21.5903 81.6079 21.5601 81.4813 21.5703 81.3547C21.5804 81.2281 21.6303 81.1079 21.7129 81.0114C21.7955 80.9149 21.9065 80.847 22.03 80.8175C23.8103 80.3924 65.6567 70.4033 68.4383 70.4033C68.5179 70.4032 68.5967 70.4191 68.6701 70.4499L79.2088 74.8547C79.3286 74.9048 79.4289 74.9923 79.4949 75.1041C79.5608 75.2159 79.5889 75.3461 79.5748 75.4751C79.5608 75.6042 79.5054 75.7253 79.4169 75.8203C79.3284 75.9153 79.2116 75.9791 79.0839 76.0021C78.7647 76.0597 47.0356 81.8278 34.8988 87.1528C34.8226 87.1861 34.7403 87.2033 34.6571 87.2033ZM24.1099 81.5587L34.652 85.9478C45.2659 81.3788 69.7479 76.542 76.8857 75.1881L68.3283 71.6111C65.4922 71.8073 37.0863 78.4694 24.1099 81.5587Z" fill="black"/>
<path d="M51.2578 83.1349L56.5995 86.6009L69.3761 82.124L64.5398 79.5244L51.2578 83.1349Z" fill="black"/>
<path d="M42.2221 84.4955C42.1386 84.4955 42.056 84.478 41.9797 84.4442L31.304 79.7307C31.1583 79.6661 31.0442 79.5463 30.9868 79.3977C30.9293 79.249 30.9331 79.0836 30.9975 78.9378C31.0618 78.792 31.1813 78.6777 31.3298 78.62C31.4783 78.5622 31.6437 78.5658 31.7896 78.6299L42.4653 83.3434C42.5915 83.3991 42.6948 83.4966 42.7577 83.6195C42.8207 83.7423 42.8394 83.883 42.8109 84.0181C42.7824 84.1532 42.7083 84.2744 42.6011 84.3613C42.4939 84.4482 42.3601 84.4956 42.2221 84.4955Z" fill="black"/>
<path d="M50.5735 82.1651C50.4906 82.1651 50.4086 82.1479 50.3327 82.1145L40.1582 77.6557C40.0855 77.6243 40.0196 77.5788 39.9644 77.5218C39.9092 77.4649 39.8659 77.3976 39.8368 77.3238C39.8078 77.25 39.7936 77.1712 39.795 77.092C39.7965 77.0127 39.8137 76.9344 39.8454 76.8618C39.8772 76.7892 39.923 76.7235 39.9803 76.6687C40.0375 76.6138 40.105 76.5708 40.1789 76.5421C40.2528 76.5135 40.3317 76.4997 40.4109 76.5016C40.4902 76.5036 40.5683 76.5211 40.6407 76.5533L50.8152 81.0121C50.9417 81.0676 51.0453 81.1649 51.1086 81.2878C51.1718 81.4106 51.1909 81.5515 51.1625 81.6868C51.1342 81.822 51.0602 81.9434 50.9529 82.0305C50.8456 82.1176 50.7117 82.1651 50.5735 82.1651Z" fill="black"/>
<path d="M59.0055 80.1271C58.9141 80.1271 58.8239 80.1062 58.7419 80.066L49.403 75.5027C49.2596 75.4326 49.1499 75.3085 49.0981 75.1576C49.0462 75.0067 49.0565 74.8414 49.1265 74.698C49.1965 74.5546 49.3205 74.4449 49.4714 74.393C49.6223 74.3412 49.7876 74.3514 49.9309 74.4214L59.2698 78.9847C59.392 79.0444 59.4904 79.1438 59.5488 79.2666C59.6073 79.3895 59.6225 79.5285 59.5918 79.6611C59.5612 79.7936 59.4864 79.9119 59.38 79.9965C59.2735 80.0811 59.1415 80.1272 59.0055 80.1271Z" fill="black"/>
<path d="M69.9116 77.7739C69.8022 77.774 69.695 77.744 69.6014 77.6873L61.4578 72.7726C61.3212 72.6902 61.223 72.5569 61.1846 72.402C61.1463 72.2471 61.171 72.0833 61.2534 71.9467C61.3357 71.8101 61.469 71.7117 61.6239 71.6734C61.7787 71.635 61.9423 71.6598 62.0789 71.7422L70.2226 76.6569C70.3351 76.7249 70.4223 76.8278 70.4709 76.95C70.5194 77.0722 70.5266 77.2069 70.4913 77.3336C70.4561 77.4602 70.3802 77.5719 70.2755 77.6514C70.1709 77.7309 70.0431 77.7739 69.9116 77.7739Z" fill="black"/>
<path d="M28.1547 84.4957C28.0098 84.4956 27.8697 84.4431 27.7604 84.348C27.651 84.2528 27.5797 84.1213 27.5596 83.9777C27.5394 83.8341 27.5718 83.6881 27.6507 83.5665C27.7296 83.4449 27.8497 83.3558 27.9891 83.3158C29.6675 82.8335 69.1638 71.5321 74.261 72.7935C74.4157 72.8319 74.5489 72.9301 74.6312 73.0666C74.7135 73.2032 74.7383 73.3668 74.7001 73.5216C74.662 73.6763 74.5638 73.8096 74.4275 73.8921C74.2911 73.9747 74.1276 73.9997 73.9728 73.9617C69.9905 72.978 39.67 81.2152 28.3211 84.4722C28.267 84.4878 28.211 84.4957 28.1547 84.4957Z" fill="black"/>
<path d="M74.742 65.4216C75.5661 65.4216 76.2341 64.7534 76.2341 63.9291C76.2341 63.1047 75.5661 62.4365 74.742 62.4365C73.918 62.4365 73.25 63.1047 73.25 63.9291C73.25 64.7534 73.918 65.4216 74.742 65.4216Z" fill="#E57BD8"/>
<path d="M78.9793 65.4216C79.8034 65.4216 80.4714 64.7534 80.4714 63.9291C80.4714 63.1047 79.8034 62.4365 78.9793 62.4365C78.1553 62.4365 77.4873 63.1047 77.4873 63.9291C77.4873 64.7534 78.1553 65.4216 78.9793 65.4216Z" fill="#E57BD8"/>
<path d="M83.2137 65.4216C84.0377 65.4216 84.7058 64.7534 84.7058 63.9291C84.7058 63.1047 84.0377 62.4365 83.2137 62.4365C82.3897 62.4365 81.7217 63.1047 81.7217 63.9291C81.7217 64.7534 82.3897 65.4216 83.2137 65.4216Z" fill="#E57BD8"/>
<path d="M11.9227 48.4665C12.7467 48.4665 13.4147 47.7983 13.4147 46.974C13.4147 46.1497 12.7467 45.4814 11.9227 45.4814C11.0987 45.4814 10.4307 46.1497 10.4307 46.974C10.4307 47.7983 11.0987 48.4665 11.9227 48.4665Z" fill="#A876F5"/>
<path d="M16.0819 47.6682C16.9059 47.6682 17.5739 47 17.5739 46.1756C17.5739 45.3513 16.9059 44.6831 16.0819 44.6831C15.2579 44.6831 14.5898 45.3513 14.5898 46.1756C14.5898 47 15.2579 47.6682 16.0819 47.6682Z" fill="#FE897B"/>
<path d="M20.2401 46.8699C21.0641 46.8699 21.7321 46.2016 21.7321 45.3773C21.7321 44.553 21.0641 43.8848 20.2401 43.8848C19.4161 43.8848 18.748 44.553 18.748 45.3773C18.748 46.2016 19.4161 46.8699 20.2401 46.8699Z" fill="#E57BD8"/>
<path d="M9.1693 51.5734C9.07052 51.5733 8.97524 51.5368 8.90173 51.4708C8.82821 51.4048 8.78165 51.3139 8.77093 51.2157C8.76021 51.1175 8.78603 51.0187 8.84357 50.9384C8.90112 50.8581 8.98631 50.8019 9.08275 50.7805L53.9911 40.7866C54.0426 40.7751 54.0959 40.7737 54.1479 40.7828C54.1999 40.7918 54.2496 40.811 54.2941 40.8393C54.3387 40.8676 54.3773 40.9044 54.4076 40.9477C54.4379 40.9909 54.4594 41.0396 54.4709 41.0912C54.4823 41.1427 54.4834 41.196 54.4742 41.248C54.465 41.3 54.4457 41.3497 54.4173 41.3941C54.3889 41.4386 54.3519 41.4771 54.3086 41.5073C54.2653 41.5375 54.2166 41.5588 54.165 41.5701L9.25663 51.564C9.22793 51.5702 9.19866 51.5733 9.1693 51.5734Z" fill="black"/>
<path d="M80.4343 54.3296C82.143 52.9441 79.1904 46.4607 73.8372 39.8537C68.4806 33.246 62.7544 29.0102 61.045 30.3989C59.3325 31.787 62.2858 38.2672 67.6423 44.8748C72.9949 51.4852 78.7217 55.7178 80.4343 54.3296ZM68.2881 43.3956C65.5492 40.0158 63.842 36.8605 64.4706 36.3483C65.0986 35.8394 67.8312 38.1669 70.5701 41.5467C73.3089 44.9264 75.0195 48.0822 74.3881 48.5906C73.7596 49.1028 71.0269 46.7753 68.2881 43.3956Z" fill="white"/>
<path d="M32.9424 69.1422L79.5934 54.5917C77.2701 54.5991 72.3145 50.6423 67.6422 44.8752C62.7353 38.8186 59.8477 32.8716 60.7161 30.8525L32.9424 69.1422Z" fill="white"/>
<path d="M54.3298 22.0935C56.6619 22.1257 58.2526 25.5861 58.6876 26.5324C60.3301 30.1052 60.0471 33.7761 59.3433 37.239C56.5782 50.8433 47.764 59.0451 44.0578 62.4938C42.269 64.1713 40.1664 65.4785 37.8708 66.3403C35.3669 67.2704 31.0734 68.2163 30.1768 66.7494C29.647 65.8824 30.4661 64.4383 32.1186 62.0737C36.0032 56.5151 38.3192 54.7041 40.4121 51.9908C44.6205 46.5348 45.9224 40.029 46.6332 36.4769C47.2312 33.4887 47.5434 30.2794 49.7823 26.4039C50.8389 24.5749 52.3296 22.0658 54.3298 22.0935Z" fill="#FFF2ED"/>
<path d="M106.75 39.0821C106.75 39.0821 103.144 42.5142 96.1898 40.2367C89.2355 37.9591 79.9686 30.3565 74.2451 38.5872C74.2451 38.5872 80.6856 35.2336 86.9405 39.8261C93.1953 44.4186 103.377 46.7163 107.16 46.1072C107.16 46.1072 108.458 44.1195 106.75 39.0821Z" fill="#A876F5"/>
<path d="M96.5529 51.6779C96.5529 51.6779 92.8461 52.4621 89.267 46.9185C85.6878 41.3749 75.1836 45.4551 75.1836 45.4551L76.4594 47.1264C76.4594 47.1264 84.5223 46.0699 87.3399 49.7812C90.1574 53.4924 90.327 58.4847 95.7853 59.4487C95.7853 59.4487 99.4393 55.97 96.5529 51.6779Z" fill="#FE897B"/>
<path d="M97.2852 19.1174C97.8247 18.3754 98.5176 17.7583 99.3168 17.3082C100.116 16.8581 101.003 16.5856 101.917 16.5091C105.006 16.2761 107.575 15.1044 108.559 13.9207C108.559 13.9207 108.718 9.91768 104.042 9.58887C104.042 9.58887 104.829 12.4629 102.912 13.3738C100.995 14.2846 97.415 15.2928 97.2852 19.1174Z" fill="#FE897B"/>
<path d="M61.916 1.35257C61.916 1.35257 72.3407 5.31729 69.7402 24.4306C69.7402 24.4306 76.8967 18.9138 71.0833 2.02111C71.0833 2.02112 67.1021 -2.04114 61.916 1.35257Z" fill="#E57BD8"/>
<path d="M50.2508 8.82604C50.2508 8.82604 55.0988 7.90088 55.5113 13.2781C55.9238 18.6554 58.5642 21.9513 62.6559 22.3077C61.1648 21.3651 59.9447 20.0503 59.1158 18.4928C58.2868 16.9352 57.8776 15.1886 57.9284 13.4248C57.9671 7.14384 54.8886 5.42525 54.8886 5.42525C54.8886 5.42525 50.1812 4.72507 50.2508 8.82604Z" fill="#A876F5"/>
<path d="M94.3427 17.2032C92.5569 12.2854 88.1537 10.229 83.3109 12.3478C80.1388 13.6411 79.1831 16.7786 80.1648 19.9021C80.5693 21.1078 81.0726 22.4583 82.1084 23.25C83.238 23.8938 84.8252 23.7942 85.3764 22.4803C86.9652 19.5739 83.1165 18.1194 80.7985 18.1358C80.0638 18.1035 79.3344 18.273 78.6892 18.626C78.1023 19.0893 77.5677 19.6152 77.095 20.1945C75.6415 21.8863 74.7656 24.1726 75.1992 26.4023C75.2971 27.1293 75.5424 27.8285 75.9201 28.4573C76.2987 29.0539 76.9941 29.2046 77.455 28.6257C77.7668 28.2167 77.9097 27.7036 77.8541 27.1923C77.7984 26.681 77.5486 26.2107 77.1562 25.8784C76.374 25.083 75.2101 25.3227 74.4108 26.0309C72.7432 27.5342 72.2321 29.9207 72.3034 32.1017C72.377 33.601 72.6974 35.0779 73.2518 36.4728C73.2825 36.5552 73.2796 36.6465 73.2436 36.7268C73.2076 36.8072 73.1415 36.8701 73.0595 36.902C72.9775 36.9338 72.8862 36.9321 72.8054 36.8972C72.7246 36.8623 72.6609 36.7969 72.6279 36.7153C71.5319 33.8001 71.1914 30.3981 72.5953 27.5117C73.2827 26.1154 74.6684 24.5557 76.4007 24.8739C78.3872 25.2871 79.2121 28.3109 77.3025 29.368C75.6147 30.0214 74.9288 27.7011 74.7452 26.4776C74.1608 23.2889 76.0308 20.1961 78.4872 18.3081C79.9188 17.5072 81.619 17.7245 83.1123 18.1664C84.5327 18.6146 86.3446 19.7483 86.0082 21.4846C85.8066 22.6507 85.023 23.9064 83.709 23.9031C83.3071 23.9222 82.9055 23.8577 82.5298 23.7137C82.1541 23.5697 81.8123 23.3493 81.5261 23.0664C80.7977 22.1494 80.2659 21.0922 79.9638 19.9606C79.2977 17.7673 79.5061 15.0773 81.3086 13.4683C83.0438 11.9339 85.4958 11.3074 87.7752 11.465C90.9358 11.7046 93.3678 14.3283 94.3427 17.2033V17.2032Z" fill="#A876F5"/>
<path d="M106.81 19.5986C108.113 23.0481 108.323 27.1115 106.584 30.4533C104.877 33.6216 101.22 36.6851 97.4184 35.5427C95.8067 35.0265 94.1383 33.6419 94.1335 31.817C94.1861 29.5419 97.1796 28.2791 98.1945 30.6717C99.0327 33.0893 96.7951 35.0691 94.5065 35.1471C92.5585 35.2925 90.7198 34.5836 89.0183 33.7273C88.9777 33.7075 88.9416 33.6798 88.912 33.6457C88.8825 33.6116 88.8601 33.5719 88.8462 33.529C88.8324 33.4861 88.8274 33.4408 88.8314 33.3959C88.8355 33.3509 88.8486 33.3073 88.8699 33.2675C88.8913 33.2278 88.9204 33.1928 88.9556 33.1646C88.9908 33.1364 89.0313 33.1156 89.0747 33.1035C89.1182 33.0913 89.1636 33.0881 89.2083 33.0939C89.253 33.0997 89.2961 33.1145 89.335 33.1374C90.9087 33.9606 92.6659 34.6742 94.4651 34.5628C96.1608 34.5285 98.0092 33.2927 97.8542 31.4583C97.7106 29.251 95.1314 29.4192 94.6246 31.3663C94.3661 32.2011 94.7399 33.0819 95.3127 33.7549C95.9112 34.4314 96.6772 34.9383 97.5338 35.2247C98.3903 35.511 99.3072 35.5667 100.192 35.3861C102.887 34.8151 105.108 32.731 106.437 30.3749C108.208 27.096 108.053 23.0383 106.81 19.5986Z" fill="#E57BD8"/>
<path d="M64.9335 17.1463C65.6103 17.1463 66.159 16.5976 66.159 15.9208C66.159 15.244 65.6103 14.6953 64.9335 14.6953C64.2567 14.6953 63.708 15.244 63.708 15.9208C63.708 16.5976 64.2567 17.1463 64.9335 17.1463Z" fill="#FE897B"/>
<path d="M84.4544 8.03694C85.3639 8.03694 86.1012 7.29939 86.1012 6.38957C86.1012 5.47975 85.3639 4.74219 84.4544 4.74219C83.5449 4.74219 82.8076 5.47975 82.8076 6.38957C82.8076 7.29939 83.5449 8.03694 84.4544 8.03694Z" fill="#FE897B"/>
<path d="M98.0837 7.4399C99.6983 7.4399 101.007 6.13052 101.007 4.51535C101.007 2.90017 99.6983 1.59082 98.0837 1.59082C96.4691 1.59082 95.1602 2.90017 95.1602 4.51535C95.1602 6.13052 96.4691 7.4399 98.0837 7.4399Z" fill="#E57BD8"/>
<path d="M109.509 37.5848C110.884 37.5848 111.999 36.4695 111.999 35.0937C111.999 33.7179 110.884 32.6025 109.509 32.6025C108.134 32.6025 107.019 33.7179 107.019 35.0937C107.019 36.4695 108.134 37.5848 109.509 37.5848Z" fill="#FE897B"/>
<path d="M103.539 55.4316C105.232 55.4316 106.604 54.0587 106.604 52.3652C106.604 50.6717 105.232 49.2988 103.539 49.2988C101.846 49.2988 100.474 50.6717 100.474 52.3652C100.474 54.0587 101.846 55.4316 103.539 55.4316Z" fill="#E57BD8"/>
<path d="M80.4343 54.3296C82.143 52.9441 79.1904 46.4607 73.8372 39.8537C68.4806 33.246 62.7544 29.0102 61.045 30.3989C59.3325 31.787 62.2858 38.2672 67.6423 44.8748C72.9949 51.4852 78.7217 55.7178 80.4343 54.3296ZM68.2881 43.3956C65.5492 40.0158 63.842 36.8605 64.4706 36.3483C65.0986 35.8394 67.8312 38.1669 70.5701 41.5467C73.3089 44.9264 75.0195 48.0822 74.3881 48.5906C73.7596 49.1028 71.0269 46.7753 68.2881 43.3956Z" fill="white"/>
<path d="M79.5925 54.9947C78.284 54.9947 76.5476 53.9471 75.1643 52.9246C72.7218 51.1194 69.9396 48.3504 67.3299 45.1278C64.7185 41.9064 62.5869 38.6105 61.327 35.8466C60.3867 33.7836 59.531 31.1098 60.7917 30.0873C62.0519 29.0656 64.4882 30.458 66.3112 31.8056C68.7526 33.6108 71.5359 36.3794 74.1477 39.6016C78.9698 45.5529 82.9001 52.8463 80.6863 54.6417V54.6421C80.3741 54.884 79.9871 55.0088 79.5925 54.9947ZM61.8882 30.5418C61.6776 30.5287 61.4689 30.5883 61.2968 30.7106C60.7924 31.1196 60.727 32.5962 62.057 35.5136C63.2891 38.2176 65.3831 41.4523 67.9529 44.6225C70.5212 47.7941 73.2516 50.5134 75.6409 52.2794C78.2186 54.1849 79.6767 54.427 80.1811 54.0188C81.4985 52.9501 79.0892 46.9742 73.525 40.107C70.9544 36.9357 68.2232 34.2169 65.8342 32.4508C63.9286 31.0421 62.6358 30.5418 61.8882 30.5418ZM74.1582 49.0627C74.1229 49.0627 74.0876 49.0609 74.0525 49.0572C72.7758 48.9255 70.0806 46.2455 67.976 43.6485C67.4426 42.9904 62.8066 37.1864 64.2164 36.0378C65.6298 34.8946 70.3473 40.6359 70.8807 41.2944C72.9857 43.8914 75.0484 47.0835 74.9129 48.3598C74.9062 48.4643 74.8786 48.5663 74.8315 48.6598C74.7843 48.7532 74.7188 48.8362 74.6388 48.9036C74.5021 49.0111 74.3321 49.0674 74.1582 49.0627ZM64.7369 36.6787C64.6582 37.2252 65.8158 39.709 68.5987 43.1432C71.3844 46.5805 73.5739 48.2282 74.121 48.2623C74.2013 47.7197 73.0429 45.2363 70.258 41.7998C67.4763 38.3672 65.2879 36.7175 64.7369 36.6787Z" fill="black"/>
<path d="M56.9892 35.9893C56.9892 35.9893 62.207 53.4233 76.5087 55.5546L72.5523 56.7886C72.5523 56.7886 57.3427 52.072 53.2236 41.1805L56.9892 35.9893Z" fill="#FE897B"/>
<path d="M50.5972 44.8008C50.5972 44.8008 54.2802 58.5843 64.034 59.4443L55.713 62.0396C55.713 62.0396 48.0105 55.7551 49.1733 46.7638L50.5972 44.8008Z" fill="#A876F5"/>
<path d="M77.5611 55.6278C77.5429 55.6278 77.5247 55.6266 77.5066 55.6243C77.3707 55.6055 63.8334 53.5687 56.6165 36.1436C56.5963 36.0949 56.5859 36.0428 56.5859 35.9901C56.5859 35.9374 56.5963 35.8852 56.6165 35.8366C56.6366 35.7879 56.6661 35.7437 56.7033 35.7064C56.7406 35.6691 56.7848 35.6396 56.8334 35.6194C56.8821 35.5993 56.9342 35.5889 56.9869 35.5889C57.0395 35.5889 57.0917 35.5992 57.1404 35.6194C57.189 35.6395 57.2333 35.6691 57.2705 35.7063C57.3077 35.7436 57.3373 35.7878 57.3574 35.8365C64.4001 52.8408 77.4835 54.8114 77.6147 54.829C77.7155 54.8427 77.8073 54.8941 77.8715 54.9729C77.9358 55.0517 77.9677 55.152 77.9609 55.2535C77.9541 55.355 77.909 55.4501 77.8348 55.5195C77.7606 55.589 77.6627 55.6277 77.5611 55.6278Z" fill="#FE897B"/>
<path d="M65.3652 59.4306C65.3462 59.4306 65.3272 59.4293 65.3084 59.4267C62.3287 58.8068 59.5252 57.5281 57.1034 55.6842C54.6815 53.8403 52.7026 51.4779 51.3114 48.77C51.2632 48.6755 51.2544 48.5657 51.2869 48.4647C51.3194 48.3637 51.3905 48.2797 51.4848 48.2311C51.5791 48.1825 51.6888 48.1732 51.7899 48.2054C51.891 48.2375 51.9752 48.3084 52.0242 48.4026C53.3551 50.9979 55.2486 53.2631 57.5664 55.033C59.8843 56.8028 62.568 58.0324 65.4216 58.6322C65.5219 58.6467 65.6131 58.6986 65.6767 58.7775C65.7403 58.8564 65.7717 58.9565 65.7645 59.0576C65.7574 59.1588 65.7122 59.2535 65.6381 59.3227C65.564 59.3918 65.4665 59.4304 65.3652 59.4306Z" fill="#A876F5"/>
<path d="M54.6722 62.7659C54.6002 62.766 54.5295 62.7465 54.4677 62.7095C51.2986 60.8271 49.8343 53.5547 49.7732 53.246C49.7526 53.1415 49.7743 53.0332 49.8336 52.9448C49.8929 52.8564 49.9849 52.7952 50.0892 52.7747C50.1936 52.7541 50.302 52.7758 50.3903 52.8351C50.4787 52.8944 50.5398 52.9864 50.5604 53.0908C50.5745 53.1629 52.0153 60.3197 54.8774 62.02C54.9529 62.0649 55.0116 62.1334 55.0444 62.2149C55.0772 62.2964 55.0824 62.3865 55.0591 62.4712C55.0358 62.556 54.9853 62.6307 54.9154 62.684C54.8455 62.7372 54.76 62.766 54.6722 62.7659Z" fill="#A876F5"/>
<path d="M42.9092 55.3984C42.9092 55.3984 42.9587 62.1006 52.3311 63.0947L48.8077 64.1937C48.8077 64.1937 41.7241 64.0092 39.9414 59.49L42.9092 55.3984Z" fill="#E57BD8"/>
<path d="M43.5131 65.8462C43.5131 65.8462 37.821 66.015 37.4437 62.9375L32.9424 69.1433L43.5131 65.8462Z" fill="#FE897B"/>
<path d="M50.4546 63.5682C50.4115 63.5682 50.3686 63.5611 50.3277 63.5474C46.0875 62.1343 43.0602 55.3132 42.9333 55.0237C42.8912 54.9264 42.8894 54.8163 42.9283 54.7177C42.9671 54.619 43.0433 54.5397 43.1404 54.4971C43.2375 54.4545 43.3476 54.4522 43.4464 54.4905C43.5453 54.5289 43.6249 54.6048 43.668 54.7017C43.6977 54.7695 46.6793 61.486 50.5815 62.7866C50.6718 62.8168 50.7484 62.8781 50.7977 62.9595C50.8469 63.041 50.8655 63.1374 50.8503 63.2314C50.835 63.3254 50.7869 63.4109 50.7144 63.4726C50.6419 63.5343 50.5498 63.5682 50.4546 63.5682Z" fill="#E57BD8"/>
<path d="M32.944 69.5443C32.8701 69.5443 32.7976 69.5239 32.7346 69.4853C32.6716 69.4467 32.6204 69.3914 32.5868 69.3255C32.5532 69.2596 32.5384 69.1858 32.5442 69.112C32.5499 69.0383 32.576 68.9676 32.6194 68.9077L60.3932 30.6178C60.4512 30.5379 60.5365 30.4821 60.633 30.4612C60.7294 30.4403 60.8302 30.4558 60.916 30.5046C61.0018 30.5533 61.0667 30.6321 61.0981 30.7257C61.1295 30.8192 61.1254 30.9212 61.0864 31.0119C60.3776 32.6599 62.7531 38.202 67.9556 44.6235C72.9925 50.8404 77.706 54.1914 79.5888 54.1914C79.5909 54.1916 79.593 54.1916 79.5951 54.1914C79.691 54.1915 79.7837 54.2259 79.8564 54.2884C79.9291 54.3509 79.9771 54.4374 79.9915 54.5323C80.0059 54.6271 79.9859 54.724 79.9351 54.8053C79.8843 54.8867 79.8061 54.9471 79.7145 54.9757L33.0635 69.5263C33.0248 69.5382 32.9845 69.5443 32.944 69.5443ZM60.2056 32.2423L33.9783 68.4004L78.0811 54.6447C75.3524 53.5451 71.2295 49.9387 67.3322 45.1288C63.2406 40.0784 60.5299 35.0899 60.2056 32.2423Z" fill="black"/>
</svg>