<svg width="116" height="102" viewBox="0 0 116 102" fill="none" xmlns="http://www.w3.org/2000/svg">
<g clip-path="url(#clip0_622_62256)">
<path d="M87.435 21.4896C86.5582 19.2857 87.4894 16.9328 87.8678 15.9768C88.6086 14.1051 89.7996 12.7212 92.4561 10.5501C97.673 6.28623 100.777 3.7495 105.528 3.3145C107.277 3.15443 109.821 2.92154 112.108 4.52044C115.155 6.65116 115.449 10.4289 115.484 10.9808C115.751 15.275 112.693 18.3748 110.896 20.1976C109.927 21.1795 104.024 26.9543 96.0054 26.055C94.6618 25.9043 88.9358 25.2621 87.435 21.4896Z" fill="white"/>
<path d="M104.178 24.4418C102.297 24.4024 100.447 23.959 98.7547 23.1421C97.062 22.3252 95.5667 21.154 94.3711 19.7087C92.2705 17.3039 91.1121 14.2259 91.1088 11.0397C91.0768 9.57393 91.3738 8.11951 91.978 6.78233C92.5822 5.44515 93.4784 4.25885 94.6015 3.30978C95.7246 2.36071 97.0462 1.67275 98.4702 1.296C99.8942 0.919245 101.385 0.863167 102.833 1.13185C105.993 1.65097 108.858 3.28673 110.903 5.73878H110.903C115.333 10.9299 115.23 18.2866 110.673 22.1378C108.854 23.6536 106.55 24.4709 104.178 24.4418ZM101.089 1.95528C98.9463 1.92855 96.8653 2.668 95.2245 4.03911C94.2191 4.91017 93.4163 5.98849 92.8717 7.19922C92.3271 8.40994 92.0537 9.72409 92.0707 11.0504C92.0765 14.0059 93.1536 16.8601 95.1043 19.089C99.1918 23.8786 105.896 24.9189 110.05 21.4083C114.203 17.8987 114.257 11.1472 110.17 6.35846C108.275 4.08223 105.618 2.56247 102.688 2.07819C102.159 1.99698 101.624 1.9559 101.089 1.95528Z" fill="black"/>
<path d="M47.8049 18.725C54.4386 17.9386 71.083 21.5526 80.0863 30.9704C91.2052 42.6011 98.7066 64.2241 90.2281 73.2502C84.333 79.5261 63.8841 94.7072 36.8013 69.1009C30.9145 63.535 27.3876 48.4655 32.2039 33.3755C33.0109 30.8471 36.4502 20.0711 47.8049 18.725Z" fill="white"/>
<path d="M72.0699 100.562C72.0452 100.562 72.0206 100.56 71.9962 100.556L25.5943 93.4352C25.4733 93.4168 25.364 93.3531 25.2886 93.2571C25.2132 93.1611 25.1774 93.0402 25.1885 92.9188C28.3898 57.8865 46.2754 9.89405 46.4558 9.41318C46.4953 9.30664 46.5718 9.21763 46.6714 9.1622C46.771 9.10676 46.8873 9.08855 46.9992 9.11082L93.8627 18.299C93.981 18.3222 94.0862 18.3888 94.1576 18.4855C94.2289 18.5823 94.2611 18.7022 94.2479 18.8215C92.6454 33.1699 72.7312 99.5512 72.5302 100.22C72.5006 100.319 72.4399 100.405 72.357 100.467C72.2741 100.528 72.1733 100.561 72.0699 100.562ZM26.188 92.5581L71.7284 99.5465C73.3812 94.0236 91.389 33.6549 93.2395 19.1523L47.2157 10.1291C45.5273 14.7131 29.331 59.3524 26.188 92.5581Z" fill="black"/>
<path d="M66.0096 94.4168C65.9669 94.4167 65.9244 94.4111 65.8832 94.4L35.4108 86.1306C35.3188 86.1057 35.2362 86.0542 35.1738 85.9825C35.1113 85.9109 35.0717 85.8223 35.06 85.7282C34.8801 84.2968 36.6071 77.9873 36.8048 77.2723C36.8328 77.1713 36.8932 77.0822 36.977 77.0187C37.0607 76.9553 37.1631 76.9209 37.2684 76.9209C38.8493 76.9209 63.3545 83.9743 66.1434 84.7786C66.2049 84.7964 66.2622 84.8262 66.3119 84.8663C66.3617 84.9064 66.4028 84.956 66.4331 85.0121C66.4634 85.0682 66.4821 85.1298 66.4882 85.1932C66.4942 85.2567 66.4875 85.3206 66.4684 85.3814L64.7166 90.9441L66.4187 93.6868C66.4636 93.7593 66.4884 93.8424 66.4903 93.9276C66.4922 94.0127 66.4712 94.0969 66.4295 94.1713C66.3878 94.2457 66.3269 94.3077 66.2531 94.3508C66.1793 94.394 66.0952 94.4168 66.0096 94.4168ZM36.0092 85.301L64.9599 93.1573L63.7829 91.2609C63.7466 91.2026 63.7235 91.1371 63.7149 91.0691C63.7063 91.001 63.7125 90.9319 63.7331 90.8665L65.4037 85.5618C55.1634 82.612 40.2776 78.4215 37.6225 77.9261C36.9429 80.4277 36.0721 84.0079 36.0092 85.301Z" fill="black"/>
<path d="M63.3258 88.1287C63.2257 88.1288 63.1281 88.0976 63.0468 88.0394C61.1212 86.6711 44.7052 82.5946 38.5426 81.1389C38.4188 81.1093 38.3117 81.0322 38.245 80.9243C38.1783 80.8164 38.1575 80.6866 38.1868 80.5634C38.2162 80.4401 38.2934 80.3335 38.4017 80.2668C38.5099 80.2002 38.6403 80.179 38.7643 80.2079C39.6768 80.4234 61.1334 85.5037 63.6058 87.2609C63.6887 87.3198 63.7507 87.4035 63.7827 87.4997C63.8147 87.596 63.8151 87.6999 63.784 87.7964C63.7529 87.8929 63.6917 87.9772 63.6094 88.0369C63.527 88.0966 63.4277 88.1288 63.3258 88.1287Z" fill="black"/>
<path d="M62.2008 90.1958C62.1149 90.1959 62.0306 90.1731 61.9566 90.1298C61.8825 90.0865 61.8216 90.0243 61.78 89.9496C60.9655 89.0032 48.8888 85.9861 37.9459 83.6387C37.8212 83.612 37.7124 83.537 37.6432 83.4303C37.5741 83.3237 37.5503 83.1941 37.5772 83.07C37.6041 82.9459 37.6795 82.8376 37.7867 82.7688C37.8939 82.7 38.0241 82.6764 38.1488 82.7032C43.6618 83.886 61.7194 87.8699 62.6207 89.485C62.6514 89.5399 62.671 89.6003 62.6782 89.6628C62.6854 89.7252 62.6802 89.7885 62.6628 89.8489C62.6455 89.9093 62.6163 89.9657 62.577 90.0149C62.5377 90.0641 62.489 90.1051 62.4337 90.1356C62.3626 90.1752 62.2824 90.196 62.2008 90.1958Z" fill="black"/>
<path d="M75.4746 19.5341C75.4464 19.5341 75.4183 19.5316 75.3906 19.5266L60.0966 16.8277C60.0031 16.8113 59.9167 16.7677 59.8481 16.7024C59.7796 16.6371 59.732 16.5531 59.7115 16.4609L58.7303 12.0951C58.7129 12.0175 58.7152 11.9367 58.737 11.8602C58.7588 11.7836 58.7994 11.7137 58.8553 11.6567C58.9111 11.5997 58.9804 11.5575 59.0567 11.5338C59.1331 11.5102 59.2141 11.5059 59.2925 11.5212L79.4819 15.4795C79.5719 15.4972 79.6551 15.5401 79.7214 15.6032C79.7878 15.6663 79.8346 15.747 79.8563 15.8357C79.8781 15.9244 79.8739 16.0175 79.8442 16.1039C79.8146 16.1903 79.7607 16.2665 79.689 16.3235L75.7743 19.4298C75.6891 19.4973 75.5835 19.534 75.4746 19.5341ZM60.5799 15.9412L75.3445 18.5466L78.2777 16.2188L59.8298 12.6022L60.5799 15.9412Z" fill="black"/>
<path d="M68.3122 16.6297C68.8546 16.6297 69.2943 16.1922 69.2943 15.6525C69.2943 15.1128 68.8546 14.6753 68.3122 14.6753C67.7698 14.6753 67.3301 15.1128 67.3301 15.6525C67.3301 16.1922 67.7698 16.6297 68.3122 16.6297Z" fill="black"/>
<path d="M93.7705 18.7686C92.1545 33.2398 72.0703 100.083 72.0703 100.083L79.3896 101.002C84.0411 87.1959 87.9933 73.1665 91.2311 58.9664C94.1749 46.0553 96.3401 33.8268 97.9258 22.4438L93.7705 18.7686Z" fill="black"/>
<path d="M90.3752 82.719C90.2865 82.719 90.1996 82.6945 90.124 82.6483C90.0483 82.6022 89.987 82.5361 89.9468 82.4573C89.9066 82.3786 89.889 82.2904 89.8961 82.2024C89.9031 82.1144 89.9346 82.03 89.9868 81.9587C101.9 65.6951 94.956 51.3972 94.8846 51.2551C94.8275 51.1416 94.8182 51.0102 94.8585 50.8897C94.8988 50.7693 94.9856 50.6698 95.0997 50.613C95.2138 50.5563 95.3459 50.5469 95.467 50.5871C95.588 50.6272 95.688 50.7135 95.745 50.8271C95.8192 50.9752 103.018 65.7938 90.7646 82.5223C90.7199 82.5833 90.6613 82.6329 90.5936 82.6671C90.526 82.7013 90.4511 82.7191 90.3752 82.719Z" fill="black"/>
<path d="M96.895 82.2295C96.8003 82.2295 96.7078 82.2017 96.6289 82.1496C96.5501 82.0975 96.4885 82.0234 96.4518 81.9365C96.415 81.8497 96.4048 81.754 96.4225 81.6615C96.4402 81.569 96.485 81.4837 96.5512 81.4164C102.192 75.6836 102.15 61.174 102.149 61.0282C102.148 60.9013 102.197 60.7792 102.287 60.6887C102.376 60.5983 102.498 60.5469 102.626 60.5459H102.63C102.757 60.5459 102.878 60.5957 102.968 60.6847C103.059 60.7736 103.11 60.8944 103.111 61.0207C103.115 61.6324 103.158 76.071 97.2388 82.0856C97.1941 82.1312 97.1406 82.1674 97.0816 82.1922C97.0225 82.2169 96.9591 82.2296 96.895 82.2295Z" fill="black"/>
<path d="M37.0957 68.499C37.0957 68.499 46.5608 47.3664 60.9892 53.5684C75.4175 59.7703 72.0702 79.8692 72.0702 79.8692L37.0957 68.499Z" fill="#FE897B"/>
<path d="M64.3931 51.0415C69.4293 51.0415 73.5119 46.9792 73.5119 41.9682C73.5119 36.9572 69.4293 32.895 64.3931 32.895C59.357 32.895 55.2744 36.9572 55.2744 41.9682C55.2744 46.9792 59.357 51.0415 64.3931 51.0415Z" fill="#FE897B"/>
<path d="M76.9744 41.4226C76.7907 41.4225 76.614 41.3526 76.4803 41.2273C76.3466 41.102 76.2659 40.9307 76.2548 40.7483C76.1614 39.2149 75.2479 31.4596 66.4171 29.3431C59.1404 27.5981 54.7546 34.9506 54.5714 35.2646C54.4756 35.4294 54.3179 35.5496 54.1331 35.5987C53.9483 35.6478 53.7514 35.6218 53.5858 35.5265C53.4202 35.4312 53.2994 35.2743 53.25 35.0904C53.2006 34.9065 53.2268 34.7106 53.3226 34.5458C53.3723 34.4598 58.4209 25.9502 66.7552 27.9476C74.3606 29.7702 77.3928 35.7104 77.6948 40.6613C77.7007 40.7554 77.6878 40.8497 77.6569 40.9388C77.6261 41.028 77.5778 41.1102 77.515 41.1808C77.4521 41.2513 77.376 41.3089 77.2908 41.3501C77.2056 41.3914 77.1131 41.4155 77.0185 41.4212C77.0035 41.4221 76.9889 41.4226 76.9744 41.4226Z" fill="black"/>
<path d="M51.8129 34.7903C51.8129 34.7903 55.1267 34.3072 56.0259 35.5369C54.8726 37.875 54.168 40.4068 53.9482 43.0022L50.8317 42.3705C50.8317 42.3705 50.4855 36.8002 51.8129 34.7903Z" fill="black"/>
<path d="M75.0132 40.4751L79.1108 41.0494C79.1108 41.0494 78.072 48.8018 76.6869 49.6058L73.5127 48.687C73.5127 48.687 75.3595 42.083 75.0132 40.4751Z" fill="black"/>
<path d="M61.9137 47.6248C61.8766 47.6248 61.8396 47.622 61.8029 47.6164L52.7997 46.2383C52.6525 46.2157 52.5159 46.1484 52.4087 46.0456C52.3015 45.9427 52.2289 45.8094 52.2009 45.6639L51.6532 42.8155C51.6177 42.6287 51.658 42.4354 51.7655 42.2781C51.873 42.1209 52.0388 42.0125 52.2265 41.9767C52.4142 41.9409 52.6086 41.9807 52.7668 42.0874C52.9251 42.194 53.0344 42.3587 53.0707 42.5454L53.5225 44.8966L62.0227 46.1976C62.2022 46.2252 62.3647 46.3192 62.4777 46.4608C62.5906 46.6024 62.6457 46.7811 62.632 46.9614C62.6182 47.1416 62.5365 47.3101 62.4034 47.4331C62.2702 47.5561 62.0954 47.6245 61.9137 47.6248Z" fill="black"/>
<path d="M67.2414 48.4236C67.4817 47.5066 66.4718 46.4508 64.9857 46.0652C63.4997 45.6797 62.1002 46.1104 61.8599 47.0273C61.6196 47.9442 62.6295 49.0001 64.1156 49.3856C65.6017 49.7712 67.0011 49.3405 67.2414 48.4236Z" fill="black"/>
<path d="M95.2452 12.9899C95.9946 14.5582 97.0121 15.9851 98.2521 17.2071C99.4593 18.4502 100.882 19.4662 102.453 20.2059C103.065 20.4955 103.73 20.6589 104.407 20.6865C104.648 20.6996 104.89 20.6641 105.117 20.5823C105.344 20.5004 105.552 20.3738 105.729 20.2101L107.009 18.9379C107.194 18.7308 107.291 18.4589 107.276 18.1815C107.261 17.9042 107.137 17.6439 106.93 17.4573L105.045 15.5809C104.858 15.3755 104.596 15.2521 104.317 15.2377C104.039 15.2232 103.766 15.3188 103.557 15.5037L102.97 16.088C102.807 16.2089 101.802 15.9005 100.671 14.7755C99.5386 13.6496 99.2286 12.6481 99.351 12.4878L99.9392 11.9035C100.125 11.696 100.221 11.4241 100.206 11.1467C100.191 10.8693 100.067 10.6089 99.8606 10.4221L97.9748 8.54669C97.7872 8.34103 97.5255 8.21752 97.2468 8.20306C96.968 8.18859 96.6949 8.28436 96.4868 8.46949L95.2083 9.74188C94.5692 10.3767 94.5822 11.5308 95.2452 12.9899ZM95.8316 10.3622L97.1104 9.08979C97.1243 9.07895 97.1418 9.07376 97.1594 9.0753C97.2331 9.08022 97.302 9.11303 97.3522 9.16698L99.2372 11.0423C99.3345 11.1393 99.3431 11.2549 99.3148 11.2832L98.7273 11.8675C97.9963 12.595 98.8384 14.1929 100.048 15.3958C100.585 15.9491 101.216 16.4049 101.911 16.7428C102.898 17.1865 103.389 16.9114 103.593 16.7083L104.181 16.124C104.208 16.0957 104.325 16.1045 104.422 16.2012L106.307 18.0776C106.404 18.1744 106.413 18.2891 106.385 18.3174L105.106 19.5898C104.751 19.9436 103.89 19.8734 102.805 19.4014C101.336 18.7056 100.005 17.7522 98.8755 16.5868C97.7106 15.4399 96.7541 14.101 96.0485 12.6293C95.562 11.5582 95.4811 10.7109 95.8316 10.3622ZM109.856 13.9624C109.853 11.6748 108.939 9.4818 107.313 7.86433C105.687 6.24686 103.483 5.33706 101.184 5.33447V6.21183C103.249 6.21413 105.229 7.03143 106.69 8.48442C108.15 9.93741 108.972 11.9074 108.975 13.9624H109.856Z" fill="black"/>
<path d="M101.348 7.73096V8.60831C102.818 8.60992 104.227 9.19165 105.267 10.2259C106.306 11.2601 106.891 12.6624 106.893 14.1251H107.775C107.773 12.4298 107.095 10.8044 105.89 9.60568C104.685 8.40694 103.052 7.73273 101.348 7.73096Z" fill="black"/>
<path d="M104.649 14.1258H105.53C105.529 13.0226 105.088 11.9649 104.304 11.1849C103.52 10.4048 102.456 9.9661 101.348 9.96484V10.8423C102.223 10.8431 103.062 11.1892 103.681 11.8048C104.299 12.4204 104.648 13.2551 104.649 14.1258Z" fill="black"/>
</g>
<g clip-path="url(#clip1_622_62256)">
<path d="M18.2487 70.8953C20.4436 67.7976 21.4839 64.2685 21.9814 60.5381C22.0302 59.8121 22.1191 59.0893 22.2477 58.3732C22.9595 55.519 21.5874 53.2751 20.1288 51.0935C19.6579 50.5474 19.0697 50.1163 18.4088 49.8328C15.2358 48.1029 13.5961 45.2532 12.7611 41.8819C12.6903 41.5177 12.7002 41.1422 12.7903 40.7823C12.8804 40.4225 13.0484 40.087 13.2823 39.8001C13.5687 39.5215 14.6881 39.7977 15.2253 40.1489C17.2048 41.4433 18.1851 43.5472 19.0728 45.6286C19.5982 46.8606 19.6902 48.2731 20.1385 49.5469C20.5779 50.7955 21.2218 51.9712 21.776 53.1788L22.1791 53.0819C22.1405 51.9769 22.0661 50.8719 22.0684 49.767C22.0769 45.6344 22.1063 41.5018 22.1356 37.3692C22.199 36.3679 21.9933 35.368 21.5401 34.4744C21.0869 33.5809 20.4029 32.8268 19.5601 32.2914C16.6864 30.3579 14.3077 27.9413 13.5015 24.3972L13.4933 24.3589C13.4366 24.0593 13.4684 23.7495 13.5847 23.4679C13.701 23.1863 13.8966 22.9451 14.1475 22.7741C14.3984 22.6032 14.6936 22.51 14.9966 22.506C15.2995 22.502 15.5971 22.5874 15.8524 22.7517C15.8951 22.7813 15.9361 22.8133 15.9753 22.8476C18.9175 25.4328 20.3074 28.9279 21.3039 32.6179C21.3983 32.9676 21.4818 33.3223 21.6065 33.6612C21.7293 33.9949 21.8982 34.3114 22.1642 34.8911C22.3149 34.5646 22.4449 34.2288 22.5535 33.8857C23.3955 30.0696 24.3666 26.2746 25.0052 22.4239C25.3515 20.3356 25.3201 18.1781 23.4069 16.4927C21.5027 14.8151 19.7527 12.9157 19.3864 10.2058C19.2174 9.41033 19.2154 8.58805 19.3806 7.79173C19.5946 7.09624 20.155 6.20876 20.7553 6.01773C21.1377 5.95484 21.5293 5.97933 21.9011 6.08938C22.2729 6.19943 22.6153 6.39223 22.903 6.65351C24.9789 8.72198 25.5083 11.3641 25.125 14.193C24.8649 16.1125 24.7944 17.9821 25.7102 19.9806C25.921 19.5966 26.0931 19.3281 26.2228 19.0404C27.6464 15.8803 28.4211 12.5241 29.2135 9.167C29.5016 7.8696 30.1195 6.66977 31.0067 5.68502C31.8939 4.70027 33.0201 3.96434 34.2747 3.54934C35.0634 3.33146 35.9041 3.41556 36.6347 3.78539C37.5871 4.2684 37.3709 5.31122 36.9736 6.08975C36.5132 7.12279 35.889 8.07359 35.1254 8.9049C33.0109 10.9435 30.7577 12.8362 28.565 14.7929C28.3468 14.9492 28.1685 15.1553 28.0448 15.3943C26.8413 18.8527 25.6615 22.3195 24.7118 25.9172C26.1265 24.6193 28.0385 24.1834 28.8678 22.1182C30.2781 18.6062 33.2665 16.8085 36.9156 16.202C37.0132 16.1865 37.1123 16.1833 37.2107 16.1925C37.4389 16.2186 37.6579 16.2989 37.8492 16.4269C38.0406 16.5549 38.1989 16.7268 38.3112 16.9285C38.4235 17.1303 38.4867 17.356 38.4953 17.5871C38.5038 17.8182 38.4577 18.048 38.3606 18.2576C38.3027 18.3893 38.221 18.509 38.1197 18.6107C35.5589 21.1259 32.3865 22.9194 28.9203 23.8117C27.8349 24.0727 26.8309 24.6008 25.9983 25.3487C25.1657 26.0965 24.5304 27.0408 24.1497 28.0967C22.883 32.1896 22.3018 36.4662 22.4298 40.7512C22.431 40.868 22.514 40.9841 22.9217 41.2501C23.777 39.6066 24.5379 37.9151 25.2009 36.1838C25.7121 34.3884 26.6444 32.7429 27.9194 31.386C28.2441 31.0699 28.6069 30.7961 28.9994 30.571C30.2019 29.8597 32.0653 29.8817 32.702 30.5847C33.3354 31.284 33.0884 32.8533 32.0611 34.0683C30.2474 36.2134 28.1829 37.9998 25.3121 38.5559C25.0483 38.6064 24.8115 38.7514 24.6455 38.964C23.4859 40.743 22.382 42.4493 22.5108 44.8194C22.7818 49.8055 22.7656 54.8073 22.8699 59.8026C22.88 60.282 22.909 60.761 22.9404 61.5059C24.0235 60.2558 24.7547 58.7368 25.0578 57.1063C25.4172 55.6095 25.8983 54.145 26.4962 52.7276C26.742 52.1899 27.0825 51.7014 27.5012 51.2858C28.4592 50.2282 29.964 49.7044 30.6173 50.3007C31.6113 51.2078 31.2518 52.3348 30.8874 53.4497C30.5393 54.5167 29.9761 55.5 29.2332 56.3379C28.4903 57.1758 27.5836 57.8504 26.5698 58.3194C25.5784 58.8224 24.7168 59.5505 24.0528 60.4462C23.3889 61.342 22.9409 62.3808 22.7441 63.4807C21.3399 69.6267 18.0812 74.6304 13.8993 79.0499C10.3252 82.8268 6.3898 86.2563 2.63751 89.864C1.89672 90.5763 1.27088 90.2652 0.76949 89.7047C0.0704178 88.9232 0.897245 88.6378 1.37746 88.2813C6.80955 84.2494 12.0302 79.9853 15.9187 74.3352C16.5711 73.3836 17.0474 72.3213 17.325 71.1994C17.704 69.6261 16.9895 68.5259 15.7199 67.3945C13.3543 65.2863 12.575 62.3773 12.9873 59.226C13.0236 58.9635 13.1354 58.7175 13.3089 58.5181C13.4824 58.3188 13.7099 58.1749 13.9636 58.1042C14.2174 58.0334 14.4862 58.0389 14.7368 58.1199C14.9875 58.201 15.209 58.354 15.3744 58.5603C16.1181 59.3516 16.6608 60.3122 16.956 61.3602C17.2971 63.3588 17.5273 65.3749 17.6456 67.3993C17.75 68.5241 17.7857 69.6555 17.8501 70.7842L18.2487 70.8953Z" fill="#A876F5"/>
</g>
<defs>
<clipPath id="clip0_622_62256">
<rect width="90.3139" height="100.004" fill="white" transform="translate(25.1865 0.998047)"/>
</clipPath>
<clipPath id="clip1_622_62256">
<rect width="37.995" height="86.8547" fill="white" transform="translate(0.5 3.42236)"/>
</clipPath>
</defs>
</svg>