<svg width="108" height="100" viewBox="0 0 108 100" fill="none" xmlns="http://www.w3.org/2000/svg">
<path d="M4.84367 45.6335C7.47458 37.5767 13.4026 29.1737 20.5135 25.5599C21.6333 24.9908 23.8671 23.878 27.969 21.8441C30.437 20.6204 33.7105 18.8612 38.3583 16.0002C51.163 8.11802 50.6646 6.48219 57.2867 3.83855C61.9106 1.99259 74.9974 -3.2319 85.8688 2.88841C95.048 8.05616 97.6896 18.5207 99.3079 24.9314C103.825 42.8257 97.1831 58.0235 95.2729 62.2223C93.6669 65.7525 82.7182 88.8422 58.0439 95.241C53.8918 96.3178 43.2952 98.914 30.9763 94.6709C27.5034 93.4747 17.9524 90.0365 10.8535 80.3132C9.74662 78.7971 -1.00446 63.5425 4.84367 45.6335Z" fill="white"/>
<path d="M71.4867 88.6871C71.4131 88.6872 71.3402 88.6734 71.2718 88.6465C70.8998 88.5008 34.1781 74.1487 27.3026 74.1487C27.2698 74.1487 27.2379 74.1491 27.2063 74.1498C27.1198 74.1492 27.0343 74.1307 26.9553 74.0954C26.8762 74.0602 26.8053 74.0089 26.7469 73.9449C26.69 73.879 26.6482 73.8012 26.6247 73.7172C26.6011 73.6332 26.5963 73.5451 26.6105 73.459C26.6313 73.3329 28.764 60.75 35.2845 50.5045C41.6961 40.4291 51.8431 7.11465 51.9451 6.77907C51.99 6.63067 52.0911 6.50583 52.2265 6.43131C52.362 6.3568 52.5212 6.33855 52.6699 6.38047C57.3454 7.69069 98.4179 19.3176 100.74 23.9789C100.777 24.0544 100.798 24.1372 100.802 24.2216C100.805 24.306 100.79 24.3901 100.759 24.4683C100.636 24.7707 88.4904 54.7116 87.5076 57.1078C87.3794 57.4201 87.1383 58.0828 86.8048 58.9998C84.5042 65.3247 78.3919 82.1256 71.901 88.5174C71.7903 88.6261 71.6416 88.687 71.4867 88.6871ZM27.901 72.9893C35.8845 73.6507 67.3719 85.8513 71.3403 87.3989C77.5493 80.9804 83.6647 64.1696 85.6938 58.5923C86.0319 57.6622 86.2764 56.9902 86.4139 56.6554C87.3443 54.3868 98.3 27.3795 99.5482 24.3033C96.9738 21.007 70.683 12.6814 52.9071 7.68025C51.5084 12.2407 42.3981 41.5321 36.2812 51.1439C30.7442 59.8446 28.4317 70.2853 27.901 72.9893Z" fill="black"/>
<path d="M57.3395 4.57666L55.6514 7.84785C65.9668 10.8235 98.3049 20.4145 100.212 24.2443C100.212 24.2443 87.9562 54.4584 86.9624 56.8812C85.9876 59.258 79.1382 80.0115 71.9091 87.6615L71.9092 87.6625L73.7598 88.093C80.0063 81.8221 92.3571 48.6151 92.9249 46.7101C93.4928 44.8051 104.85 23.1041 104.85 23.1041C100.686 18.2585 57.3395 4.57666 57.3395 4.57666Z" fill="black"/>
<path d="M76.316 87.9742C76.2623 87.9743 76.209 87.967 76.1573 87.9526L74.593 87.5149C74.4996 87.4886 74.414 87.4397 74.3438 87.3725C74.2736 87.3052 74.2209 87.2216 74.1903 87.1291C74.1598 87.0366 74.1522 86.938 74.1686 86.8419C74.1849 86.7459 74.2245 86.6553 74.2838 86.5782C80.8086 78.1149 91.9433 47.9336 92.3585 46.5402C92.811 45.0224 99.3723 32.3331 103.243 24.9045C103.304 24.7865 103.403 24.6926 103.524 24.6379C103.645 24.5832 103.78 24.5709 103.909 24.6029C103.968 24.6177 104.024 24.6414 104.076 24.6733C105.017 25.2331 107.214 26.6492 107.485 27.8152C107.511 27.9249 107.505 28.0395 107.468 28.1458C107.431 28.2521 107.364 28.3457 107.276 28.4156C107.243 28.4431 103.447 31.6956 95.0222 49.5821C91.8625 56.2893 89.414 62.3247 87.254 67.6498C83.4438 77.0421 80.6911 83.8278 76.7342 87.8002C76.6793 87.8554 76.6141 87.8991 76.5423 87.929C76.4706 87.9588 76.3937 87.9742 76.316 87.9742ZM75.7376 86.6021L76.1377 86.7143C79.8015 82.8721 82.4803 76.2681 86.1584 67.2017C88.3242 61.8627 90.7792 55.8111 93.9524 49.0741C101.213 33.6604 105.062 28.9847 106.19 27.8183C105.551 27.1135 104.813 26.5074 103.997 26.0198C97.7118 38.0909 93.7926 45.8726 93.4918 46.8804C93.084 48.249 82.4021 77.1832 75.7376 86.6021Z" fill="black"/>
<path d="M88.3839 27.7839C88.3228 27.7839 88.2622 27.7744 88.204 27.7557L60.0004 18.7292C59.851 18.6813 59.7266 18.5758 59.6547 18.4358C59.5828 18.2959 59.5692 18.133 59.6169 17.983C59.6646 17.833 59.7697 17.7081 59.9091 17.6359C60.0485 17.5637 60.2107 17.5501 60.3601 17.5979L88.5637 26.6245C88.6981 26.6676 88.8127 26.7575 88.8869 26.878C88.9611 26.9984 88.99 27.1415 88.9683 27.2815C88.9466 27.4214 88.8757 27.549 88.7686 27.6411C88.6614 27.7333 88.525 27.7839 88.3839 27.7839Z" fill="black"/>
<path d="M85.2608 33.2004C85.1998 33.2005 85.1391 33.1909 85.081 33.1722L56.8774 24.1457C56.728 24.0978 56.6036 23.9923 56.5317 23.8523C56.4597 23.7124 56.4461 23.5495 56.4938 23.3995C56.5415 23.2495 56.6466 23.1246 56.786 23.0524C56.9254 22.9802 57.0877 22.9666 57.2371 23.0145L85.4407 32.041C85.5751 32.0841 85.6897 32.174 85.7639 32.2945C85.838 32.4149 85.8669 32.558 85.8452 32.698C85.8235 32.8379 85.7527 32.9655 85.6455 33.0576C85.5384 33.1498 85.4019 33.2004 85.2608 33.2004Z" fill="black"/>
<path d="M80.7347 39.2412C80.6736 39.2413 80.613 39.2317 80.5548 39.213L54.6977 30.9377C54.6237 30.914 54.5551 30.8758 54.4958 30.8255C54.4365 30.7752 54.3876 30.7136 54.3519 30.6443C54.3163 30.575 54.2947 30.4994 54.2882 30.4217C54.2817 30.344 54.2905 30.2658 54.3141 30.1915C54.3377 30.1172 54.3757 30.0483 54.4258 29.9888C54.4759 29.9292 54.5373 29.8802 54.6063 29.8444C54.6753 29.8087 54.7506 29.7869 54.828 29.7804C54.9054 29.7739 54.9834 29.7827 55.0574 29.8064L80.9145 38.0818C81.0489 38.1249 81.1635 38.2148 81.2377 38.3353C81.3119 38.4557 81.3408 38.5988 81.3191 38.7388C81.2974 38.8787 81.2266 39.0063 81.1194 39.0984C81.0122 39.1906 80.8758 39.2412 80.7347 39.2412Z" fill="black"/>
<path d="M51.9812 54.0987C51.9203 54.0987 51.8598 54.0894 51.8017 54.0709L46.3676 52.3331C46.2182 52.2852 46.094 52.1797 46.022 52.0398C45.9501 51.8999 45.9364 51.7372 45.9839 51.5872C46.0315 51.4372 46.1364 51.3123 46.2756 51.2399C46.4149 51.1675 46.577 51.1535 46.7265 51.2011L52.1606 52.9389C52.2952 52.9819 52.41 53.0717 52.4843 53.1922C52.5586 53.3127 52.5875 53.456 52.5659 53.596C52.5442 53.736 52.4733 53.8637 52.3661 53.9559C52.2589 54.0481 52.1223 54.0988 51.9812 54.0987Z" fill="black"/>
<path d="M52.9662 63.1524C52.9051 63.1524 52.8444 63.1429 52.7863 63.1242L43.8462 60.2617C43.7721 60.2381 43.7034 60.2 43.6439 60.1497C43.5845 60.0994 43.5354 60.0379 43.4997 59.9685C43.464 59.8992 43.4422 59.8235 43.4357 59.7457C43.4292 59.6679 43.4379 59.5896 43.4616 59.5152C43.4852 59.4409 43.5233 59.3719 43.5736 59.3123C43.6238 59.2527 43.6851 59.2036 43.7543 59.1679C43.8234 59.1322 43.8989 59.1105 43.9764 59.1041C44.0539 59.0976 44.1319 59.1066 44.2059 59.1305L53.146 61.9929C53.2804 62.036 53.395 62.1259 53.4692 62.2464C53.5434 62.3669 53.5722 62.51 53.5505 62.6499C53.5288 62.7899 53.458 62.9174 53.3509 63.0096C53.2437 63.1017 53.1072 63.1524 52.9662 63.1524Z" fill="black"/>
<path d="M69.2374 77.9012C69.1763 77.9012 69.1156 77.8917 69.0575 77.873L40.8539 68.8468C40.7799 68.8231 40.7113 68.785 40.652 68.7347C40.5927 68.6843 40.5438 68.6228 40.5082 68.5535C40.4726 68.4842 40.451 68.4086 40.4445 68.3309C40.438 68.2532 40.4467 68.175 40.4704 68.1007C40.494 68.0264 40.532 67.9575 40.5821 67.898C40.6323 67.8384 40.6935 67.7894 40.7626 67.7536C40.8316 67.7179 40.907 67.6961 40.9844 67.6896C41.0618 67.6831 41.1396 67.6919 41.2136 67.7156L69.4172 76.7418C69.5516 76.7849 69.6662 76.8748 69.7404 76.9952C69.8146 77.1157 69.8435 77.2588 69.8217 77.3988C69.8 77.5387 69.7292 77.6663 69.6221 77.7584C69.5149 77.8505 69.3784 77.9012 69.2374 77.9012Z" fill="black"/>
<path d="M37.1341 67.9263C38.2754 67.9263 38.2773 66.1455 37.1341 66.1455C35.9927 66.1455 35.9908 67.9263 37.1341 67.9263Z" fill="black"/>
<path d="M40.469 59.1606C41.6104 59.1606 41.6123 57.3799 40.469 57.3799C39.3277 57.3799 39.3258 59.1606 40.469 59.1606Z" fill="black"/>
<path d="M42.5647 51.2871C43.7061 51.2871 43.708 49.5063 42.5647 49.5063C41.4234 49.5063 41.4215 51.2871 42.5647 51.2871Z" fill="black"/>
<path d="M51.0823 29.9087C52.2237 29.9087 52.2256 28.1279 51.0823 28.1279C49.941 28.1279 49.9391 29.9087 51.0823 29.9087Z" fill="black"/>
<path d="M53.2825 23.2461C54.4239 23.2461 54.4258 21.4653 53.2825 21.4653C52.1412 21.4653 52.1393 23.2461 53.2825 23.2461Z" fill="black"/>
<path d="M56.4056 17.7593C57.5469 17.7593 57.5488 15.9785 56.4056 15.9785C55.2642 15.9785 55.2623 17.7593 56.4056 17.7593Z" fill="black"/>
<path d="M69.5875 74.7363C59.2113 74.7363 50.7695 66.4497 50.7695 56.2642C50.7695 46.0786 59.2113 37.792 69.5875 37.792C71.9392 37.7897 74.2711 38.2232 76.4661 39.0705L75.7591 40.9185C73.7897 40.1581 71.6975 39.7692 69.5875 39.7714C60.2985 39.7714 52.7412 47.17 52.7412 56.2642C52.7412 65.3583 60.2985 72.7569 69.5875 72.7569C78.8765 72.7569 86.4333 65.3583 86.4333 56.2642C86.4225 54.0767 85.9758 51.9136 85.1196 49.9022C84.2634 47.8907 83.015 46.0716 81.4478 44.5518L82.8187 43.1291C84.5755 44.8338 85.9748 46.874 86.9342 49.1298C87.8936 51.3856 88.3937 53.8114 88.405 56.2642C88.405 66.4498 79.9636 74.7363 69.5875 74.7363Z" fill="#FE897B"/>
<path d="M66.3043 65.7686L62.0205 49.8227L65.4477 48.8951L67.6363 57.0444L81.7534 34.8193L84.7457 36.735L66.3043 65.7686Z" fill="#FE897B"/>
<path d="M60.4454 7.11517C57.7314 4.26858 54.2375 2.29393 50.4056 1.44082C46.5736 0.587706 42.5758 0.894467 38.9175 2.32238C35.2593 3.75029 32.1049 6.2352 29.8534 9.46284C27.6019 12.6905 26.3543 16.5159 26.2684 20.4554C26.1825 24.3948 27.2623 28.2714 29.371 31.5948C31.4797 34.9183 34.5226 37.5393 38.1152 39.1265C41.7077 40.7138 45.6884 41.1958 49.5538 40.5119C53.4193 39.8279 56.9959 38.0085 59.8314 35.2838C61.7141 33.4748 63.2235 31.3111 64.2733 28.9165C65.3231 26.5218 65.8928 23.9429 65.9498 21.3272C66.0069 18.7115 65.5501 16.1101 64.6056 13.6716C63.6612 11.2331 62.2475 9.00517 60.4454 7.11517ZM35.0758 31.4934C32.9871 29.3027 31.5923 26.5393 31.0679 23.5528C30.5436 20.5664 30.9132 17.4908 32.1299 14.7152C33.3467 11.9396 35.356 9.58853 37.9038 7.95932C40.4515 6.33012 43.4232 5.49596 46.4432 5.5623C49.4631 5.62865 52.3957 6.59252 54.87 8.33206C57.3443 10.0716 59.2492 12.5087 60.3438 15.3351C61.4385 18.1615 61.6737 21.2503 61.0197 24.2109C60.3657 27.1715 58.8519 29.8709 56.6697 31.9678C55.2208 33.3601 53.513 34.4523 51.6437 35.182C49.7743 35.9117 47.78 36.2646 45.7748 36.2205C43.7696 36.1764 41.7928 35.7363 39.957 34.9252C38.1212 34.1141 36.4626 32.948 35.0758 31.4933V31.4934Z" fill="#A876F5"/>
<path d="M31.7721 34.6665C30.9411 33.7928 30.1721 32.8616 29.4708 31.8799L21.1064 39.9174L26.08 45.1339L34.4445 37.0964C33.4982 36.3501 32.6052 35.5382 31.7721 34.6665Z" fill="black"/>
<path d="M19.2334 37.9541L27.9512 47.0977L13.7717 60.723C12.5639 61.8836 10.9463 62.515 9.27483 62.4783C7.60335 62.4416 6.01492 61.7398 4.85887 60.5273C3.70281 59.3147 3.07384 57.6909 3.11042 56.0128C3.147 54.3348 3.8461 52.74 5.05388 51.5795L19.2334 37.9541Z" fill="#A876F5"/>
<path d="M47.5984 85.4106C46.0732 83.4529 44.0644 82.1434 41.8292 81.1388C41.3853 80.9736 40.9508 80.7837 40.5279 80.57C38.8792 79.5926 37.2244 80.0421 35.5923 80.5578C35.1642 80.7536 34.7859 81.0446 34.4863 81.4088C32.8177 83.0892 30.7353 83.5953 28.4767 83.4975C28.2363 83.4747 28.0039 83.3989 27.7961 83.2754C27.5883 83.1519 27.4101 82.9838 27.2746 82.7832C27.1539 82.551 27.5341 81.8963 27.853 81.6227C29.0282 80.6142 30.523 80.3858 31.9864 80.2116C32.8527 80.1085 33.7512 80.312 34.6292 80.2652C35.4898 80.2194 36.3429 80.0311 37.1994 79.9053L37.2137 79.6333C36.5171 79.4529 35.8139 79.2952 35.1249 79.0891C32.548 78.3184 29.9736 77.539 27.4018 76.7507C26.7889 76.5253 26.1268 76.4698 25.4851 76.59C24.8434 76.7103 24.2459 77.002 23.7553 77.4343C22.0153 78.8882 20.0657 79.9404 17.7047 79.7924L17.6793 79.7905C17.4818 79.7707 17.2945 79.6933 17.1403 79.5679C16.9862 79.4424 16.872 79.2743 16.812 79.0844C16.7519 78.8946 16.7486 78.6912 16.8023 78.4995C16.8561 78.3077 16.9646 78.1359 17.1145 78.0054C17.141 77.9839 17.1686 77.964 17.1972 77.9456C19.3566 76.5693 21.7954 76.3402 24.2828 76.3952C24.5185 76.4005 24.7554 76.4135 24.99 76.3976C25.2211 76.3819 25.4499 76.334 25.861 76.2737C25.6853 76.1182 25.4998 75.974 25.3059 75.8421C23.0813 74.6044 20.8937 73.2893 18.6097 72.1735C17.371 71.5684 16.0191 71.1886 14.6122 72.0828C13.2119 72.9728 11.7017 73.7244 9.94292 73.4535C9.41518 73.4128 8.90182 73.2618 8.43563 73.0102C8.04144 72.7464 7.59171 72.2287 7.58398 71.8149C7.61576 71.5621 7.70382 71.3197 7.84152 71.1057C7.97923 70.8916 8.16305 70.7114 8.37951 70.5784C10.0556 69.6526 11.8025 69.808 13.4963 70.5736C14.6457 71.0932 15.7991 71.4838 17.2161 71.2765C17.0157 71.0724 16.8802 70.9142 16.7247 70.7792C15.0174 69.2963 13.0672 68.1862 11.1197 67.0649C10.3637 66.6429 9.72983 66.0311 9.28016 65.2893C8.83049 64.5475 8.58038 63.7012 8.55444 62.8332C8.56494 62.2956 8.77355 61.781 9.13998 61.3888C9.6182 60.8778 10.2287 61.2072 10.6407 61.602C11.1998 62.0836 11.6771 62.6532 12.0539 63.2887C12.9332 64.9995 13.6958 66.7707 14.5095 68.5157C14.5665 68.6822 14.662 68.8328 14.7882 68.9551C16.7225 70.3544 18.6664 71.7404 20.7348 73.0055C20.1877 71.8731 20.2708 70.5867 19.1362 69.6814C17.2068 68.1417 16.6401 65.9245 16.9393 63.5113C16.9478 63.4469 16.9642 63.3838 16.9882 63.3234C17.0469 63.1843 17.1376 63.0612 17.253 62.9643C17.3684 62.8673 17.5051 62.7993 17.6519 62.7658C17.7986 62.7324 17.9511 62.7344 18.0969 62.7718C18.2427 62.8092 18.3776 62.8808 18.4903 62.9809C18.5617 63.0418 18.6212 63.1154 18.6658 63.1981C19.7596 65.2786 20.2896 67.6111 20.2027 69.9619C20.1639 70.6946 20.3069 71.4255 20.619 72.089C20.931 72.7525 21.4023 73.3279 21.9904 73.7635C24.3089 75.3202 26.8693 76.4787 29.5667 77.1915C29.6398 77.2124 29.7276 77.1817 29.9693 76.9739C29.1027 76.1302 28.1885 75.337 27.2314 74.5984C26.2061 73.9436 25.3526 73.0509 24.7427 71.9957C24.6058 71.7325 24.5023 71.453 24.4347 71.1639C24.2142 70.2739 24.5739 69.103 25.1308 68.8317C25.6848 68.5618 26.6181 69.0083 27.1854 69.881C28.187 71.422 28.9183 73.0544 28.7322 74.9675C28.7147 75.1433 28.7612 75.3194 28.863 75.4634C29.7577 76.524 30.6172 77.5361 32.12 77.8939C35.2813 78.6465 38.3991 79.583 41.5353 80.4423C41.8363 80.5248 42.1406 80.5952 42.6112 80.7133C42.0324 79.7988 41.2203 79.0566 40.2593 78.5635C39.3921 78.0597 38.5677 77.4851 37.7943 76.8455C37.5045 76.591 37.2629 76.2858 37.0813 75.9448C36.5994 75.1449 36.5519 74.0991 37.0453 73.7975C37.7959 73.3388 38.4324 73.7742 39.0604 74.2105C39.6615 74.6276 40.1704 75.1647 40.5552 75.7883C40.9401 76.4119 41.1926 77.1086 41.2969 77.8346C41.4267 78.5529 41.721 79.2311 42.1566 79.8157C42.5922 80.4002 43.1572 80.8751 43.8069 81.2029C47.3809 83.2265 49.8978 86.2079 51.8787 89.6632C53.5716 92.6162 54.9806 95.7328 56.5348 98.7669C56.8416 99.3659 56.5313 99.7029 56.0884 99.9152C55.471 100.211 55.4464 99.6372 55.3132 99.2684C53.8063 95.0965 52.1152 91.015 49.3119 87.5168C48.8394 86.9292 48.2651 86.432 47.6166 86.0492C46.7053 85.5189 45.8862 85.7657 44.9445 86.3566C43.1898 87.4578 41.23 87.4105 39.3403 86.5669C39.1833 86.4954 39.0506 86.3793 38.9584 86.233C38.8663 86.0867 38.8187 85.9166 38.8217 85.7435C38.8247 85.5704 38.878 85.402 38.9752 85.2589C39.0723 85.1159 39.2089 85.0045 39.3682 84.9385C40.0001 84.6161 40.7002 84.4518 41.409 84.4597C42.7193 84.6148 44.02 84.843 45.305 85.1434C46.0263 85.2859 46.7388 85.4729 47.455 85.6413L47.5984 85.4106Z" fill="#E57BD8"/>
<path d="M76.5705 7.56259C77.3806 7.56259 78.0374 6.90324 78.0374 6.08989C78.0374 5.27654 77.3806 4.61719 76.5705 4.61719C75.7603 4.61719 75.1035 5.27654 75.1035 6.08989C75.1035 6.90324 75.7603 7.56259 76.5705 7.56259Z" fill="#E57BD8"/>
<path d="M80.7336 7.56259C81.5437 7.56259 82.2005 6.90324 82.2005 6.08989C82.2005 5.27654 81.5437 4.61719 80.7336 4.61719C79.9234 4.61719 79.2666 5.27654 79.2666 6.08989C79.2666 6.90324 79.9234 7.56259 80.7336 7.56259Z" fill="#E57BD8"/>
<path d="M84.8976 7.56259C85.7078 7.56259 86.3646 6.90324 86.3646 6.08989C86.3646 5.27654 85.7078 4.61719 84.8976 4.61719C84.0874 4.61719 83.4307 5.27654 83.4307 6.08989C83.4307 6.90324 84.0874 7.56259 84.8976 7.56259Z" fill="#E57BD8"/>
</svg>