<svg width="116" height="100" viewBox="0 0 116 100" fill="none" xmlns="http://www.w3.org/2000/svg">
<path d="M94.5046 40.9704C104.966 40.9704 113.447 32.4583 113.447 21.9581C113.447 11.4579 104.966 2.9458 94.5046 2.9458C84.0432 2.9458 75.5625 11.4579 75.5625 21.9581C75.5625 32.4583 84.0432 40.9704 94.5046 40.9704Z" fill="#FFF2ED"/>
<path d="M13.0431 77.2258C12.7135 77.2256 12.3959 77.1021 12.1523 76.8793C11.9087 76.6565 11.7566 76.3504 11.7259 76.021C11.0007 68.2404 10.4439 60.4126 10.0702 52.7555C9.60342 43.2824 9.38941 33.6916 9.43335 24.2492C9.43477 23.9225 9.55615 23.6078 9.77426 23.3653C9.99238 23.1228 10.2919 22.9696 10.6156 22.9349C23.954 21.5035 37.3582 20.7773 50.7726 20.7594C59.3572 20.7522 68.0188 21.0349 76.5719 21.6077L76.3962 24.258C67.9025 23.6898 59.2905 23.4304 50.7757 23.4159C37.8496 23.4332 24.9329 24.1126 12.0759 25.4513C12.0547 34.4611 12.2687 43.5969 12.7138 52.6253C13.0658 59.8419 13.5817 67.2116 14.2485 74.5491L89.3235 73.3142C89.9945 65.4906 90.4276 57.5616 90.6122 49.7265C90.6897 46.3447 90.7233 42.926 90.7125 39.5665L93.3591 39.5582C93.37 42.9405 93.3364 46.3825 93.2578 49.7882C93.0629 58.0794 92.591 66.4743 91.8559 74.741C91.8267 75.0677 91.6781 75.3721 91.4387 75.5954C91.1994 75.8188 90.8862 75.9454 90.5595 75.951L13.0653 77.2258H13.0431Z" fill="black"/>
<path d="M21.6253 37.6172C21.4906 37.617 21.361 37.5653 21.2629 37.4725C21.1649 37.3798 21.1057 37.253 21.0975 37.118C21.0866 36.9405 20.8654 32.7686 23.3169 31.6742C23.4453 31.617 23.591 31.6132 23.7221 31.6638C23.8532 31.7144 23.9588 31.8152 24.0159 31.9441C24.0729 32.0729 24.0766 32.2192 24.0262 32.3507C23.9758 32.4823 23.8754 32.5884 23.747 32.6456C22.2628 33.3077 22.0943 36.0522 22.1542 37.0537C22.1584 37.1233 22.149 37.1932 22.1263 37.2591C22.1036 37.3251 22.0682 37.3859 22.0221 37.4382C21.976 37.4904 21.9202 37.5329 21.8577 37.5635C21.7952 37.594 21.7273 37.6119 21.6579 37.6161C21.6471 37.6167 21.6362 37.6172 21.6253 37.6172Z" fill="black"/>
<path d="M24.1002 40.6481C23.9778 40.648 23.8593 40.6054 23.7648 40.5275C23.6703 40.4495 23.6055 40.341 23.5817 40.2206C23.5238 39.9305 22.2206 33.0854 26.6729 30.8253C26.735 30.7936 26.8028 30.7746 26.8722 30.7692C26.9416 30.7638 27.0114 30.7722 27.0775 30.7939C27.1437 30.8157 27.205 30.8502 27.2578 30.8958C27.3107 30.9413 27.3541 30.9969 27.3855 31.0593C27.4169 31.1217 27.4357 31.1896 27.4409 31.2593C27.4461 31.329 27.4376 31.3991 27.4157 31.4654C27.3939 31.5318 27.3593 31.5932 27.3138 31.6461C27.2683 31.699 27.2128 31.7424 27.1506 31.7738C23.4163 33.6691 24.6073 39.9502 24.6197 40.013C24.6332 40.0815 24.6333 40.152 24.6197 40.2204C24.6061 40.2889 24.5792 40.3539 24.5406 40.4119C24.5019 40.4699 24.4523 40.5197 24.3944 40.5585C24.3366 40.5972 24.2717 40.6241 24.2036 40.6377C24.1695 40.6445 24.1349 40.648 24.1002 40.6481Z" fill="black"/>
<path d="M115.909 45.5236C115.87 45.6115 115.814 45.6908 115.745 45.7574C114.024 47.4571 111.885 48.6704 109.547 49.2745C108.815 49.4514 108.139 49.8083 107.579 50.3128C107.019 50.8174 106.593 51.4538 106.339 52.1648C105.49 54.9205 105.104 57.7986 105.196 60.6814C105.201 60.7559 105.254 60.8355 105.529 61.0162C106.104 59.9078 106.614 58.7672 107.059 57.6C107.402 56.3922 108.028 55.2845 108.885 54.3697C109.104 54.1565 109.35 53.9726 109.616 53.8224C110.425 53.339 111.68 53.3496 112.114 53.8224C112.537 54.2952 112.373 55.3472 111.685 56.1654C110.462 57.6158 109.076 58.8165 107.138 59.1991C106.96 59.2329 106.8 59.3312 106.688 59.4754C105.91 60.6708 105.169 61.8238 105.259 63.4177C105.45 66.7701 105.45 70.1332 105.524 73.4963C105.534 73.8152 105.556 74.1392 105.577 74.6386C106.306 73.7981 106.796 72.7758 106.995 71.6794C107.238 70.6724 107.56 69.6865 107.959 68.7308C108.124 68.3681 108.353 68.0386 108.636 67.7584C109.282 67.0465 110.293 66.6905 110.738 67.089C111.41 67.6999 111.166 68.4598 110.923 69.2089C110.691 69.9272 110.313 70.5897 109.814 71.1547C109.315 71.7197 108.705 72.1751 108.022 72.4923C107.354 72.8317 106.774 73.3223 106.328 73.9253C105.881 74.5283 105.581 75.2272 105.45 75.9668C104.507 80.1056 102.321 83.4794 99.5053 86.4599C98.706 87.3047 97.8855 88.123 97.0439 88.9252L96.668 88.1018C98.233 86.6506 99.6385 85.035 100.86 83.2829C101.298 82.6425 101.618 81.928 101.802 81.1737C102.057 80.1111 101.575 79.3726 100.712 78.6128C99.1136 77.1996 98.5842 75.2443 98.8595 73.1243C98.8831 72.9474 98.9577 72.7813 99.0744 72.6466C99.1911 72.5119 99.3446 72.4145 99.5159 72.3664C99.6871 72.3184 99.8686 72.3218 100.038 72.3763C100.207 72.4308 100.357 72.5339 100.469 72.6729C100.971 73.2039 101.338 73.8492 101.538 74.5536C101.771 75.8968 101.93 77.2519 102.014 78.6127C102.088 79.3725 102.11 80.1323 102.157 80.892C102.295 80.9292 102.29 80.9292 102.427 80.9664C103.823 78.8849 104.682 76.4876 104.926 73.9904C104.959 73.5022 105.019 73.0162 105.106 72.5347C105.577 70.6113 104.65 69.1078 103.661 67.6414C103.344 67.2744 102.947 66.9854 102.501 66.7966C100.357 65.6384 99.2459 63.7205 98.6742 61.4571C98.6274 61.2119 98.6343 60.9593 98.6946 60.7171C98.7549 60.4749 98.8671 60.2488 99.0233 60.0545C99.2193 59.8686 99.9709 60.0492 100.336 60.2883C101.675 61.1543 102.337 62.5675 102.941 63.9649C103.295 64.7936 103.364 65.7447 103.666 66.6001C103.967 67.4396 104.402 68.2311 104.777 69.0387C104.926 69.0068 104.899 69.0122 105.047 68.975C105.021 68.2311 104.968 67.4874 104.968 66.7436C104.968 63.9649 104.977 61.1862 104.994 58.4076C105.035 57.7333 104.894 57.0604 104.587 56.4594C104.28 55.8584 103.817 55.3514 103.248 54.9912C101.305 53.6949 99.6956 52.0744 99.1452 49.6942C99.146 49.685 99.1442 49.6758 99.1399 49.6676C99.1014 49.4663 99.1225 49.2581 99.2005 49.0686C99.2785 48.8792 99.41 48.7169 99.5789 48.6017C99.7478 48.4864 99.9466 48.4232 100.151 48.4201C100.355 48.4169 100.556 48.4738 100.728 48.5838C100.759 48.6002 100.788 48.6218 100.813 48.6476C102.803 50.3796 103.745 52.7279 104.423 55.2092C104.491 55.4429 104.545 55.682 104.629 55.9104C104.714 56.1335 104.83 56.3461 105.01 56.7392C105.111 56.5182 105.197 56.291 105.27 56.0592C105.831 53.4931 106.482 50.9375 106.905 48.3447C107.133 46.9421 107.112 45.4917 105.815 44.36C104.529 43.2337 103.348 41.9586 103.094 40.1362C102.979 39.6007 102.977 39.0467 103.089 38.5104C103.154 38.2591 103.269 38.0237 103.428 37.8183C103.586 37.6128 103.784 37.4416 104.01 37.315C104.268 37.2733 104.532 37.2899 104.783 37.3634C105.034 37.4369 105.265 37.5655 105.46 37.7401C106.863 39.1268 107.228 40.9066 106.974 42.8086C106.715 44.1178 106.855 45.475 107.377 46.703C107.519 46.4428 107.636 46.2621 107.721 46.0708C108.601 43.9238 109.271 41.696 109.721 39.4189C109.914 38.546 110.33 37.7384 110.928 37.0753C111.525 36.4122 112.284 35.9163 113.13 35.6361C113.66 35.4853 114.227 35.5404 114.718 35.7902C115.364 36.1143 115.221 36.8156 114.951 37.3363C114.645 38.0328 114.227 38.6737 113.712 39.233C112.289 40.6091 110.769 41.8895 109.293 43.2071C109.146 43.312 109.026 43.4504 108.943 43.6109C108.139 45.9432 107.35 48.2757 106.715 50.6983C107.667 49.8217 108.954 49.5242 109.509 48.1322C110.457 45.768 112.469 44.5566 114.93 44.1422C114.996 44.1297 115.064 44.1279 115.131 44.1369C115.285 44.1542 115.433 44.208 115.562 44.2938C115.691 44.3796 115.798 44.4949 115.874 44.6303C115.95 44.7657 115.993 44.9174 115.999 45.0728C116.005 45.2281 115.974 45.3826 115.909 45.5236Z" fill="#A876F5"/>
<path d="M100.192 96.385H0.529152C0.434568 96.3849 0.341799 96.3594 0.26035 96.3112C0.1789 96.2629 0.111731 96.1936 0.065985 96.1105C0.0202393 96.0274 -0.00242809 95.9337 0.000205985 95.8388C0.00284006 95.7439 0.030692 95.6513 0.0809759 95.5709L12.5948 75.6151C12.6417 75.5403 12.7065 75.4785 12.7832 75.4351C12.8599 75.3917 12.9461 75.3681 13.0341 75.3666L90.5283 74.0918C90.6319 74.0873 90.7344 74.1147 90.8221 74.1703C90.9097 74.2258 90.9784 74.3068 91.0189 74.4026L100.674 95.6333C100.711 95.7142 100.727 95.8031 100.72 95.8918C100.714 95.9805 100.685 96.0662 100.637 96.141C100.59 96.2158 100.524 96.2774 100.446 96.32C100.368 96.3626 100.281 96.3849 100.192 96.385ZM1.48754 95.3224H99.3688L90.1996 75.1601L13.3381 76.4245L1.48754 95.3224Z" fill="black"/>
<path d="M37.2427 85.7265L34.8759 90.7445C34.7375 91.0381 34.6752 91.3619 34.695 91.6861C34.7147 92.0103 34.8158 92.3243 34.9889 92.5987C35.1619 92.8732 35.4014 93.0992 35.6849 93.2559C35.9684 93.4125 36.2866 93.4945 36.6102 93.4945H64.112C64.4176 93.4945 64.7187 93.4214 64.9903 93.281C65.2619 93.1407 65.4962 92.9373 65.6737 92.6877C65.8512 92.4382 65.9668 92.1496 66.0108 91.8462C66.0549 91.5427 66.0262 91.2331 65.927 90.9431L64.0366 85.4168C63.9044 85.0304 63.6533 84.6963 63.3196 84.4626C62.9858 84.2289 62.5867 84.1078 62.1799 84.1167L38.9352 84.6251C38.579 84.6329 38.2321 84.7401 37.9332 84.9346C37.6342 85.1292 37.3951 85.4033 37.2427 85.7265Z" fill="black"/>
<path d="M0.529297 95.854L2.7525 99.9981L98.5408 98.978L100.192 95.854H0.529297Z" fill="black"/>
<path d="M87.3298 81.5066C87.3189 81.5066 87.3075 81.5066 87.2962 81.5061C84.2995 81.4127 15.7053 81.5061 15.0131 81.5066H15.0116C14.7308 81.5068 14.4615 81.3951 14.2628 81.1959C14.0641 80.9968 13.9524 80.7266 13.9521 80.4448C13.9519 80.163 14.0633 79.8926 14.2617 79.6932C14.4601 79.4938 14.7293 79.3816 15.01 79.3814C17.8392 79.3772 84.33 79.2875 87.3623 79.3819C87.64 79.3907 87.9031 79.5087 88.0948 79.7105C88.2866 79.9122 88.3917 80.1815 88.3874 80.4603C88.3831 80.7391 88.2699 81.0051 88.0721 81.2009C87.8742 81.3966 87.6076 81.5064 87.3298 81.5066Z" fill="black"/>
<path d="M91.6811 40.3701C88.5058 40.37 85.4019 39.425 82.7618 37.6543C80.1217 35.8836 78.064 33.3669 76.8489 30.4224C75.6338 27.4779 75.316 24.2379 75.9355 21.1121C76.555 17.9863 78.0841 15.1151 80.3294 12.8616C82.5747 10.608 85.4353 9.07337 88.5496 8.45166C91.6638 7.82995 94.8919 8.14917 97.8254 9.36885C100.759 10.5885 103.266 12.6538 105.03 15.3038C106.794 17.9537 107.736 21.0693 107.736 24.2563C107.731 28.5285 106.038 32.6243 103.028 35.6452C100.018 38.6661 95.9375 40.3653 91.6811 40.3701ZM91.6811 9.73593C88.8199 9.73598 86.023 10.5877 83.6441 12.1832C81.2651 13.7787 79.411 16.0464 78.3161 18.6996C77.2212 21.3528 76.9347 24.2723 77.4929 27.0889C78.0511 29.9055 79.4289 32.4927 81.452 34.5233C83.4752 36.554 86.0529 37.9369 88.8591 38.4972C91.6653 39.0574 94.574 38.77 97.2174 37.671C99.8608 36.5721 102.12 34.711 103.71 32.3232C105.299 29.9354 106.148 27.1281 106.148 24.2563C106.144 20.4066 104.618 16.7157 101.906 13.9936C99.1938 11.2714 95.5166 9.7402 91.6811 9.73593Z" fill="black"/>
<path d="M20.1572 46.2419L31.4812 46.3663L33.5197 18.9981L41.0527 18.3L27.7346 0L13.8301 18.4174L21.7526 19.1538L20.1572 46.2419Z" fill="#FE897B"/>
<path d="M30.9522 46.1335L17.7676 48.5121L21.8133 18.7388L22.8629 18.8822L19.0136 47.2078L30.7643 45.0879L30.9522 46.1335Z" fill="#FE897B"/>
<path d="M70.5459 18.9834C70.4325 18.9833 70.3204 18.9589 70.2172 18.9118C70.114 18.8647 70.0221 18.7961 69.9475 18.7104C69.8729 18.6247 69.8174 18.524 69.7847 18.415C69.752 18.3061 69.743 18.1913 69.7581 18.0785C69.7772 17.9411 71.8139 4.2887 87.0508 0.416045C87.2546 0.365265 87.4701 0.397643 87.6502 0.505935C87.8303 0.614227 87.9604 0.789627 88.0119 0.993908C88.0635 1.19819 88.0323 1.41463 87.9252 1.5959C87.8182 1.77717 87.6439 1.9085 87.4406 1.96116C73.267 5.5635 71.4035 17.7781 71.3311 18.2965C71.3046 18.4867 71.2107 18.6611 71.0664 18.7873C70.9221 18.9135 70.7373 18.9831 70.5459 18.9834Z" fill="black"/>
<path d="M64.2206 41.6672L47.6175 65.1553L38.7549 60.4066L57.0026 37.4912L64.2206 41.6672Z" fill="#A876F5"/>
<path d="M45.5271 65.2846C45.3969 65.2846 45.2687 65.2523 45.1539 65.1907L36.2911 60.4428C36.1883 60.3877 36.0988 60.3105 36.0291 60.2168C35.9593 60.1231 35.911 60.015 35.8874 59.9004C35.8639 59.7859 35.8658 59.6675 35.893 59.5537C35.9201 59.44 35.9719 59.3336 36.0446 59.2422L54.2926 36.3264C54.4113 36.1777 54.579 36.0767 54.7655 36.0413C54.952 36.0059 55.1449 36.0385 55.3094 36.1334L62.5273 40.3095C62.6231 40.3649 62.7063 40.4398 62.7717 40.5294C62.837 40.619 62.8831 40.7212 62.9067 40.8297C62.9304 40.9381 62.9311 41.0504 62.909 41.1591C62.887 41.2679 62.8425 41.3708 62.7785 41.4614L46.1753 64.9489C46.1018 65.0528 46.0046 65.1375 45.8918 65.1959C45.779 65.2543 45.654 65.2847 45.5271 65.2846ZM37.8817 59.4881L45.2847 63.4541L60.9786 41.2533L55.1073 37.8564L37.8817 59.4881Z" fill="black"/>
<path d="M44.3352 42.9837C46.6448 42.9837 48.5171 41.1045 48.5171 38.7863C48.5171 36.4681 46.6448 34.5889 44.3352 34.5889C42.0256 34.5889 40.1533 36.4681 40.1533 38.7863C40.1533 41.1045 42.0256 42.9837 44.3352 42.9837Z" fill="#E57BD8"/>
<path d="M42.2436 43.1138C41.2594 43.1137 40.2973 42.8208 39.479 42.2719C38.6607 41.7231 38.0229 40.943 37.6463 40.0303C37.2697 39.1176 37.1712 38.1133 37.3632 37.1445C37.5553 36.1756 38.0294 35.2857 38.7254 34.5872C39.4213 33.8887 40.308 33.4131 41.2733 33.2204C42.2386 33.0278 43.239 33.1267 44.1483 33.5048C45.0576 33.8829 45.8348 34.5231 46.3816 35.3445C46.9283 36.1659 47.2201 37.1315 47.22 38.1194C47.2186 39.4436 46.6938 40.7133 45.7609 41.6496C44.8279 42.5859 43.5629 43.1124 42.2436 43.1138ZM42.2436 34.7184C41.5735 34.7184 40.9184 34.918 40.3613 35.2917C39.8042 35.6654 39.3699 36.1965 39.1134 36.8179C38.857 37.4393 38.79 38.1231 38.9208 38.7827C39.0515 39.4424 39.3742 40.0482 39.848 40.5238C40.3218 40.9994 40.9256 41.3233 41.5828 41.4545C42.24 41.5857 42.9212 41.5185 43.5403 41.2611C44.1594 41.0037 44.6886 40.5678 45.0609 40.0086C45.4333 39.4494 45.632 38.792 45.632 38.1194C45.6311 37.2177 45.2737 36.3532 44.6385 35.7156C44.0032 35.078 43.1419 34.7193 42.2436 34.7184Z" fill="black"/>
<path d="M61.4934 65.7264C63.803 65.7264 65.6753 63.8471 65.6753 61.529C65.6753 59.2108 63.803 57.3315 61.4934 57.3315C59.1838 57.3315 57.3115 59.2108 57.3115 61.529C57.3115 63.8471 59.1838 65.7264 61.4934 65.7264Z" fill="#E57BD8"/>
<path d="M59.4052 65.8565C58.4209 65.8565 57.4588 65.5636 56.6404 65.0148C55.822 64.466 55.1842 63.6861 54.8075 62.7734C54.4308 61.8607 54.3323 60.8563 54.5243 59.8875C54.7163 58.9186 55.1902 58.0286 55.8862 57.3301C56.5821 56.6315 57.4688 56.1559 58.4341 55.9632C59.3994 55.7705 60.4001 55.8693 61.3094 56.2474C62.2187 56.6254 62.9958 57.2657 63.5425 58.0871C64.0893 58.9085 64.3812 59.8742 64.3811 60.8621C64.3795 62.1862 63.8548 63.4556 62.922 64.3919C61.9891 65.3282 60.7244 65.8549 59.4052 65.8565ZM59.4052 57.4611C58.735 57.461 58.08 57.6604 57.5228 58.034C56.9656 58.4076 56.5311 58.9388 56.2747 59.5602C56.0182 60.1816 55.951 60.8654 56.0817 61.5251C56.2124 62.1847 56.5351 62.7908 57.009 63.2664C57.4828 63.7421 58.0864 64.066 58.7436 64.1972C59.4009 64.3285 60.0821 64.2612 60.7012 64.0038C61.3204 63.7465 61.8496 63.3107 62.2219 62.7515C62.5943 62.1922 62.7931 61.5347 62.7931 60.8621C62.792 59.9605 62.4347 59.0961 61.7996 58.4586C61.1645 57.821 60.3034 57.4623 59.4052 57.4611Z" fill="black"/>
<path d="M89.4022 32.7869L85.5127 18.3112L88.6246 17.4691L90.6118 24.8669L103.43 4.69092L106.147 6.43038L89.4022 32.7869Z" fill="#E57BD8"/>
</svg>