<svg width="108" height="101" viewBox="0 0 108 101" fill="none" xmlns="http://www.w3.org/2000/svg">
<path d="M64.8687 101C64.7807 101 64.6934 100.984 64.6114 100.952C64.1658 100.778 20.1838 83.7148 11.9488 83.7148C11.9096 83.7148 11.8713 83.7152 11.8335 83.7162C11.7293 83.7191 11.6258 83.6988 11.5305 83.6566C11.4353 83.6145 11.3508 83.5516 11.2832 83.4725C11.2151 83.3941 11.1651 83.3017 11.1369 83.2018C11.1087 83.1019 11.1029 82.9971 11.1199 82.8948C11.1448 82.7449 13.6992 67.7846 21.5089 55.6033C29.1881 43.6243 41.3413 4.01546 41.4635 3.61648C41.5177 3.44028 41.6387 3.29213 41.8008 3.2036C41.963 3.11507 42.1535 3.09316 42.3316 3.14258C47.9315 4.70035 97.1247 18.5235 99.9055 24.066C99.9505 24.1558 99.9758 24.2542 99.9797 24.3546C99.9836 24.4549 99.966 24.5549 99.9281 24.6479C99.7809 25.0074 85.2344 60.6052 84.0568 63.4537C83.9037 63.8247 83.6159 64.6107 83.2173 65.6982C80.4614 73.219 73.1411 93.197 65.365 100.798C65.2324 100.928 65.0543 101 64.8687 101ZM12.6655 82.3363C22.2275 83.1227 59.9404 97.6285 64.6935 99.4685C72.1319 91.8355 79.4564 71.8456 81.8862 65.2137C82.2903 64.1106 82.5827 63.3135 82.7469 62.9159C83.8617 60.2187 96.9835 28.1091 98.4784 24.4517C95.395 20.5322 63.9061 10.634 42.6157 4.68793C40.9405 10.11 30.0289 44.9357 22.7026 56.3636C16.0709 66.7081 13.3011 79.1215 12.6655 82.3363Z" fill="black"/>
<path d="M47.9232 0.998047L45.9014 4.88729C58.2563 8.42513 96.9881 19.8282 99.2728 24.3817C99.2728 24.3817 84.5933 60.3044 83.4031 63.1849C82.2355 66.0107 74.0318 90.6854 65.3734 99.7808L65.3737 99.7819L67.5902 100.294C75.0716 92.8381 89.8643 53.357 90.5444 51.0921C91.2246 48.8272 104.827 23.0261 104.827 23.0261C99.8395 17.265 47.9232 0.998047 47.9232 0.998047Z" fill="black"/>
<path d="M70.6499 100.153C70.5857 100.153 70.5218 100.144 70.4599 100.127L68.5868 99.6066C68.4748 99.5753 68.3723 99.5172 68.2882 99.4372C68.2041 99.3572 68.141 99.2578 68.1044 99.1479C68.0678 99.0379 68.0589 98.9207 68.0785 98.8064C68.098 98.6922 68.1454 98.5845 68.2164 98.4929C76.0312 88.4306 89.3675 52.5468 89.8647 50.8902C90.4053 49.0907 98.2644 34.0012 102.901 25.1666C102.946 25.0818 103.007 25.0069 103.082 24.9465C103.157 24.886 103.243 24.8413 103.335 24.8151C103.428 24.7889 103.524 24.7816 103.62 24.7939C103.715 24.8061 103.807 24.8375 103.89 24.8863L103.529 25.4944L103.891 24.8867C104.766 25.4011 107.646 27.1905 107.982 28.6274C108.012 28.7577 108.005 28.8941 107.961 29.0205C107.917 29.1469 107.837 29.2581 107.732 29.3412C107.692 29.3738 103.145 33.2409 93.0547 54.5068C89.2707 62.4804 86.3386 69.6556 83.7519 75.9859C79.1879 87.1541 75.8905 95.2229 71.1508 99.9458C71.0851 100.011 71.007 100.063 70.921 100.099C70.8351 100.134 70.743 100.153 70.6499 100.153ZM69.9576 98.5213L70.4364 98.6546C74.8251 94.0862 78.0339 86.2339 82.4392 75.4536C85.0332 69.1063 87.9732 61.9118 91.7734 53.9028C100.474 35.5663 105.085 30.0118 106.432 28.6287C105.666 27.7929 104.78 27.0733 103.804 26.4927C96.2755 40.8473 91.5815 50.0996 91.2222 51.2947C90.7337 52.9219 77.9398 87.3228 69.9576 98.5213Z" fill="black"/>
<path d="M85.1015 28.5897C85.0284 28.5897 84.9557 28.5784 84.8861 28.5562L51.1062 17.8246C51.0176 17.7964 50.9354 17.7512 50.8644 17.6913C50.7933 17.6315 50.7348 17.5582 50.6922 17.4759C50.6495 17.3935 50.6235 17.3036 50.6158 17.2112C50.608 17.1188 50.6185 17.0258 50.6468 16.9375C50.6751 16.8492 50.7206 16.7673 50.7807 16.6965C50.8407 16.6257 50.9141 16.5674 50.9968 16.5248C51.0795 16.4823 51.1697 16.4565 51.2624 16.4488C51.3551 16.441 51.4484 16.4515 51.537 16.4797L85.3169 27.2112C85.4779 27.2624 85.6152 27.3694 85.704 27.5126C85.7928 27.6559 85.8274 27.826 85.8014 27.9924C85.7754 28.1588 85.6906 28.3104 85.5622 28.42C85.4339 28.5295 85.2705 28.5897 85.1015 28.5897Z" fill="black"/>
<path d="M81.3616 35.0287C81.2885 35.0287 81.2159 35.0174 81.1462 34.9951L47.3664 24.2636C47.1878 24.2064 47.0393 24.0808 46.9535 23.9146C46.8677 23.7484 46.8515 23.555 46.9085 23.3769C46.9656 23.1989 47.0912 23.0507 47.2578 22.9647C47.4244 22.8788 47.6183 22.8622 47.7972 22.9187L81.577 33.6502C81.738 33.7014 81.8753 33.8083 81.9641 33.9515C82.053 34.0947 82.0875 34.265 82.0615 34.4314C82.0355 34.5978 81.9507 34.7494 81.8224 34.859C81.694 34.9685 81.5306 35.0287 81.3616 35.0287Z" fill="black"/>
<path d="M75.9428 42.2111C75.8697 42.2111 75.797 42.1998 75.7274 42.1776L44.7579 32.3387C44.6691 32.3106 44.5867 32.2654 44.5155 32.2056C44.4443 32.1458 44.3856 32.0726 44.3429 31.9901C44.3001 31.9077 44.274 31.8176 44.2662 31.7252C44.2583 31.6327 44.2689 31.5396 44.2973 31.4512C44.3256 31.3628 44.3711 31.2807 44.4312 31.2099C44.4914 31.139 44.5649 31.0807 44.6477 31.0382C44.7305 30.9957 44.8209 30.97 44.9138 30.9624C45.0066 30.9547 45.1 30.9653 45.1887 30.9937L76.1582 40.8326C76.3192 40.8838 76.4564 40.9907 76.5453 41.1339C76.6341 41.2772 76.6687 41.4474 76.6427 41.6138C76.6167 41.7802 76.5319 41.9318 76.4035 42.0414C76.2752 42.1509 76.1118 42.2111 75.9428 42.2111Z" fill="black"/>
<path d="M41.5036 59.8764C41.4306 59.8764 41.3581 59.8651 41.2887 59.8428L34.7806 57.7767C34.6919 57.7485 34.6097 57.7033 34.5386 57.6435C34.4675 57.5837 34.4089 57.5105 34.3662 57.4281C34.3235 57.3458 34.2975 57.2559 34.2896 57.1635C34.2818 57.0711 34.2923 56.9781 34.3205 56.8898C34.3487 56.8014 34.3941 56.7195 34.4541 56.6487C34.5141 56.5778 34.5875 56.5195 34.6702 56.4769C34.7528 56.4343 34.8431 56.4083 34.9358 56.4005C35.0285 56.3926 35.1218 56.4031 35.2104 56.4313L41.7185 58.4974C41.8797 58.5485 42.0172 58.6553 42.1062 58.7986C42.1952 58.9419 42.2298 59.1122 42.2039 59.2787C42.1779 59.4452 42.093 59.5969 41.9646 59.7065C41.8362 59.8161 41.6727 59.8764 41.5036 59.8764Z" fill="black"/>
<path d="M42.6832 70.6408C42.61 70.6409 42.5374 70.6296 42.4678 70.6073L31.7605 67.204C31.6719 67.1758 31.5897 67.1306 31.5187 67.0707C31.4476 67.0109 31.3891 66.9376 31.3465 66.8553C31.3038 66.7729 31.2778 66.683 31.2701 66.5906C31.2623 66.4982 31.2728 66.4052 31.3011 66.3169C31.3294 66.2286 31.3749 66.1467 31.435 66.0759C31.495 66.0051 31.5684 65.9467 31.6511 65.9042C31.7338 65.8617 31.824 65.8359 31.9167 65.8282C32.0094 65.8204 32.1027 65.8309 32.1913 65.8591L42.8986 69.2623C43.0595 69.3136 43.1968 69.4204 43.2857 69.5636C43.3745 69.7069 43.409 69.8771 43.383 70.0435C43.357 70.2099 43.2722 70.3616 43.1439 70.4711C43.0155 70.5807 42.8521 70.6408 42.6832 70.6408Z" fill="black"/>
<path d="M62.1718 88.1761C62.0987 88.1761 62.026 88.1648 61.9564 88.1426L28.1765 77.4106C28.0879 77.3824 28.0057 77.3371 27.9347 77.2773C27.8636 77.2174 27.8051 77.1442 27.7625 77.0618C27.7198 76.9794 27.6939 76.8895 27.6861 76.7972C27.6783 76.7048 27.6889 76.6117 27.7171 76.5234C27.7454 76.4351 27.7909 76.3533 27.851 76.2825C27.911 76.2117 27.9845 76.1533 28.0671 76.1108C28.1498 76.0683 28.24 76.0425 28.3327 76.0347C28.4254 76.027 28.5187 76.0374 28.6073 76.0656L62.3872 86.7976C62.5482 86.8488 62.6855 86.9557 62.7743 87.0989C62.8631 87.2421 62.8977 87.4124 62.8717 87.5788C62.8457 87.7452 62.7609 87.8968 62.6325 88.0064C62.5042 88.1159 62.3408 88.1761 62.1718 88.1761Z" fill="black"/>
<path d="M23.7221 76.3178C25.0901 76.3178 25.0923 74.1992 23.7221 74.1992C22.3542 74.1992 22.3519 76.3178 23.7221 76.3178Z" fill="black"/>
<path d="M27.7163 65.8965C29.0842 65.8965 29.0865 63.7778 27.7163 63.7778C26.3483 63.7778 26.3461 65.8965 27.7163 65.8965Z" fill="black"/>
<path d="M30.226 56.5346C31.594 56.5346 31.5962 54.416 30.226 54.416C28.8581 54.416 28.8558 56.5346 30.226 56.5346Z" fill="black"/>
<path d="M40.4272 31.1176C41.7951 31.1176 41.7974 28.999 40.4272 28.999C39.0593 28.999 39.057 31.1176 40.4272 31.1176Z" fill="black"/>
<path d="M43.0629 23.1963C44.4309 23.1963 44.4331 21.0776 43.0629 21.0776C41.695 21.0776 41.6927 23.1963 43.0629 23.1963Z" fill="black"/>
<path d="M46.8041 16.6723C48.1721 16.6723 48.1743 14.5537 46.8041 14.5537C45.4362 14.5537 45.4339 16.6723 46.8041 16.6723Z" fill="black"/>
<path d="M62.5922 84.4128C50.1646 84.4128 40.0537 74.5606 40.0537 62.4505C40.0537 50.3405 50.1646 40.4883 62.5922 40.4883C65.4089 40.4856 68.2019 41.0009 70.8309 42.0084L69.9841 44.2055C67.6253 43.3015 65.1194 42.8391 62.5922 42.8417C51.4666 42.8417 42.4153 51.6381 42.4153 62.4505C42.4153 73.263 51.4666 82.0594 62.5922 82.0594C73.7178 82.0594 82.7687 73.263 82.7687 62.4505C82.7558 59.8498 82.2209 57.2781 81.1954 54.8866C80.1699 52.4951 78.6746 50.3322 76.7975 48.5253L78.4395 46.8338C80.5437 48.8605 82.2196 51.2863 83.3687 53.9683C84.5177 56.6503 85.1167 59.5343 85.1303 62.4505C85.1303 74.5606 75.0199 84.4128 62.5922 84.4128Z" fill="#FE897B"/>
<path d="M58.6586 73.7518L53.5283 54.7931L57.6327 53.6903L60.254 63.3793L77.1627 36.9551L80.7466 39.2327L58.6586 73.7518Z" fill="#FE897B"/>
<path d="M4.93653 27.7585C4.83215 27.255 4.7137 26.7538 4.62877 26.2471C4.57924 25.9515 4.74605 25.8301 5.02094 25.9437C5.24901 26.0469 5.46924 26.1667 5.67988 26.3018C6.53346 26.8875 7.30512 27.5838 7.97455 28.3723C8.77576 29.1993 9.55352 30.0498 10.3175 30.9113C10.5559 31.1802 10.8472 31.4195 10.7863 31.8976C10.7586 32.1158 11.1293 32.3613 11.2532 32.6253C11.7886 33.722 12.1767 34.8843 12.4075 36.082C12.5251 36.4307 12.6932 36.7602 12.9065 37.0603L13.0561 37.0204C13.1067 36.9076 13.1503 36.7918 13.1867 36.6736C13.575 35.0972 13.9296 33.5117 14.3616 31.9473C14.4038 31.8526 14.426 31.7503 14.427 31.6466C14.4279 31.543 14.4075 31.4402 14.3669 31.3447C14.3264 31.2493 14.2667 31.163 14.1914 31.0915C14.1162 31.0199 14.027 30.9646 13.9293 30.9288C12.2064 30.2348 11.2987 28.7849 10.5196 27.2582C10.0177 26.2937 9.63669 25.2714 9.38537 24.2141C9.23354 23.2406 9.16575 22.2559 9.18271 21.2709C9.20979 21.0997 9.25906 20.9327 9.32922 20.7741C10.9224 22.007 12.1889 23.6092 13.0187 25.4414C13.8741 27.2281 14.4897 29.0799 14.3787 31.1224L14.5757 31.1272C14.6479 30.994 14.7291 30.8649 14.7908 30.7271C15.3778 29.4156 15.9535 28.0991 16.5499 26.792C16.6746 26.5259 16.6964 26.2233 16.6112 25.9421C16.526 25.6609 16.3397 25.4209 16.0881 25.268C15.5326 24.9517 15.0861 24.4754 14.8073 23.9016C14.058 22.7224 13.6172 21.3749 13.5252 19.9822C13.549 19.0667 13.6326 18.1537 13.7756 17.249C13.7841 17.1702 13.887 17.1015 14.032 16.9215C14.4643 17.3502 14.8939 17.7177 15.2484 18.1469C15.5005 18.4821 15.713 18.8451 15.8818 19.2287C16.6665 20.8264 17.1943 22.4855 16.9965 24.2992C16.9717 24.5329 16.9129 24.7618 16.8218 24.9787C16.6237 25.4412 16.611 25.4358 16.9194 25.9959C17.111 25.7163 17.2841 25.4666 17.4544 25.2149C18.0726 24.3011 18.6805 23.3802 19.3117 22.4754C19.4743 22.26 19.5614 21.9974 19.5598 21.7279C19.5581 21.4584 19.4677 21.1968 19.3026 20.9833C17.7936 19.3592 17.6374 17.3886 17.8802 15.3422C18.029 14.4871 18.2264 13.6412 18.4717 12.8084C18.6488 12.9105 18.7422 12.9326 18.7801 12.9908C19.5748 14.116 20.1381 15.3869 20.4374 16.7302C20.7256 18.1054 20.46 19.5385 19.6978 20.7204C19.5513 20.9556 19.7004 21.3742 19.7187 21.8545C19.9617 21.6679 20.0949 21.5859 20.2035 21.4791C21.205 20.4936 22.2077 19.509 23.194 18.5085C23.3288 18.371 23.4053 18.1871 23.4073 17.9949C23.3798 17.2672 23.2732 16.5446 23.0895 15.8397C22.9721 15.478 22.7132 15.1727 22.8373 14.7589C22.8996 14.5509 22.9764 14.3473 23.0426 14.1404C23.2638 13.4498 23.3081 12.6883 23.7536 12.0881C24.2092 11.4744 24.7268 10.9064 25.3025 10.2163C25.5622 11.0679 25.6635 11.9598 25.6014 12.8477C25.5093 14.0712 25.1438 15.2588 24.5318 16.3234C24.3922 16.5716 24.2071 16.7913 23.9861 16.9714C23.5941 17.2721 23.6613 17.6494 23.6533 18.1448C23.8825 17.9705 24.0268 17.8665 24.1648 17.7549C24.7763 17.2603 25.3987 16.7782 25.9907 16.2613C26.2912 16.0316 26.5421 15.7436 26.7282 15.4149C27.7105 13.294 30.7479 12.0114 32.837 12.3954C33.1192 12.4355 33.3988 12.4927 33.6741 12.5667C34.1077 12.7029 34.1463 12.8702 33.8303 13.2052C32.8772 14.2274 31.7119 15.0301 30.4156 15.5575C29.3998 16.008 28.2838 16.1876 27.1774 16.0785C26.9502 16.0406 26.7169 16.0819 26.5168 16.1954C25.6844 16.8175 24.881 17.4783 24.0698 18.1286C24.0204 18.1852 23.9782 18.2477 23.9441 18.3146C24.4774 18.4279 25.0337 18.3526 25.5174 18.1018C26.4012 17.5621 27.4399 17.6303 28.4049 17.6736C29.3533 17.7781 30.2904 17.9673 31.2049 18.2388C31.4533 18.2959 31.7169 18.42 31.4122 18.7404C30.5339 18.3091 28.1656 17.995 27.8827 18.3149C28.9634 18.4412 30.0842 18.2348 31.1234 18.9339C30.3125 19.4369 29.5452 19.9118 28.6363 19.8357C27.8654 19.7281 27.1024 19.5703 26.3522 19.3635L26.67 19.549L26.6295 19.6482C26.1656 19.4405 25.681 19.2689 25.2418 19.0181C24.1123 18.3731 23.6786 18.3708 22.7109 19.239C21.8872 19.978 21.117 20.7766 20.3256 21.5514C20.2597 21.6448 20.202 21.7437 20.1533 21.8471C20.5218 21.7591 20.8774 21.7838 21.0231 21.6211C21.8225 20.7287 22.8511 20.7239 23.8999 20.8051C25.4631 20.912 26.9844 21.3562 28.3584 22.1067C28.5237 22.1981 28.7889 22.4156 28.7632 22.4862C28.6821 22.6984 28.532 22.8774 28.3368 22.9946C27.4777 23.5076 26.5104 23.8143 25.5118 23.8904C24.5131 23.9665 23.5104 23.8098 22.583 23.433C21.9997 23.1525 21.4737 22.7668 21.0315 22.2953C20.6913 21.9714 20.1178 21.8351 19.8408 22.218C18.9275 23.3641 18.1674 24.6235 17.5797 25.9647C17.5694 25.9912 17.5866 26.0283 17.6121 26.2147C18.195 25.5814 18.9706 25.1566 19.8196 25.0057L19.1286 25.3078C19.4833 25.2531 19.8868 25.3493 20.1127 24.9299C20.157 24.8476 20.4385 24.8555 20.6019 24.8798C21.7341 25.0486 22.8639 25.2328 24.0096 25.3886L22.8628 25.0391L22.9206 24.8881C23.8274 25.2693 24.7341 25.6505 25.6408 26.0319C25.8315 26.0963 26.0153 26.1794 26.1894 26.2802C26.4241 26.4414 26.9068 26.3275 26.8605 26.7978C26.8351 27.0558 26.1407 27.369 25.7787 27.3202C25.856 27.7612 25.5089 27.8286 25.2284 27.8538C24.1154 27.9537 22.9992 28.0683 21.8836 28.076C20.3702 28.0865 19.0744 27.4233 17.8571 26.5892C17.5053 26.3481 17.3236 26.4196 17.1125 26.9048C16.8721 27.4575 16.6376 28.0133 16.4221 28.576C16.0817 29.4649 15.7592 30.3607 15.3705 31.4122C15.9428 31.1834 16.4679 31.6087 16.8667 30.9804C17.1139 30.6611 17.4554 30.4274 17.8432 30.3121C18.3245 30.1873 18.8158 30.1045 19.3116 30.0647L19.3114 30.0515L19.1177 30.3016C19.6722 30.3013 20.1645 30.3069 20.6564 30.2948C20.7356 30.2928 20.813 30.2114 20.8912 30.1668L20.7141 29.9515L20.7237 29.9668C21.2633 30.0228 21.81 30.0423 22.341 30.1432C23.1311 30.2933 23.912 30.4938 24.6927 30.6892C24.9079 30.7673 25.1163 30.8629 25.3158 30.9749C25.019 31.2836 24.7007 31.5709 24.3633 31.8348C23.0856 32.6608 21.5849 33.0775 20.0627 33.0289C18.6887 33.0633 17.3501 32.5925 16.302 31.7064C16.116 31.546 15.6174 31.7483 15.263 31.7798C15.2001 31.7854 15.1357 31.775 14.9624 31.7668C15.0191 31.9934 15.0417 32.2271 15.0296 32.4603C14.9577 32.8514 14.7913 33.2243 14.6851 33.6104C14.3395 34.8671 14.003 36.1262 13.6259 37.5217C14.0822 37.4967 14.5315 37.3994 14.9569 37.233C16.0042 36.6287 17.1716 36.2602 18.377 36.1536C19.9932 35.9463 21.63 35.955 23.2439 36.1795C23.3004 36.1869 23.3544 36.2074 23.4015 36.2394C23.4486 36.2713 23.4876 36.3137 23.5153 36.3634L21.2055 36.1654C22.5213 36.7161 24.0191 36.3162 25.3328 37.0804C25.3295 37.0842 25.3713 37.0401 25.409 36.9928C25.447 36.9452 25.4809 36.8943 25.5361 36.8179L25.053 36.6073L25.0851 36.5253C25.6204 36.7481 26.1613 36.9592 26.683 37.2101C26.7148 37.2761 26.7307 37.3485 26.7296 37.4216C26.7285 37.4947 26.7104 37.5666 26.6766 37.6315C26.1007 38.1907 25.4839 38.7066 24.8316 39.1749C23.0066 40.3742 21.0191 40.345 18.9812 39.8375C17.4365 39.4344 15.9683 38.7824 14.6344 37.9076C14.4372 37.787 14.2091 37.7263 13.9778 37.7328C13.8938 37.7501 13.8156 37.788 13.75 37.843C13.6844 37.898 13.6336 37.9684 13.6021 38.0479C12.9493 41.3117 12.6852 44.6409 12.8152 47.9664C12.8229 48.1578 12.8573 48.3481 12.8792 48.5389L13.0051 48.5737C13.1746 48.3187 13.446 48.0823 13.4972 47.8056C13.8464 45.9193 15.0698 44.7188 16.5904 43.7262C18.4193 42.5322 20.4728 42.0157 22.5985 41.7171C23.0746 41.6502 23.5567 41.6269 24.2111 41.5678C24.108 41.9472 23.9659 42.3152 23.787 42.6655C22.4467 44.6435 20.4476 46.0853 18.1434 46.736C16.7657 47.1541 15.3665 47.5017 13.9745 47.872C13.6916 48.0388 13.4494 48.2664 13.2657 48.5381C13.0819 48.8097 12.9611 49.1187 12.9121 49.4427C13.1735 51.8377 13.4363 54.2326 13.7149 56.6257C13.8657 57.9214 14.0863 59.2101 14.1956 60.5087C14.162 60.9391 14.0609 61.3615 13.8962 61.7608L13.6865 61.7437C13.5864 61.2143 13.4757 60.6867 13.3888 60.1551C13.2845 59.5165 13.2468 58.8629 13.0908 58.2381C12.9341 57.8729 12.9285 57.4607 13.0752 57.0913C13.103 57.0369 12.8586 56.8441 12.6968 56.6683L12.8346 56.2193C11.407 55.1905 9.7891 54.4534 8.0743 54.0506C7.98975 54.0248 7.86021 53.9933 7.73713 53.9453C7.63273 53.9057 7.53308 53.8547 7.43986 53.7933C5.17682 52.334 3.25648 50.4051 1.81007 48.1384C1.17067 47.1014 0.640002 45.9962 0.0891278 44.9073C0.0207806 44.6778 -0.00863134 44.4386 0.00218396 44.1995C0.240991 44.1679 0.483031 44.1687 0.721604 44.2021C1.65615 44.4651 2.59971 44.7143 3.50461 45.0605C5.36025 45.7414 6.95766 46.9802 8.07597 48.6054C8.63613 49.4202 9.30307 50.1704 9.78994 51.0247C10.481 52.2374 11.0699 53.5101 11.6625 54.7758C11.7471 55.0164 11.8993 55.2278 12.1011 55.3846C12.3029 55.5414 12.5456 55.637 12.8004 55.6601C12.812 55.6018 12.8575 55.5099 12.8319 55.4813C12.7187 55.3694 12.6449 55.224 12.6214 55.0669C12.5979 54.9098 12.6259 54.7493 12.7013 54.6094C12.7133 54.5777 12.7186 54.5439 12.7167 54.5101C12.7149 54.4763 12.706 54.4432 12.6906 54.413C12.2985 53.7589 12.4498 53.0593 12.4647 52.355C12.4885 51.2298 12.3981 50.1029 12.3897 48.9764C12.3802 47.7062 12.4085 46.4356 12.4175 45.1653C12.4177 45.126 12.3853 45.0866 12.3393 44.981L12.2553 45.5652L12.1476 45.5569C12.1897 44.9848 12.1961 44.4073 12.2841 43.8423C12.3667 43.3114 11.7885 42.4831 11.2826 42.6119C10.2071 42.8857 9.3528 42.4148 8.47875 41.9518C6.88007 41.1051 5.74084 39.7779 4.67985 38.3585C3.45057 36.6339 2.50992 34.7222 1.89454 32.6976C1.843 32.4783 1.80621 32.2559 1.78436 32.0317C2.12698 32.1132 2.46362 32.218 2.79188 32.3453C5.06815 33.4373 7.07123 35.0218 8.65511 36.9832C9.74694 38.2195 10.5973 39.6484 11.1623 41.196C11.2273 41.5219 11.361 41.8303 11.5545 42.1009C11.7481 42.3714 11.9971 42.598 12.2851 42.7654L12.6829 41.4685L12.5964 41.4293L12.4413 41.6709L12.3165 41.6273C12.4894 41.2224 12.6338 40.806 12.7487 40.3811C12.8701 39.788 13.2188 39.2169 12.8903 38.558C12.787 38.3508 12.9425 38.0147 12.98 37.7376C12.9336 37.4644 12.8239 37.2058 12.6595 36.9824C12.4951 36.7589 12.2807 36.5769 12.0332 36.4506C11.6058 36.3567 11.186 36.2304 10.7778 36.073C9.93611 35.6859 9.16948 35.154 8.51311 34.5016C7.09189 33.1503 6.0147 31.4806 5.37097 29.6312C5.2511 29.2717 5.15012 28.9063 5.06839 28.5364C5.14057 28.6148 5.21252 28.6924 5.28448 28.7701L5.37737 28.7037L4.98197 27.2811L4.88885 27.2963L4.93653 27.7585ZM18.1306 37.5551C18.5289 38.2356 18.9838 38.0306 19.4178 37.9643C19.5823 37.9392 19.7515 37.9462 19.9179 37.9318C20.2393 37.904 20.5604 37.8715 20.8816 37.8409L20.8847 37.7189L19.9579 37.6493C21.0875 37.5473 22.2148 37.5414 23.3411 37.5047C23.6898 37.4933 23.9288 37.5357 23.8529 38.0251L24.8033 37.7546L24.5092 37.3891C24.3291 37.4129 24.1469 37.4174 23.9659 37.4024C23.7593 37.3161 23.5457 37.2474 23.3274 37.197C22.626 37.1607 21.923 37.1721 21.2232 37.2312C20.6138 37.2985 19.9256 37.1463 19.4285 37.6952C19.3884 37.7395 19.2722 37.7337 19.1953 37.723C18.8674 37.6773 18.5411 37.621 18.1306 37.5551ZM23.2376 43.164L23.1181 43.0088C22.8697 43.2871 22.5996 43.5454 22.3106 43.7815C21.7054 44.2304 21.0683 44.6351 20.4046 44.9925C19.3474 45.5272 18.2471 45.9763 17.1699 46.472C16.9338 46.5807 16.7178 46.7329 16.4925 46.8651L16.6018 47.0397C19.1188 46.3555 21.4086 45.0181 23.2376 43.164ZM8.48728 31.6911L8.41677 31.7331L7.87418 31.0356L7.72058 31.1488L8.96743 33.0057L9.11728 32.9141L8.60489 32.0256C9.33628 31.9977 9.10402 32.8403 9.68437 32.9862L8.63355 31.2422L8.54822 31.4179L8.17398 30.8122L8.08116 30.8689L8.48728 31.6911ZM20.8525 36.4264C19.2417 36.1304 17.1794 36.3884 16.5343 36.8979L20.8525 36.4264ZM20.0409 44.656L20.0128 44.5747L21.5512 43.9731L21.5103 43.8562C21.4342 43.8616 21.3588 43.875 21.2854 43.8959C20.6736 44.1386 20.0183 44.1957 19.5199 44.7928C19.1763 45.2045 18.497 45.3371 17.9678 45.5945L18.0362 45.7445L20.7383 44.619L20.6847 44.4736L20.0409 44.656ZM4.38737 48.3032L4.1884 48.4671C5.10762 49.3973 5.81077 50.5245 6.82451 51.3686L6.98611 51.2233L4.38737 48.3032ZM24.5235 15.6099L24.6408 15.6422C24.668 15.4556 24.7266 15.275 24.8142 15.1079C25.3646 14.4042 25.4008 13.5682 25.4568 12.7397C25.4644 12.627 25.318 12.5041 25.2429 12.386C25.1811 12.6269 25.2632 12.8485 25.1916 12.9231C25.0745 13.0726 24.9927 13.2464 24.9523 13.4317C24.9119 13.617 24.9138 13.8091 24.9581 13.9935C24.9339 14.2872 24.8656 14.5757 24.7553 14.8492C24.6843 15.1045 24.6013 15.3563 24.5235 15.6098V15.6099ZM23.0162 21.7411L23.0034 21.8646L27.3185 22.1556L27.3274 22.0106C25.9078 21.7375 24.459 21.647 23.0162 21.7411H23.0162ZM9.39292 31.3738L9.16813 31.4991L10.4529 33.8866L10.6225 33.7953C10.1808 33.0049 9.9351 32.1111 9.39292 31.3738ZM19.9761 36.9003L19.9488 36.7088C19.1861 36.7956 18.4225 36.8752 17.6624 36.9804C17.5857 36.9911 17.5304 37.1567 17.4651 37.2505C17.5617 37.2619 17.6591 37.2651 17.7562 37.26C18.0106 37.2264 18.2632 37.1795 18.5166 37.1382C19.0031 37.0588 19.4896 36.9795 19.9761 36.9003ZM21.9328 43.3585L21.8627 43.1779L18.86 44.3567L18.9208 44.5131L21.9328 43.3585ZM4.45488 49.2203L4.30118 49.3637L6.26237 51.3409L6.37497 51.2315L4.45488 49.2203ZM23.0962 42.5348L23.0517 42.3746L20.1844 43.4289L20.2483 43.602L23.0962 42.5348ZM20.1414 27.2713L20.2644 27.2111L20.1293 26.8656C20.6637 26.6586 20.4596 27.157 20.6575 27.4128C20.6072 26.6641 21.1607 27.0363 21.4237 26.771L19.9165 26.6009L19.8282 26.7423L20.1414 27.2713ZM19.654 18.1192C20.0195 17.6558 20.0506 16.5716 19.6955 16.2243L19.654 18.1192ZM3.92088 48.2717L4.08428 48.1286L2.44111 46.3058L2.31138 46.4197L3.92088 48.2717ZM21.0787 38.2491L21.0591 38.0299L18.9852 38.2153L19.0038 38.4242L21.0787 38.2491ZM25.6069 22.4153L25.5868 22.6745L27.4748 22.7794L27.4918 22.5658L25.6069 22.4153ZM29.8992 14.3709L29.9743 14.5638L32.2736 13.4594L32.2011 13.3053L29.8992 14.3709ZM5.86403 51.9769L6.00454 51.8388L4.25528 50.2165L4.14499 50.3342L5.86403 51.9769ZM19.6153 39.483L19.6121 39.7191L21.3911 39.7931L21.4011 39.5666L19.6153 39.483ZM24.0326 23.2569L24.0723 23.5736L26.0777 23.5882L26.0728 23.5222L24.0326 23.2569ZM19.1203 39.5124L19.1546 39.4342L17.3098 38.8723L17.2801 38.9518L19.1203 39.5124ZM23.0904 14.8408L23.1744 14.8592L23.7169 13.0903L23.6328 13.0723L23.0904 14.8408ZM6.13415 28.9999C6.19588 29.7462 6.74583 30.6474 7.20699 30.8146L6.13415 28.9999ZM23.6087 14.5323L23.7851 14.5853C23.9805 14.0677 24.1309 13.5343 24.2345 12.991L24.0943 12.9491L23.6087 14.5323ZM21.1139 27.9008L21.1509 27.7848L19.4668 27.2718L19.4293 27.3876L21.1139 27.9008ZM27.6477 18.0867L27.6193 17.881L25.997 18.1877L26.0296 18.3633L27.6477 18.0867ZM29.4942 15.0636L29.4133 14.8701L28.0391 15.4853L28.1229 15.6724L29.4942 15.0636ZM14.2447 18.6418L14.0427 18.6796L14.4134 20.2803L14.5867 20.2417L14.2447 18.6418ZM20.5968 38.6074L20.6405 38.7753L22.2135 38.449L22.17 38.2559L20.5968 38.6074ZM19.4513 15.9597L19.2412 15.963L19.278 17.6016L19.4547 17.5987L19.4513 15.9597ZM26.7692 18.7332L26.7873 18.9236L28.5718 18.898L28.5669 18.7603L26.7692 18.7332ZM23.3253 21.0423L23.3302 21.266L24.6271 21.1939L24.6196 21.0183L23.3253 21.0423ZM30.8881 14.6552L30.799 14.5121L29.4184 15.3274L29.4533 15.3906L30.8881 14.6552ZM11.356 26.5038L11.5046 26.5455L11.9424 26.241L11.7415 25.8111L11.6018 25.8205L11.356 26.5038ZM10.8374 33.5192L10.6977 33.5965L11.6199 35.0645L11.7743 34.9651L10.8374 33.5192ZM17.3423 45.7162L17.2636 45.5771L15.7317 46.4303L15.8143 46.5767L17.3423 45.7162ZM7.85474 52.742L7.9531 52.6432L6.73468 51.5505L6.63344 51.6644L7.85474 52.742ZM21.9731 30.9761L21.9839 30.7882L20.8223 30.7512L20.8161 30.9536L21.9731 30.9761ZM23.8729 22.8204L23.8625 23.0254L25.0529 23.0656L25.0579 22.8738L23.8729 22.8204ZM7.45156 51.2854L7.33412 51.3951L8.37329 52.4131L8.50665 52.2746L7.45156 51.2854ZM23.0447 27.678L22.9965 27.5042C22.7043 27.6984 22.2782 27.4302 22.0285 27.7709L22.0734 27.9248L23.0447 27.678Z" fill="#A876F5"/>
</svg>