<svg width="521" height="556" viewBox="0 0 521 556" fill="none" xmlns="http://www.w3.org/2000/svg">
<path d="M91.0403 503.179C62.3337 466.415 65.2786 419.911 67.3673 386.931C74.7636 270.14 161.557 195.845 191.907 169.866C240.002 128.698 319.2 60.9043 404.963 86.5376C476.398 107.889 506.54 180.354 508.918 186.326C531.396 242.772 515.233 293.655 499.654 342.695C487.173 381.985 467.393 444.255 412.168 490.834C319.199 569.247 151.921 581.146 91.0403 503.179Z" fill="white"/>
<path d="M417.826 171.408L392.609 168.322L446.18 86.5371L490.389 181.696L463.628 178.61L460.083 401.699L416.194 384.271L417.826 171.408Z" fill="#FE897B"/>
<path d="M356.556 128.432C376.053 149.886 371.138 180.405 369.14 192.806C365.23 217.083 353.475 237.658 324.175 273.149C266.633 342.85 232.399 384.318 168.39 408.636C144.835 417.585 110.564 430.605 73.6708 421.774C24.5058 410.006 7.73992 368.303 5.41005 362.175C-12.7164 314.494 18.9833 266.821 37.6235 238.788C47.6649 223.687 109.577 134.029 223.096 111.539C242.117 107.77 323.183 91.7099 356.556 128.432Z" fill="#FFF2ED"/>
<path d="M240.575 103.568C234.206 98.2181 212.252 113.824 191.562 138.429C170.871 163.047 159.251 187.338 165.633 192.688C172.015 198.051 193.955 182.445 214.646 157.827C235.349 133.222 246.956 108.931 240.575 103.568ZM208.691 156.49C198.107 169.078 187.617 177.676 185.264 175.71C182.925 173.743 189.606 161.932 200.19 149.344C210.773 136.755 221.263 128.144 223.603 130.124C225.956 132.09 219.274 143.902 208.691 156.49Z" fill="white"/>
<path d="M329.636 269.258L242.159 106.506C243.853 115.126 232.716 136.357 214.655 157.834C195.687 180.389 175.678 195.369 167.559 193.592L329.636 269.258Z" fill="white"/>
<path d="M139.614 223.566C138.061 214.886 149.768 206.501 152.969 204.208C165.057 195.551 178.888 193.971 192.25 194.103C244.742 194.62 281.515 221.463 296.977 232.75C304.487 238.188 310.849 245.057 315.695 252.961C320.943 261.59 327.534 276.85 322.731 281.229C319.892 283.818 313.943 281.812 303.979 277.371C280.555 266.934 272.171 259.634 260.596 253.809C237.321 242.096 212.233 241.925 198.535 241.831C187.012 241.753 174.873 242.893 158.879 237.359C151.33 234.747 140.946 231.011 139.614 223.566Z" fill="#FFF2ED"/>
<path d="M165.098 16.8016C165.098 16.8016 180.426 27.727 176.957 55.1748C173.488 82.6225 151.907 122.47 186.57 137.819C186.57 137.819 169.5 116.314 182.066 89.8043C194.631 63.2945 195.86 23.8505 190.886 10.2436C190.886 10.2437 182.575 6.85123 165.098 16.8016Z" fill="#A876F5"/>
<path d="M219.175 45.6458C219.175 45.6458 224.745 58.8434 206.731 76.1013C188.716 93.3592 211.396 129.428 211.396 129.428L216.687 123.495C216.687 123.495 206.982 94.3216 218.74 81.2037C230.498 68.0858 248.911 63.8792 248.576 42.9272C248.576 42.9272 233.041 31.8562 219.175 45.6458Z" fill="#FE897B"/>
<path d="M97.7585 66.245C94.6167 64.7739 91.829 62.6436 89.5848 59.999C87.3406 57.3545 85.6925 54.2578 84.7531 50.9196C81.6729 39.621 75.4807 30.9233 70.3799 28.1167C70.3799 28.1167 55.4037 30.3959 57.536 47.9893C57.536 47.9893 67.6425 43.0104 72.3988 49.4731C77.1552 55.9359 83.4656 68.5033 97.7585 66.245Z" fill="#FE897B"/>
<path d="M57.1654 210.268C57.1654 210.268 64.4093 168.73 137.234 164.688C137.234 164.688 111.621 142.076 53.0734 175.759C49.642 181.092 48.1738 187.452 48.9205 193.748C49.6671 200.044 52.5819 205.885 57.1654 210.268Z" fill="#E57BD8"/>
<path d="M93.2804 248.206C93.2804 248.206 86.3688 230.872 106.037 225.488C125.706 220.104 136.049 207.94 134.438 192.496C132.008 198.706 128.002 204.178 122.813 208.371C117.625 212.564 111.434 215.335 104.849 216.41C81.5012 220.767 77.3281 233.426 77.3281 233.426C77.3281 233.426 78.1043 251.402 93.2804 248.206Z" fill="#A876F5"/>
<path d="M92.7603 78.5504C75.7828 88.703 71.3059 106.521 82.6451 122.98C89.7214 133.828 102.055 135.128 112.947 129.246C117.133 126.88 121.786 124.045 123.983 119.632C125.563 114.978 124.055 109.157 118.781 108.053C106.852 104.237 104.212 119.566 105.935 128.159C106.342 130.909 107.494 133.495 109.268 135.637C111.408 137.484 113.744 139.092 116.234 140.431C119.851 142.656 123.921 144.044 128.144 144.492C132.367 144.94 136.637 144.437 140.64 143.021C143.269 142.136 145.69 140.725 147.753 138.872C148.236 138.533 148.621 138.073 148.872 137.539C149.122 137.005 149.228 136.415 149.18 135.827C149.132 135.239 148.931 134.674 148.597 134.188C148.264 133.701 147.809 133.311 147.278 133.054C145.536 132.19 143.529 132.027 141.67 132.6C139.812 133.173 138.245 134.437 137.292 136.132C134.9 139.605 136.625 143.754 139.827 146.213C146.604 151.326 155.831 151.514 163.877 149.686C169.39 148.339 174.644 146.091 179.425 143.034C179.709 142.86 180.05 142.805 180.375 142.881C180.699 142.957 180.98 143.158 181.157 143.44C181.334 143.722 181.394 144.062 181.322 144.387C181.25 144.712 181.052 144.995 180.773 145.176C170.736 151.333 158.349 155.035 146.627 151.892C140.95 150.34 134.166 146.314 134.105 139.656C134.215 131.986 144.849 126.757 150.143 133.088C153.779 138.885 145.657 143.094 141.246 144.652C129.827 149.106 117.003 144.38 108.233 136.615C104.232 131.875 103.82 125.408 104.389 119.548C105.035 113.954 107.945 106.416 114.632 106.42C119.106 106.333 124.33 108.342 125.26 113.222C125.619 114.701 125.668 116.237 125.402 117.735C125.137 119.233 124.564 120.66 123.719 121.925C120.837 125.286 117.293 128.017 113.308 129.95C105.643 133.994 95.5071 135.148 88.2409 129.61C81.4088 123.962 77.0721 115.856 76.1665 107.04C74.7895 95.1366 82.7861 84.2293 92.7606 78.5503L92.7603 78.5504Z" fill="#A876F5"/>
<path d="M92.7227 30.5503C104.595 23.2434 119.53 19.5499 133.183 23.6101C146.17 27.6772 160.167 39.0581 158.651 53.9882C157.891 60.3412 153.947 67.5261 147.175 68.8517C138.691 70.2864 131.856 60.0791 140.011 54.5976C148.385 49.7539 157.34 56.6417 159.271 65.0811C161.208 72.208 159.894 79.5411 157.935 86.471C157.891 86.6356 157.814 86.7896 157.708 86.9237C157.603 87.0578 157.472 87.1694 157.322 87.2515C157.173 87.3337 157.009 87.3849 156.839 87.402C156.669 87.419 156.498 87.4017 156.335 87.3509C156.172 87.3002 156.021 87.2172 155.891 87.1067C155.761 86.9963 155.655 86.8606 155.578 86.7081C155.502 86.5556 155.458 86.3893 155.447 86.2192C155.437 86.049 155.461 85.8785 155.518 85.7179C157.446 79.2863 158.835 72.252 157.131 65.6532C155.788 59.3833 149.874 53.4072 143.175 55.297C135.083 57.4116 137.557 66.8654 145.149 67.3516C146.791 67.3967 148.417 67.0299 149.88 66.2848C151.343 65.5396 152.596 64.4399 153.524 63.0861C155.606 60.3795 156.939 57.1726 157.388 53.788C157.837 50.4033 157.386 46.9602 156.081 43.8048C152.028 34.2084 142.698 27.459 132.998 24.215C119.555 19.9874 104.602 23.4734 92.7227 30.5503Z" fill="#E57BD8"/>
<path d="M109.09 193.267C111.649 193.267 113.723 191.194 113.723 188.636C113.723 186.079 111.649 184.005 109.09 184.005C106.531 184.005 104.457 186.079 104.457 188.636C104.457 191.194 106.531 193.267 109.09 193.267Z" fill="#FE897B"/>
<path d="M59.7086 129.228C63.1483 129.228 65.9367 126.441 65.9367 123.003C65.9367 119.565 63.1483 116.778 59.7086 116.778C56.2689 116.778 53.4805 119.565 53.4805 123.003C53.4805 126.441 56.2689 129.228 59.7086 129.228Z" fill="#FE897B"/>
<path d="M42.9688 84.7953C49.0763 84.7953 54.0274 79.8466 54.0274 73.7421C54.0274 67.6376 49.0763 62.689 42.9688 62.689C36.8613 62.689 31.9102 67.6376 31.9102 73.7421C31.9102 79.8466 36.8613 84.7953 42.9688 84.7953Z" fill="#E57BD8"/>
<path d="M148.305 18.8269C153.506 18.8269 157.723 14.6123 157.723 9.41344C157.723 4.21454 153.506 0 148.305 0C143.103 0 138.887 4.21454 138.887 9.41344C138.887 14.6123 143.103 18.8269 148.305 18.8269Z" fill="#FE897B"/>
<path d="M216.72 30.8C223.124 30.8 228.315 25.6113 228.315 19.2108C228.315 12.8102 223.124 7.62158 216.72 7.62158C210.316 7.62158 205.125 12.8102 205.125 19.2108C205.125 25.6113 210.316 30.8 216.72 30.8Z" fill="#E57BD8"/>
<path d="M240.575 103.568C234.206 98.2181 212.252 113.824 191.562 138.429C170.871 163.047 159.251 187.338 165.633 192.688C172.015 198.051 193.955 182.445 214.646 157.827C235.349 133.222 246.956 108.931 240.575 103.568ZM208.691 156.49C198.107 169.078 187.617 177.676 185.264 175.71C182.925 173.743 189.606 161.932 200.19 149.344C210.773 136.755 221.263 128.144 223.603 130.124C225.956 132.09 219.274 143.902 208.691 156.49Z" fill="white"/>
<path d="M168.973 195.909C167.262 195.97 165.586 195.409 164.255 194.331C160.237 190.963 160.995 183.403 166.513 171.862C179.619 146.98 197.928 125.207 220.197 108.022C230.619 100.609 237.94 98.5514 241.956 101.93C245.975 105.308 245.219 112.87 239.705 124.408C226.587 149.283 208.279 171.053 186.019 188.248C178.847 193.349 173.143 195.909 168.973 195.909ZM237.243 104.663C234.613 104.663 229.847 106.421 222.685 111.513C201.009 128.277 183.176 149.485 170.383 173.711C165.303 184.334 165.393 189.69 167.013 191.047C168.632 192.409 173.934 191.583 183.533 184.755C205.199 167.982 223.03 146.777 235.836 122.56C240.911 111.936 240.819 106.574 239.196 105.211C238.629 104.807 237.938 104.613 237.243 104.663ZM185.989 178.064C185.227 178.088 184.482 177.836 183.891 177.354C178.285 172.645 195.117 152.048 198.549 147.967C206.766 138.195 217.303 128.142 222.319 127.717C222.793 127.655 223.276 127.692 223.736 127.825C224.196 127.958 224.623 128.185 224.991 128.491C225.349 128.804 225.641 129.185 225.849 129.613C226.057 130.04 226.177 130.505 226.201 130.98C226.643 135.993 218.549 148.099 210.335 157.871C207.26 161.527 192.969 178.064 185.989 178.064V178.064ZM221.85 132.213C219.056 133.385 211.581 139.132 201.833 150.725C192.096 162.306 187.713 170.655 187.03 173.618C189.834 172.442 197.312 166.697 207.051 155.112C216.799 143.519 221.177 135.166 221.85 132.213V132.213Z" fill="black"/>
<path d="M189.301 203.744C189.301 203.744 250.285 171.883 247.942 117.268L255.36 131.07C255.36 131.07 248.756 190.908 211.274 214.002L189.301 203.744Z" fill="#FE897B"/>
<path d="M226.602 221.155C226.602 221.155 275.135 197.606 271.333 160.782L286.936 189.812C286.936 189.812 269.128 222.908 234.911 225.034L226.602 221.155Z" fill="#A876F5"/>
<path d="M189.299 205.887C188.838 205.888 188.389 205.74 188.018 205.465C187.648 205.19 187.376 204.803 187.243 204.361C187.11 203.919 187.124 203.447 187.281 203.013C187.438 202.58 187.731 202.208 188.116 201.954C245.775 163.906 243.847 114.204 243.82 113.706C243.789 113.138 243.985 112.582 244.364 112.158C244.744 111.735 245.277 111.48 245.844 111.449C246.412 111.419 246.969 111.615 247.392 111.994C247.816 112.374 248.071 112.906 248.102 113.473C248.131 113.995 250.292 166.062 190.478 205.533C190.128 205.764 189.719 205.887 189.299 205.887Z" fill="#FE897B"/>
<path d="M239.889 216.609C239.443 216.609 239.008 216.471 238.644 216.212C238.28 215.954 238.007 215.589 237.861 215.167C237.714 214.746 237.703 214.29 237.829 213.862C237.954 213.434 238.211 213.056 238.561 212.781C247.175 206.053 254.173 197.482 259.041 187.699C263.909 177.915 266.524 167.166 266.694 156.241C266.671 155.676 266.872 155.124 267.254 154.706C267.636 154.288 268.167 154.038 268.733 154.011C269.298 153.983 269.851 154.18 270.272 154.559C270.693 154.937 270.947 155.467 270.979 156.032C270.92 167.655 268.208 179.113 263.05 189.531C257.892 199.949 250.423 209.053 241.212 216.15C240.835 216.447 240.369 216.609 239.889 216.609Z" fill="#A876F5"/>
<path d="M257.973 218.899C257.476 218.899 256.993 218.726 256.609 218.41C256.225 218.094 255.963 217.654 255.868 217.166C255.773 216.678 255.85 216.172 256.087 215.735C256.324 215.298 256.706 214.956 257.167 214.77C257.422 214.667 282.704 204.294 286.866 192.718C287.059 192.184 287.457 191.748 287.971 191.506C288.485 191.265 289.074 191.236 289.608 191.428C290.143 191.62 290.58 192.016 290.823 192.529C291.065 193.043 291.095 193.631 290.904 194.166C286.092 207.543 259.891 218.29 258.779 218.742C258.523 218.846 258.249 218.899 257.973 218.899Z" fill="#A876F5"/>
<path d="M271.453 242.097C271.453 242.097 296.301 237.111 293.271 201.607L299.877 213.899C299.877 213.899 304.273 240.327 288.773 250.183L271.453 242.097Z" fill="#E57BD8"/>
<path d="M309.814 232.383C309.814 232.383 314.522 253.391 303.367 256.996L329.634 269.259L309.814 232.383Z" fill="#FE897B"/>
<path d="M269.193 243.185C268.735 243.185 268.29 243.039 267.921 242.768C267.552 242.497 267.28 242.116 267.144 241.679C267.008 241.243 267.015 240.774 267.164 240.342C267.314 239.91 267.597 239.537 267.974 239.277C268.2 239.12 290.774 223.394 292.767 208.257C292.801 207.977 292.89 207.706 293.03 207.461C293.17 207.216 293.358 207.001 293.582 206.829C293.806 206.657 294.062 206.532 294.336 206.46C294.609 206.389 294.894 206.373 295.173 206.413C295.737 206.488 296.248 206.783 296.594 207.234C296.94 207.685 297.092 208.255 297.018 208.818C294.775 225.842 271.402 242.122 270.407 242.806C270.05 243.053 269.626 243.185 269.193 243.185Z" fill="#E57BD8"/>
<path d="M329.632 271.402C329.318 271.403 329.009 271.334 328.725 271.201L166.648 195.535C166.169 195.312 165.79 194.921 165.583 194.436C165.375 193.951 165.354 193.407 165.523 192.907C165.692 192.407 166.04 191.988 166.499 191.728C166.958 191.468 167.497 191.387 168.013 191.5C174.333 192.888 193.317 179.874 213.009 156.455C232.371 133.432 241.392 113.75 240.049 106.921C239.951 106.417 240.036 105.895 240.29 105.449C240.543 105.003 240.949 104.663 241.432 104.49C241.915 104.318 242.444 104.324 242.924 104.508C243.403 104.692 243.8 105.041 244.043 105.493L331.521 268.244C331.696 268.57 331.784 268.937 331.776 269.307C331.768 269.678 331.663 270.04 331.473 270.359C331.283 270.677 331.013 270.94 330.69 271.123C330.367 271.306 330.003 271.402 329.632 271.402ZM174.833 194.625L324.686 264.583L243.662 113.842C240.837 125.008 230.664 142.125 216.293 159.214C203.381 174.568 186.558 190.173 174.833 194.625V194.625Z" fill="black"/>
<path d="M54.0586 243.442L105.873 429.998L380.774 367.899L338.519 183.543L54.0586 243.442Z" fill="white"/>
<path d="M229.531 506.516L103.962 438.619L388.551 373.294L345.323 175.775L45.8092 235.957L40.0195 252.159L83.2483 433.09L98.3012 439.134V457.136L229.531 528.634L503.828 439.134V419.073L229.531 506.516ZM61.7628 247.273L338.117 191.721L373.112 364.55L105.506 423.702L61.7628 247.273Z" fill="black"/>
<path d="M46.8467 235.692L44.7695 236.229L97.2623 439.406L99.3395 438.869L46.8467 235.692Z" fill="white"/>
<path d="M230.593 506.51H228.449V528.629H230.593V506.51Z" fill="white"/>
<path d="M503.816 422.283C503.409 422.283 503.006 422.206 502.628 422.055L387.352 376.277C386.96 376.121 386.602 375.89 386.299 375.596C385.996 375.302 385.754 374.951 385.587 374.563C385.249 373.781 385.237 372.896 385.551 372.104C385.866 371.312 386.483 370.677 387.266 370.339C388.049 370.002 388.934 369.989 389.727 370.304L505.003 416.082C505.698 416.358 506.275 416.867 506.635 417.523C506.994 418.178 507.114 418.939 506.974 419.673C506.833 420.407 506.441 421.069 505.864 421.546C505.288 422.022 504.564 422.283 503.816 422.283Z" fill="black"/>
<path d="M293.98 453.145L322.542 471.662L390.859 447.744L364.999 433.856L293.98 453.145Z" fill="black"/>
<path d="M83.633 267.916C88.0384 267.916 91.6097 264.347 91.6097 259.943C91.6097 255.54 88.0384 251.971 83.633 251.971C79.2276 251.971 75.6562 255.54 75.6562 259.943C75.6562 264.347 79.2276 267.916 83.633 267.916Z" fill="#A876F5"/>
<path d="M105.871 263.653C110.277 263.653 113.848 260.084 113.848 255.68C113.848 251.277 110.277 247.708 105.871 247.708C101.466 247.708 97.8945 251.277 97.8945 255.68C97.8945 260.084 101.466 263.653 105.871 263.653Z" fill="#FE897B"/>
<path d="M128.11 259.389C132.515 259.389 136.086 255.819 136.086 251.416C136.086 247.013 132.515 243.443 128.11 243.443C123.704 243.443 120.133 247.013 120.133 251.416C120.133 255.819 123.704 259.389 128.11 259.389Z" fill="#E57BD8"/>
<path d="M68.9087 284.52C68.3805 284.52 67.8711 284.325 67.478 283.972C67.0848 283.62 66.8356 283.134 66.7783 282.61C66.721 282.085 66.8595 281.557 67.1673 281.128C67.475 280.699 67.9302 280.399 68.4459 280.284L345.538 218.673C346.093 218.55 346.675 218.652 347.155 218.958C347.634 219.263 347.973 219.746 348.097 220.301C348.22 220.856 348.118 221.438 347.812 221.917C347.507 222.397 347.023 222.736 346.467 222.859L69.3757 284.47C69.2222 284.503 69.0657 284.52 68.9087 284.52Z" fill="black"/>
<path d="M123.456 402.877L113.848 358.641L152.79 349.382L162.053 395.03L123.456 402.877Z" fill="#A876F5"/>
<path d="M180.038 388.335L166.859 331.893L205.802 322.635L218.635 380.489L180.038 388.335Z" fill="#FE897B"/>
<path d="M239.13 376.129L221.922 300.002L260.864 290.744L277.727 368.283L239.13 376.129Z" fill="#E57BD8"/>
<path d="M299.92 361.586L274.508 256.046L313.45 246.787L338.517 353.74L299.92 361.586Z" fill="#A876F5"/>
<path d="M380.779 138.574C380.467 138.574 380.159 138.505 379.876 138.374C379.594 138.242 379.343 138.051 379.141 137.813C378.94 137.575 378.793 137.296 378.71 136.996C378.627 136.695 378.611 136.38 378.662 136.073C378.861 134.914 383.711 107.579 403.064 98.9811C403.583 98.7502 404.174 98.7352 404.705 98.9393C405.236 99.1434 405.664 99.5499 405.895 100.07C406.126 100.589 406.141 101.179 405.937 101.71C405.732 102.24 405.326 102.668 404.806 102.899C387.566 110.557 382.936 136.529 382.89 136.791C382.805 137.289 382.546 137.741 382.16 138.068C381.774 138.394 381.285 138.573 380.779 138.574Z" fill="black"/>
<path d="M367.394 118.001C367.044 118 366.701 117.914 366.392 117.751C366.083 117.588 365.819 117.352 365.623 117.063C365.426 116.775 365.303 116.442 365.263 116.096C365.224 115.749 365.271 115.397 365.398 115.072C365.959 113.649 379.503 80.0945 411.936 68.0682C412.2 67.9693 412.481 67.9235 412.763 67.9335C413.045 67.9434 413.322 68.0089 413.579 68.1261C413.835 68.2434 414.066 68.41 414.258 68.6166C414.45 68.8232 414.6 69.0656 414.698 69.33C414.796 69.5944 414.841 69.8756 414.83 70.1574C414.819 70.4392 414.753 70.716 414.635 70.9721C414.516 71.2282 414.349 71.4584 414.142 71.6497C413.934 71.841 413.691 71.9895 413.427 72.0867C382.827 83.4349 369.519 116.314 369.389 116.644C369.231 117.044 368.956 117.387 368.6 117.629C368.244 117.87 367.824 118 367.394 118.001Z" fill="black"/>
<path d="M365.567 181.88C369.972 181.88 373.543 178.31 373.543 173.907C373.543 169.504 369.972 165.934 365.567 165.934C361.161 165.934 357.59 169.504 357.59 173.907C357.59 178.31 361.161 181.88 365.567 181.88Z" fill="#E57BD8"/>
<path d="M370.164 204.04C374.57 204.04 378.141 200.471 378.141 196.067C378.141 191.664 374.57 188.095 370.164 188.095C365.759 188.095 362.188 191.664 362.188 196.067C362.188 200.471 365.759 204.04 370.164 204.04Z" fill="#E57BD8"/>
<path d="M374.758 226.201C379.163 226.201 382.735 222.632 382.735 218.229C382.735 213.825 379.163 210.256 374.758 210.256C370.353 210.256 366.781 213.825 366.781 218.229C366.781 222.632 370.353 226.201 374.758 226.201Z" fill="#E57BD8"/>
<path d="M383.843 388.049C375.732 387.47 219.201 424.489 141.949 443.07L202.785 472.029C226.54 456.391 369.117 424.489 437.437 410.492L383.843 388.049Z" fill="#FFF2ED"/>
<path d="M205.203 474.876C204.779 474.876 204.359 474.792 203.968 474.629L137.196 446.853C136.569 446.592 136.04 446.14 135.687 445.561C135.333 444.981 135.171 444.305 135.225 443.628C135.279 442.952 135.546 442.31 135.988 441.794C136.429 441.279 137.023 440.916 137.683 440.758C147.203 438.487 370.964 385.118 385.838 385.118C386.264 385.118 386.685 385.202 387.078 385.367L443.43 408.901C444.07 409.168 444.607 409.636 444.96 410.233C445.313 410.83 445.463 411.526 445.388 412.215C445.312 412.905 445.016 413.552 444.543 414.059C444.07 414.567 443.445 414.908 442.762 415.031C441.055 415.339 271.393 446.156 206.495 474.606C206.088 474.784 205.648 474.876 205.203 474.876ZM148.805 444.718L205.176 468.168C261.93 443.757 392.84 417.915 431.008 410.682L385.249 391.571C370.085 392.62 218.192 428.213 148.805 444.718Z" fill="black"/>
<path d="M245.651 460.41C245.204 460.41 244.763 460.317 244.354 460.136L187.269 434.953C186.883 434.783 186.534 434.538 186.242 434.233C185.95 433.928 185.722 433.568 185.569 433.174C185.416 432.781 185.343 432.361 185.352 431.939C185.362 431.517 185.455 431.101 185.625 430.715C185.796 430.329 186.041 429.98 186.346 429.688C186.652 429.397 187.011 429.168 187.405 429.016C187.799 428.863 188.219 428.79 188.641 428.799C189.063 428.809 189.479 428.902 189.866 429.072L246.951 454.255C247.626 454.553 248.178 455.073 248.514 455.73C248.851 456.386 248.951 457.138 248.799 457.86C248.647 458.581 248.251 459.229 247.677 459.693C247.104 460.157 246.388 460.411 245.651 460.41Z" fill="black"/>
<path d="M290.312 447.96C289.869 447.96 289.43 447.868 289.025 447.69L234.62 423.867C233.839 423.525 233.226 422.887 232.916 422.093C232.606 421.299 232.623 420.415 232.965 419.634C233.307 418.853 233.945 418.24 234.739 417.93C235.533 417.619 236.418 417.636 237.2 417.978L291.605 441.8C292.281 442.096 292.835 442.616 293.173 443.272C293.512 443.929 293.614 444.682 293.462 445.404C293.311 446.127 292.915 446.775 292.341 447.241C291.768 447.706 291.051 447.96 290.312 447.96Z" fill="black"/>
<path d="M335.39 437.072C334.902 437.072 334.42 436.96 333.981 436.745L284.047 412.366C283.28 411.992 282.694 411.329 282.417 410.523C282.14 409.717 282.194 408.833 282.568 408.067C282.943 407.301 283.606 406.715 284.413 406.438C285.219 406.161 286.103 406.216 286.87 406.59L336.804 430.969C337.457 431.288 337.983 431.819 338.296 432.475C338.608 433.131 338.689 433.874 338.525 434.582C338.361 435.29 337.962 435.922 337.393 436.374C336.823 436.826 336.117 437.072 335.39 437.072Z" fill="black"/>
<path d="M393.72 424.501C393.135 424.502 392.561 424.342 392.061 424.039L348.518 397.782C347.788 397.342 347.263 396.629 347.059 395.802C346.854 394.975 346.987 394.101 347.427 393.371C347.867 392.641 348.579 392.116 349.407 391.911C350.234 391.706 351.109 391.838 351.839 392.278L395.382 418.534C395.984 418.897 396.451 419.447 396.71 420.1C396.969 420.752 397.008 421.472 396.819 422.149C396.631 422.826 396.226 423.422 395.666 423.847C395.106 424.272 394.423 424.501 393.72 424.501Z" fill="black"/>
<path d="M170.425 460.412C169.65 460.411 168.901 460.131 168.316 459.622C167.731 459.114 167.35 458.412 167.242 457.644C167.134 456.877 167.307 456.097 167.729 455.447C168.151 454.797 168.794 454.322 169.539 454.108C178.516 451.533 389.715 391.134 416.965 397.89C417.375 397.991 417.762 398.172 418.102 398.422C418.443 398.672 418.731 398.987 418.949 399.348C419.168 399.71 419.314 400.111 419.377 400.528C419.441 400.946 419.421 401.372 419.32 401.782C419.219 402.192 419.038 402.578 418.787 402.918C418.536 403.259 418.221 403.546 417.859 403.764C417.497 403.982 417.096 404.127 416.678 404.19C416.26 404.253 415.834 404.233 415.423 404.131C394.146 398.863 231.997 442.885 171.315 460.286C171.025 460.37 170.726 460.412 170.425 460.412Z" fill="black"/>
</svg>