<svg width="349" height="313" viewBox="0 0 349 313" fill="none" xmlns="http://www.w3.org/2000/svg">
<g clip-path="url(#clip0_622_58224)">
<path d="M13.7763 147.224C22.3029 121.231 41.5152 94.121 64.561 82.4621C68.1903 80.6261 75.4298 77.0358 88.7241 70.4739C96.7225 66.5261 107.332 60.8505 122.395 51.6202C163.894 26.1905 162.279 20.913 183.741 12.384C198.727 6.42854 241.14 -10.4268 276.373 9.31867C306.123 25.991 314.684 59.752 319.929 80.4345C334.568 138.166 313.042 187.197 306.852 200.744C301.646 212.133 266.162 286.625 186.195 307.269C172.738 310.743 138.395 319.119 98.4701 305.43C87.2146 301.571 56.2606 290.479 33.2536 259.109C29.6662 254.218 -5.17712 205.003 13.7763 147.224Z" fill="#FFF2ED"/>
<path d="M166.559 292.664L88.2065 250.304L265.784 209.548L238.811 86.3179L153.674 103.42C154.263 106.455 155.066 109.33 155.547 112.098L234.315 96.2664L256.151 204.093L89.1699 240.998L61.8748 130.925L141.459 114.932C141.111 114.104 140.723 113.234 140.308 112.338C139.331 110.239 138.542 108.327 137.926 106.589L51.9202 123.864L48.3076 133.973L75.2814 246.854L84.6742 250.625V261.857L166.559 306.463L337.715 250.625V238.109L166.559 292.664Z" fill="black"/>
<path d="M52.5559 123.702L51.2598 124.036L84.0142 250.796L85.3103 250.462L52.5559 123.702Z" fill="white"/>
<path d="M167.22 292.659H165.882V306.458H167.22V292.659Z" fill="white"/>
<path d="M337.706 240.11C337.452 240.109 337.201 240.061 336.965 239.967L265.034 211.406C264.54 211.209 264.143 210.824 263.933 210.336C263.722 209.848 263.714 209.296 263.91 208.802C264.107 208.308 264.492 207.912 264.98 207.701C265.469 207.49 266.021 207.482 266.516 207.679L338.447 236.24C338.881 236.413 339.241 236.731 339.465 237.14C339.69 237.549 339.764 238.023 339.677 238.481C339.589 238.939 339.344 239.352 338.985 239.65C338.625 239.947 338.173 240.109 337.706 240.11Z" fill="black"/>
<path d="M151.376 272.923C151.112 272.923 150.85 272.871 150.605 272.769L108.941 255.44C108.55 255.277 108.22 254.995 107.999 254.633C107.778 254.272 107.678 253.85 107.711 253.428C107.745 253.006 107.912 252.605 108.187 252.283C108.463 251.962 108.833 251.736 109.245 251.637C115.185 250.22 254.808 216.924 264.089 216.924C264.355 216.924 264.618 216.976 264.862 217.079L300.025 231.76C300.425 231.927 300.76 232.219 300.98 232.591C301.2 232.964 301.294 233.398 301.247 233.828C301.2 234.259 301.015 234.662 300.72 234.979C300.424 235.295 300.035 235.508 299.608 235.585C298.543 235.777 192.678 255.005 152.183 272.754C151.928 272.865 151.654 272.923 151.376 272.923ZM116.185 254.108L151.359 268.738C186.773 253.508 268.458 237.384 292.274 232.871L263.722 220.95C254.259 221.604 159.481 243.81 116.185 254.108Z" fill="black"/>
<path d="M206.771 259.364L224.593 270.917L267.221 255.994L251.085 247.33L206.771 259.364Z" fill="black"/>
<path d="M176.615 263.896C176.336 263.896 176.061 263.837 175.806 263.725L140.186 248.013C139.945 247.907 139.727 247.754 139.545 247.564C139.363 247.373 139.22 247.149 139.125 246.903C139.03 246.658 138.984 246.396 138.99 246.133C138.996 245.869 139.054 245.61 139.16 245.369C139.266 245.128 139.419 244.91 139.61 244.729C139.8 244.547 140.025 244.404 140.271 244.309C140.516 244.214 140.778 244.168 141.042 244.174C141.305 244.18 141.565 244.238 141.806 244.344L177.426 260.055C177.847 260.241 178.192 260.566 178.402 260.976C178.612 261.385 178.674 261.854 178.579 262.304C178.484 262.755 178.237 263.158 177.879 263.448C177.521 263.738 177.075 263.896 176.615 263.896Z" fill="black"/>
<path d="M204.48 256.128C204.204 256.128 203.93 256.071 203.677 255.959L169.729 241.098C169.487 240.993 169.267 240.842 169.083 240.652C168.899 240.462 168.754 240.238 168.657 239.992C168.56 239.746 168.513 239.483 168.518 239.219C168.523 238.955 168.58 238.694 168.686 238.452C168.792 238.21 168.945 237.991 169.136 237.808C169.327 237.626 169.552 237.482 169.799 237.387C170.045 237.291 170.308 237.245 170.573 237.252C170.837 237.258 171.097 237.316 171.339 237.424L205.287 252.285C205.709 252.47 206.055 252.794 206.266 253.203C206.477 253.613 206.54 254.083 206.446 254.534C206.351 254.985 206.104 255.389 205.746 255.679C205.388 255.97 204.941 256.128 204.48 256.128Z" fill="black"/>
<path d="M232.609 249.335C232.304 249.335 232.004 249.266 231.73 249.132L200.573 233.922C200.095 233.688 199.729 233.275 199.556 232.772C199.383 232.269 199.417 231.718 199.651 231.24C199.884 230.762 200.298 230.396 200.802 230.223C201.305 230.05 201.856 230.084 202.335 230.318L233.491 245.528C233.899 245.727 234.227 246.058 234.422 246.468C234.617 246.877 234.668 247.34 234.566 247.782C234.463 248.224 234.214 248.618 233.859 248.9C233.504 249.182 233.063 249.336 232.609 249.335Z" fill="black"/>
<path d="M269.006 241.493C268.641 241.493 268.283 241.393 267.971 241.204L240.799 224.823C240.344 224.548 240.016 224.104 239.888 223.588C239.76 223.071 239.843 222.526 240.117 222.07C240.392 221.615 240.837 221.287 241.353 221.159C241.87 221.032 242.416 221.114 242.872 221.389L270.043 237.77C270.419 237.996 270.71 238.339 270.871 238.746C271.033 239.154 271.057 239.603 270.94 240.025C270.822 240.447 270.569 240.819 270.22 241.084C269.871 241.349 269.444 241.493 269.006 241.493Z" fill="black"/>
<path d="M129.675 263.896C129.192 263.896 128.724 263.721 128.359 263.403C127.995 263.086 127.757 262.648 127.689 262.169C127.622 261.691 127.73 261.204 127.993 260.799C128.257 260.393 128.658 260.096 129.122 259.963C134.723 258.355 266.475 220.687 283.511 224.891C284.026 225.02 284.468 225.349 284.741 225.803C285.014 226.258 285.096 226.802 284.968 227.317C284.841 227.832 284.514 228.275 284.061 228.55C283.607 228.825 283.063 228.909 282.547 228.784C269.266 225.508 168.095 252.961 130.23 263.818C130.05 263.87 129.863 263.896 129.675 263.896Z" fill="black"/>
<path d="M121.678 96.6902C121.304 96.6897 120.937 96.5846 120.619 96.3869C120.301 96.1892 120.045 95.9067 119.879 95.5711L109.563 74.6575C109.37 74.2663 109.31 73.8229 109.392 73.3945C109.474 72.9661 109.693 72.5759 110.017 72.2833C110.341 71.9906 110.751 71.8116 111.186 71.773C111.62 71.7344 112.056 71.8384 112.426 72.0694L123.585 79.0228C123.891 79.2138 124.141 79.4841 124.306 79.805C124.472 80.1258 124.548 80.4853 124.526 80.8457L123.683 94.8046C123.656 95.2464 123.484 95.6671 123.193 96.0011C122.903 96.335 122.51 96.5634 122.076 96.651C121.945 96.677 121.812 96.6901 121.678 96.6902ZM116.278 79.1965L120.133 87.0116L120.448 81.795L116.278 79.1965Z" fill="black"/>
<path d="M179.19 92.9569C179.036 92.9567 178.882 92.9392 178.732 92.9047C178.213 92.7834 177.764 92.4613 177.484 92.0092C177.203 91.5572 177.113 91.0123 177.234 90.4942L179.402 81.227C179.462 80.9699 179.571 80.727 179.725 80.5124C179.878 80.2977 180.073 80.1158 180.297 79.9763C180.521 79.8369 180.771 79.7431 181.031 79.7002C181.292 79.6572 181.558 79.6658 181.815 79.726C182.072 79.7861 182.315 79.8965 182.529 80.0504C182.744 80.2044 182.926 80.399 183.065 80.6234C183.204 80.8477 183.297 81.0971 183.339 81.3575C183.382 81.618 183.372 81.8842 183.311 82.141L181.144 91.4082C181.04 91.8486 180.791 92.241 180.437 92.5221C180.082 92.8032 179.643 92.9565 179.19 92.9569Z" fill="black"/>
<path d="M271.026 130.036C270.605 130.037 270.194 129.905 269.852 129.659C269.511 129.413 269.255 129.066 269.121 128.667C268.988 128.267 268.983 127.836 269.108 127.434C269.234 127.032 269.482 126.68 269.819 126.427L280.931 118.083C281.356 117.765 281.891 117.629 282.417 117.704C282.943 117.779 283.418 118.06 283.737 118.484C284.057 118.909 284.195 119.443 284.121 119.969C284.047 120.495 283.767 120.97 283.343 121.29L272.231 129.634C271.884 129.896 271.461 130.037 271.026 130.036Z" fill="black"/>
<path d="M296.038 145.016C295.547 145.016 295.073 144.836 294.705 144.509C294.338 144.183 294.104 143.733 294.046 143.245C293.989 142.757 294.112 142.265 294.393 141.863C294.675 141.46 295.094 141.174 295.572 141.06C297.396 140.682 299.16 140.06 300.818 139.212C301.114 138.791 301.56 138.499 302.065 138.397C302.57 138.296 303.095 138.392 303.531 138.666C303.967 138.941 304.281 139.372 304.407 139.871C304.534 140.37 304.464 140.898 304.211 141.347C303.447 142.705 300.855 143.921 296.507 144.962C296.354 144.998 296.196 145.017 296.038 145.016ZM300.714 139.378L300.712 139.381L300.714 139.378Z" fill="black"/>
<path d="M264.478 167.291C264.165 167.294 263.855 167.227 263.57 167.095C263.285 166.975 263.031 166.791 262.828 166.556C262.626 166.322 262.481 166.044 262.404 165.744C262.327 165.444 262.32 165.13 262.385 164.828C262.449 164.525 262.583 164.241 262.776 163.999C272.76 151.428 274.32 151.267 275.159 151.182C275.45 151.148 275.745 151.173 276.026 151.258C276.307 151.342 276.568 151.483 276.792 151.672C278.31 153.347 279.658 155.169 280.814 157.111C280.959 157.339 281.056 157.594 281.099 157.86C281.143 158.126 281.133 158.399 281.069 158.661C281.005 158.923 280.888 159.17 280.727 159.386C280.565 159.602 280.361 159.784 280.128 159.92C269.348 166.187 265.909 167.291 264.478 167.291ZM275.103 155.836C274.114 156.793 272.606 158.464 270.935 160.412C272.631 159.528 274.479 158.52 276.273 157.505C275.859 156.893 275.452 156.312 275.103 155.836Z" fill="black"/>
<path d="M143.677 133.995C143.308 133.996 142.947 133.895 142.632 133.704C142.317 133.512 142.061 133.238 141.892 132.911C141.723 132.584 141.647 132.217 141.673 131.849C141.699 131.482 141.826 131.129 142.039 130.829C142.165 130.608 144.522 126.149 138.484 113.181C131.166 97.4594 134.031 91.8927 138.37 83.4665L138.519 83.1766C142.366 75.7009 143.176 69.0688 134.625 61.0029C128.695 55.4089 126.633 43.688 129.931 34.319C132.641 26.6226 138.321 22.0497 145.923 21.4425C159.036 20.3835 164.807 25.672 167.082 28.9117C168.439 30.7987 169.273 33.0101 169.502 35.3225C169.73 37.6348 169.344 39.9663 168.382 42.0819C167.439 44.0759 166.391 46.019 165.244 47.9031C161.927 53.5546 160.336 56.6807 163.316 60.4714C164.313 61.7393 165.338 62.8388 166.33 63.9017C170.398 68.2631 174.24 72.3829 167.439 81.4477C165.263 84.3107 162.621 86.7882 159.624 88.7771C156.046 91.3326 154.413 92.4973 155.066 99.2901C155.372 101.882 155.85 104.451 156.498 106.979C158.579 115.891 160.731 125.107 144.625 133.757C144.334 133.913 144.008 133.995 143.677 133.995ZM149.073 25.326C148.156 25.326 147.212 25.3643 146.243 25.4409C138.647 26.0481 135.24 31.3274 133.717 35.6496C130.951 43.5066 132.595 53.5716 137.38 58.0857C148.392 68.4746 145.94 77.5264 142.089 85.0112L141.94 85.3024C137.741 93.4558 135.634 97.5481 142.124 111.489C145.728 119.231 146.644 124.488 146.596 127.895C155.794 121.613 154.417 115.72 152.589 107.89C151.898 105.189 151.391 102.444 151.071 99.674C150.197 90.5791 153.484 88.2313 157.29 85.5139C159.951 83.7613 162.296 81.5725 164.227 79.0398C169.013 72.6623 167.368 70.8982 163.394 66.6361C162.394 65.5653 161.261 64.3509 160.16 62.9498C155.35 56.8322 158.619 51.2617 161.781 45.8739C162.858 44.109 163.842 42.2893 164.729 40.4223C165.397 38.9413 165.662 37.3105 165.499 35.6943C165.335 34.0781 164.748 32.5337 163.797 31.2164C161.124 27.4126 155.843 25.326 149.073 25.326Z" fill="black"/>
<path d="M75.1888 268.713C75.4759 260.324 73.0981 252.558 69.4695 245.087C68.6744 243.692 67.9575 242.254 67.3223 240.78C65.1593 234.658 59.8811 232.215 54.5183 229.993C52.98 229.567 51.3647 229.496 49.7949 229.786C41.8076 230.498 35.2945 227.27 29.6359 222.095C29.0604 221.512 28.621 220.809 28.3489 220.037C28.0769 219.264 27.979 218.442 28.0622 217.627C28.2528 216.763 30.6631 215.898 32.0865 215.884C37.3318 215.836 41.7137 218.502 45.8966 221.24C48.3724 222.86 50.266 225.345 52.65 227.137C54.9869 228.894 57.6136 230.266 60.113 231.807L60.7413 231.134C59.3222 229.149 57.8364 227.209 56.493 225.174C51.468 217.564 46.4689 209.937 41.4954 202.294C40.3917 200.375 38.791 198.788 36.8617 197.701C34.9324 196.614 32.7456 196.067 30.5313 196.117C22.8502 196.087 15.4969 194.562 9.68069 189.034L9.61871 188.974C9.14839 188.492 8.82949 187.884 8.70137 187.223C8.57325 186.563 8.64153 185.879 8.89777 185.257C9.15402 184.634 9.58697 184.101 10.1432 183.722C10.6995 183.343 11.3547 183.135 12.0279 183.124C12.1432 183.126 12.2583 183.134 12.3726 183.149C20.9755 184.293 27.8129 189.014 34.1594 194.577C34.7609 195.104 35.3483 195.654 35.9927 196.124C36.6273 196.587 37.3263 196.962 38.5261 197.702C38.4069 196.916 38.238 196.139 38.0207 195.375C34.9256 187.325 32.0955 179.155 28.5815 171.29C26.6758 167.025 23.986 163.096 18.3865 162.345C12.8133 161.596 7.25518 160.251 3.27151 155.717C1.98804 154.462 0.981345 152.952 0.315991 151.285C-0.135874 149.744 -0.180434 147.424 0.698344 146.336C1.33 145.751 2.08519 145.316 2.90802 145.062C3.73085 144.808 4.60031 144.743 5.45195 144.87C11.8199 146.127 16.0233 150.335 18.7636 156.007C20.6232 159.856 22.7732 163.381 26.9071 165.932C26.8293 164.967 26.8205 164.263 26.7096 163.574C25.4921 156.016 22.8333 148.894 20.2062 141.749C19.1574 139.01 18.8385 136.045 19.2807 133.146C19.7229 130.246 20.911 127.511 22.7288 125.208C23.9238 123.84 25.5838 122.963 27.3882 122.747C29.7414 122.466 30.6128 124.649 30.8265 126.568C31.2337 129.033 31.2372 131.547 30.8367 134.013C29.4067 140.356 27.5419 146.601 25.8673 152.89C25.6538 153.445 25.5749 154.042 25.6373 154.634C27.6264 162.47 29.6696 170.293 32.2987 178.074C33.336 173.951 36.346 170.803 35.3631 165.988C33.6915 157.8 37.0338 150.827 43.0532 145.234C43.2151 145.086 43.3948 144.959 43.5882 144.855C44.0428 144.623 44.5462 144.502 45.0567 144.502C45.5673 144.503 46.0704 144.625 46.5245 144.858C46.9786 145.091 47.3707 145.429 47.6685 145.843C47.9663 146.258 48.1611 146.737 48.2371 147.241C48.2903 147.555 48.285 147.875 48.2215 148.186C46.5462 155.953 42.8578 163.144 37.526 169.038C35.8338 170.85 34.6182 173.053 33.9882 175.45C33.3581 177.847 33.3334 180.363 33.9161 182.771C36.5622 191.852 40.7019 200.429 46.1656 208.151C46.3104 208.365 46.6053 208.477 47.685 208.466C47.2647 204.394 46.6111 200.35 45.7273 196.353C44.4842 192.424 44.2041 188.254 44.9105 184.194C45.1264 183.215 45.4644 182.266 45.9167 181.371C47.2766 178.587 50.7549 176.341 52.7916 176.853C54.8179 177.361 56.2744 180.55 55.8536 184.045C55.1106 190.215 53.4658 196.033 48.8266 200.578C48.3995 200.995 48.1377 201.552 48.0897 202.146C48.1118 206.841 48.1482 211.333 51.2777 215.533C57.8612 224.369 63.9321 233.587 70.2183 242.645C70.8216 243.514 71.4596 244.359 72.4264 245.69C72.9079 242.063 72.4091 238.372 70.9819 235.002C69.822 231.809 68.9268 228.525 68.3054 225.185C68.1049 223.895 68.1397 222.579 68.4082 221.301C68.8927 218.181 71.0411 215.371 72.9786 215.665C75.9262 216.114 76.6349 218.627 77.3197 221.125C77.9765 223.514 78.1327 226.013 77.7787 228.465C77.4247 230.918 76.568 233.271 75.2623 235.377C74.0395 237.519 73.3316 239.915 73.1943 242.377C73.0571 244.838 73.4943 247.298 74.4715 249.562C79.367 262.587 79.4346 275.787 77.0791 289.045C75.9369 295.475 76.3916 298.481 73.8673 297.733C72.0808 297.204 73.2415 294.678 73.9694 290.036C74.6092 286.019 74.9765 281.964 75.0686 277.898C75.1164 275.347 74.7032 272.809 73.8488 270.406C72.6319 267.047 69.9664 265.901 66.2348 265.378C59.2818 264.404 54.2899 260.011 51.21 253.711C50.9571 253.183 50.864 252.594 50.9423 252.014C51.0205 251.435 51.2666 250.891 51.6502 250.45C52.0338 250.008 52.5383 249.689 53.1014 249.53C53.6645 249.372 54.2617 249.381 54.8195 249.557C57.1623 250.1 59.3391 251.201 61.1643 252.766C64.2337 256.022 67.1192 259.447 69.8074 263.024C71.3728 264.965 72.819 267.001 74.3148 268.998L75.1888 268.713Z" fill="#E57BD8"/>
<path d="M269.016 75.4144V53.123L249.69 55.4456L252.502 75.4144H269.016Z" fill="#A876F5"/>
<path d="M269.015 77.4191H230.365C229.833 77.419 229.323 77.2076 228.946 76.8315C228.57 76.4554 228.359 75.9453 228.358 75.4134V36.788C228.358 36.309 228.53 35.8458 228.842 35.4822C229.154 35.1187 229.586 34.8787 230.06 34.8058L268.71 28.8501C268.996 28.806 269.288 28.8243 269.566 28.9036C269.845 28.983 270.103 29.1214 270.322 29.3097C270.542 29.498 270.718 29.7315 270.839 29.9943C270.96 30.2571 271.023 30.5431 271.022 30.8323V75.4134C271.022 75.9453 270.811 76.4554 270.435 76.8315C270.058 77.2076 269.548 77.419 269.015 77.4191ZM232.372 73.4077H267.009V33.171L232.372 38.5078V73.4077Z" fill="black"/>
<path d="M293.777 96.0766H255.126C254.643 96.0766 254.175 95.9018 253.81 95.5846C253.445 95.2674 253.207 94.8291 253.139 94.3503L247.702 55.7249C247.629 55.2027 247.764 54.6727 248.079 54.2494C248.393 53.8261 248.862 53.5436 249.384 53.4633L288.034 47.5076C288.3 47.4669 288.571 47.4798 288.832 47.5458C289.092 47.6117 289.337 47.7293 289.551 47.8915C289.765 48.0536 289.945 48.2574 290.079 48.4902C290.213 48.723 290.299 48.9802 290.332 49.2469L295.769 93.828C295.803 94.1098 295.777 94.3956 295.693 94.6667C295.608 94.9377 295.467 95.1877 295.279 95.4002C295.091 95.6127 294.859 95.7831 294.6 95.8996C294.341 96.0162 294.061 96.0765 293.777 96.0766H293.777ZM256.871 92.0652H291.51L286.598 51.788L251.953 57.126L256.871 92.0652Z" fill="black"/>
<path d="M269.015 77.4192H252.501C252.017 77.4191 251.55 77.2444 251.184 76.9272C250.819 76.61 250.581 76.1717 250.513 75.6929L247.703 55.7247C247.666 55.4605 247.682 55.1916 247.75 54.9337C247.819 54.6758 247.938 54.4341 248.1 54.2227C248.263 54.0113 248.466 53.8344 248.698 53.7023C248.93 53.5703 249.186 53.486 249.451 53.4539L268.776 51.1309C269.058 51.0972 269.344 51.1236 269.614 51.2083C269.885 51.293 270.135 51.4341 270.347 51.6222C270.559 51.8104 270.729 52.0414 270.846 52.2999C270.962 52.5585 271.022 52.8387 271.022 53.1223V75.4135C271.022 75.9454 270.811 76.4555 270.434 76.8316C270.058 77.2077 269.548 77.419 269.015 77.4192ZM254.245 73.4078H267.008V55.3839L251.963 57.1924L254.245 73.4078Z" fill="black"/>
<path d="M186.945 154.145C187.029 153.934 187.097 153.718 187.15 153.498C180.839 152.318 175.218 153.997 173.36 158.101C172.883 159.301 172.685 160.595 172.781 161.883C172.877 163.171 173.265 164.42 173.915 165.537C177.494 162.178 184.785 161.803 191.816 164.983C194.217 166.054 196.428 167.506 198.365 169.282L202.682 163.581C202.299 162.934 201.87 162.316 201.4 161.729L186.945 154.145Z" fill="#FE897B"/>
<path d="M176.718 189.67C153.705 178.057 140.536 157.785 147.304 144.391L142.873 151.374C142.248 152.179 141.701 153.041 141.239 153.95C134.471 167.343 147.64 187.616 170.652 199.229C193.665 210.842 217.807 209.398 224.574 196.004L229.006 189.021C220.567 199.97 198.156 200.489 176.718 189.67Z" fill="#FE897B"/>
<path d="M200.795 209.008C189.969 208.766 179.344 206.032 169.748 201.018C158.306 195.245 148.841 187.193 143.094 178.348C137.133 169.172 135.838 160.187 139.447 153.045C139.952 152.053 140.547 151.108 141.226 150.225L145.609 143.316C145.885 142.881 146.318 142.569 146.818 142.444C147.318 142.32 147.847 142.392 148.295 142.646C148.743 142.901 149.076 143.317 149.225 143.81C149.374 144.303 149.328 144.835 149.095 145.294C146.157 151.109 147.376 158.677 152.527 166.606C157.892 174.865 166.804 182.419 177.622 187.879C197.701 198.01 219.571 197.973 227.415 187.797C227.73 187.388 228.191 187.116 228.701 187.038C229.212 186.959 229.733 187.081 230.156 187.377C230.579 187.673 230.872 188.121 230.973 188.627C231.075 189.133 230.977 189.659 230.7 190.095L226.32 196.997C222.258 204.925 212.64 209.008 200.795 209.008ZM143.579 153.873C143.379 154.198 143.196 154.525 143.03 154.853C140.092 160.667 141.311 168.236 146.461 176.165C151.826 184.424 160.739 191.978 171.556 197.437C192.487 208 214.32 207.557 221.769 196.803C210.265 201.669 192.618 199.939 175.813 191.459C164.371 185.686 154.906 177.635 149.16 168.789C146.093 164.355 144.176 159.23 143.579 153.873Z" fill="black"/>
<path d="M230.666 188.451C230.134 188.453 229.622 188.243 229.245 187.868C228.867 187.493 228.654 186.984 228.652 186.452C228.651 185.92 228.86 185.409 229.236 185.032C229.611 184.654 230.121 184.441 230.653 184.439H230.666C231.198 184.439 231.709 184.651 232.085 185.027C232.461 185.403 232.673 185.913 232.673 186.445C232.673 186.977 232.461 187.487 232.085 187.863C231.709 188.239 231.198 188.451 230.666 188.451Z" fill="black"/>
<path d="M174.978 157.868C174.563 157.868 174.159 157.739 173.82 157.5L150.27 140.839C150.054 140.687 149.87 140.494 149.729 140.272C149.588 140.049 149.492 139.8 149.447 139.54C149.402 139.28 149.409 139.014 149.467 138.757C149.526 138.5 149.634 138.256 149.786 138.041C149.939 137.826 150.132 137.642 150.356 137.502C150.579 137.361 150.828 137.266 151.088 137.222C151.348 137.178 151.615 137.185 151.872 137.244C152.129 137.302 152.372 137.411 152.587 137.564L176.138 154.225C176.486 154.471 176.747 154.821 176.882 155.225C177.018 155.629 177.021 156.065 176.892 156.471C176.762 156.876 176.507 157.231 176.163 157.482C175.819 157.733 175.404 157.868 174.978 157.868Z" fill="black"/>
<path d="M154.916 190.725C154.55 190.725 154.19 190.625 153.876 190.435C153.563 190.244 153.307 189.972 153.138 189.647C152.968 189.322 152.891 188.957 152.914 188.591C152.938 188.225 153.061 187.873 153.271 187.572L159.713 178.341C159.896 178.08 160.139 177.865 160.421 177.716L177.094 168.911C177.564 168.664 178.114 168.613 178.622 168.77C179.129 168.927 179.554 169.279 179.803 169.748C180.051 170.218 180.103 170.767 179.947 171.275C179.791 171.783 179.44 172.208 178.97 172.457L162.728 181.035L156.564 189.868C156.379 190.133 156.133 190.349 155.846 190.499C155.559 190.648 155.24 190.726 154.916 190.725Z" fill="black"/>
<path d="M197.671 208.974C197.294 208.974 196.924 208.868 196.605 208.667C196.285 208.467 196.029 208.181 195.865 207.841C195.701 207.502 195.636 207.123 195.677 206.748C195.718 206.374 195.865 206.018 196.099 205.723L202.893 197.156L194.761 177.289C194.559 176.797 194.562 176.244 194.767 175.754C194.973 175.263 195.366 174.874 195.859 174.672C196.351 174.471 196.904 174.473 197.395 174.679C197.886 174.885 198.275 175.277 198.477 175.769L207.054 196.722C207.188 197.052 207.233 197.411 207.183 197.763C207.133 198.116 206.99 198.449 206.769 198.728L199.245 208.214C199.057 208.452 198.818 208.644 198.546 208.775C198.273 208.907 197.974 208.975 197.671 208.974Z" fill="black"/>
<path d="M206.86 199.447C196.034 199.206 185.41 196.473 175.815 191.459C151.85 179.366 138.256 157.846 145.51 143.489C151.682 131.274 170.758 127.806 191.902 135.059C192.376 135.222 192.772 135.556 193.012 135.997C193.252 136.437 193.318 136.951 193.198 137.438L189.096 153.977C188.975 154.475 188.666 154.906 188.235 155.184C187.804 155.461 187.283 155.562 186.78 155.467C181.25 154.431 176.595 155.825 175.19 158.93C174.316 160.856 174.743 163.304 176.392 165.823C178.551 168.89 181.524 171.292 184.977 172.76C191.744 175.824 198.973 175.35 201.438 171.682C201.709 171.279 202.118 170.988 202.589 170.863C203.059 170.739 203.559 170.789 203.995 171.005L231.433 184.601C231.469 184.616 231.506 184.633 231.542 184.651C232.017 184.89 232.378 185.307 232.546 185.811C232.714 186.315 232.674 186.865 232.436 187.34L232.43 187.353C228.393 195.334 218.747 199.447 206.86 199.447ZM171.03 135.35C160.611 135.35 152.372 138.809 149.093 145.297C142.837 157.68 155.635 176.783 177.623 187.878C198.533 198.43 220.335 197.997 227.808 187.281L203.625 175.298C199.469 179.409 191.157 179.962 183.321 176.414C179.175 174.631 175.61 171.723 173.033 168.02C170.606 164.311 170.073 160.496 171.533 157.275C173.559 152.795 178.988 150.531 185.639 151.245L188.853 138.28C183.094 136.41 177.085 135.422 171.03 135.35Z" fill="black"/>
<path d="M228.088 177.738C227.763 177.738 227.443 177.659 227.155 177.508L186.012 155.921C185.564 155.686 185.222 155.291 185.053 154.814C184.885 154.338 184.902 153.815 185.103 153.351C185.269 152.935 186.666 148.965 181.596 145.062C181.226 144.777 180.967 144.372 180.864 143.917C180.761 143.462 180.82 142.985 181.03 142.568L197.87 109.281C197.988 109.046 198.152 108.836 198.352 108.665C198.551 108.493 198.783 108.362 199.033 108.28C199.283 108.197 199.547 108.165 199.809 108.185C200.072 108.204 200.328 108.275 200.563 108.394C202.468 109.351 247.087 132.199 235.75 162.983L229.932 176.524C229.777 176.884 229.52 177.192 229.193 177.408C228.865 177.623 228.481 177.738 228.088 177.738ZM189.275 153.102L227.101 172.949L232.024 161.499C240.901 137.383 208.556 117.441 200.521 112.932L185.328 142.965C186.797 144.177 187.93 145.745 188.621 147.52C189.312 149.294 189.537 151.216 189.275 153.102Z" fill="black"/>
<path d="M198.365 171.288C197.858 171.287 197.37 171.096 196.999 170.751C195.218 169.125 193.189 167.794 190.988 166.809C184.932 164.072 178.328 164.149 175.288 166.999C175.06 167.213 174.786 167.371 174.487 167.46C174.187 167.549 173.871 167.567 173.564 167.513C173.257 167.458 172.966 167.333 172.716 167.147C172.465 166.96 172.262 166.718 172.122 166.439C171.337 165.055 170.877 163.511 170.775 161.924C170.673 160.337 170.932 158.747 171.532 157.274C173.747 152.381 180.023 150.127 187.519 151.526C187.896 151.597 188.245 151.774 188.525 152.037C188.805 152.3 189.003 152.637 189.097 153.009L202.333 159.953C202.58 160.083 202.798 160.263 202.971 160.481C203.499 161.141 203.981 161.837 204.412 162.564C204.614 162.906 204.709 163.301 204.686 163.697C204.663 164.094 204.523 164.474 204.283 164.791L199.966 170.492C199.796 170.716 199.582 170.901 199.336 171.037C199.09 171.173 198.819 171.255 198.539 171.28C198.482 171.285 198.423 171.288 198.365 171.288ZM182.226 160.771C185.828 160.824 189.378 161.636 192.644 163.155C194.563 164.016 196.376 165.099 198.044 166.382L200.227 163.499C200.18 163.433 200.131 163.368 200.082 163.303L186.012 155.921C185.71 155.763 185.453 155.529 185.266 155.243C180.411 154.716 176.462 156.113 175.188 158.927C174.717 160.026 174.616 161.247 174.899 162.408C177.174 161.28 179.687 160.718 182.226 160.771Z" fill="black"/>
<path d="M192.437 141.687C194.865 136.082 188.503 132.243 188.503 132.243L182.821 143.473C189.373 148.518 186.946 154.145 186.946 154.145C186.946 154.145 190.01 147.292 192.437 141.687Z" fill="#FE897B"/>
<path d="M186.944 156.151C186.667 156.151 186.392 156.094 186.139 155.981C185.653 155.769 185.272 155.373 185.078 154.88C184.883 154.387 184.893 153.838 185.103 153.351C185.269 152.935 186.666 148.965 181.596 145.062C181.226 144.777 180.967 144.372 180.864 143.917C180.761 143.461 180.82 142.985 181.03 142.568L186.711 131.338C186.836 131.092 187.01 130.874 187.223 130.698C187.436 130.522 187.683 130.392 187.949 130.316C188.214 130.24 188.492 130.219 188.766 130.255C189.04 130.291 189.304 130.384 189.54 130.526C192.259 132.167 196.75 136.778 194.279 142.483C191.846 148.098 188.777 154.964 188.777 154.964C188.619 155.318 188.362 155.618 188.036 155.828C187.711 156.039 187.332 156.151 186.944 156.151ZM185.328 142.965C186.454 143.987 187.401 145.191 188.129 146.526C188.933 144.704 189.798 142.73 190.595 140.89C190.958 139.935 191.017 138.891 190.763 137.901C190.508 136.911 189.953 136.025 189.174 135.363L185.328 142.965Z" fill="black"/>
<path d="M233.867 164.296C233.557 164.297 233.251 164.225 232.974 164.086L191.544 143.482C191.067 143.245 190.704 142.829 190.535 142.324C190.366 141.82 190.404 141.27 190.641 140.793C190.878 140.317 191.294 139.955 191.799 139.785C192.303 139.616 192.855 139.654 193.331 139.891L234.762 160.495C235.167 160.697 235.492 161.029 235.684 161.438C235.877 161.848 235.925 162.31 235.821 162.75C235.717 163.19 235.468 163.583 235.113 163.863C234.758 164.144 234.319 164.297 233.867 164.296Z" fill="black"/>
<path d="M80.6838 149.538C80.1873 149.538 79.7086 149.353 79.3402 149.02C78.9719 148.688 78.7399 148.231 78.6892 147.737C78.6385 147.243 78.7727 146.749 79.0658 146.348C79.3588 145.948 79.7901 145.67 80.2761 145.568L120.255 137.237C120.776 137.13 121.318 137.233 121.763 137.524C122.208 137.816 122.519 138.272 122.627 138.792C122.736 139.312 122.634 139.855 122.343 140.3C122.052 140.745 121.596 141.056 121.076 141.165L81.0967 149.496C80.9608 149.524 80.8225 149.538 80.6838 149.538Z" fill="black"/>
<path d="M84.6623 167.377C84.1658 167.377 83.6871 167.192 83.3187 166.859C82.9504 166.527 82.7184 166.07 82.6677 165.576C82.617 165.083 82.7512 164.588 83.0443 164.187C83.3374 163.787 83.7686 163.509 84.2546 163.408L124.234 155.077C124.755 154.968 125.297 155.071 125.742 155.363C126.187 155.654 126.498 156.11 126.607 156.631C126.716 157.151 126.613 157.694 126.322 158.139C126.031 158.584 125.575 158.895 125.054 159.004L85.0752 167.335C84.9393 167.363 84.801 167.377 84.6623 167.377Z" fill="black"/>
<path d="M89.7195 185.432C89.223 185.431 88.7443 185.247 88.376 184.914C88.0076 184.582 87.7758 184.124 87.7253 183.63C87.6747 183.137 87.8091 182.642 88.1024 182.241C88.3957 181.841 88.827 181.564 89.3132 181.462L129.293 173.133C129.552 173.079 129.818 173.076 130.077 173.125C130.336 173.174 130.583 173.274 130.804 173.418C131.025 173.562 131.215 173.749 131.363 173.967C131.512 174.184 131.616 174.43 131.67 174.688C131.723 174.946 131.726 175.212 131.676 175.471C131.627 175.73 131.527 175.976 131.383 176.197C131.238 176.417 131.051 176.607 130.833 176.755C130.615 176.903 130.37 177.007 130.111 177.061L90.1311 185.39C89.9957 185.418 89.8578 185.432 89.7195 185.432Z" fill="black"/>
<path d="M95.2869 203.686C94.7904 203.685 94.3117 203.501 93.9434 203.168C93.575 202.835 93.3432 202.378 93.2927 201.884C93.2421 201.39 93.3765 200.895 93.6698 200.495C93.9631 200.095 94.3944 199.817 94.8805 199.716L134.859 191.386C135.38 191.279 135.923 191.382 136.368 191.674C136.812 191.965 137.123 192.421 137.232 192.942C137.34 193.462 137.237 194.005 136.946 194.449C136.654 194.894 136.198 195.205 135.677 195.314L95.6985 203.644C95.5631 203.672 95.4252 203.686 95.2869 203.686Z" fill="black"/>
<path d="M100.674 220.619C100.177 220.619 99.6984 220.434 99.3301 220.102C98.9617 219.769 98.7299 219.311 98.6794 218.818C98.6288 218.324 98.7631 217.829 99.0564 217.429C99.3497 217.028 99.7811 216.751 100.267 216.65L140.246 208.32C140.767 208.212 141.31 208.316 141.754 208.607C142.199 208.899 142.51 209.355 142.618 209.876C142.727 210.396 142.624 210.938 142.332 211.383C142.041 211.828 141.585 212.139 141.064 212.248L101.085 220.577C100.95 220.606 100.812 220.62 100.674 220.619Z" fill="black"/>
</g>
<defs>
<clipPath id="clip0_622_58224">
<rect width="349" height="313" fill="white"/>
</clipPath>
</defs>
</svg>