<svg width="246" height="232" viewBox="0 0 246 232" fill="none" xmlns="http://www.w3.org/2000/svg">
<path d="M0.294248 143.923C-0.216155 130.15 -0.680735 117.611 4.5696 103.504C9.66228 89.8198 17.8286 80.849 29.0543 70.0797C64.2197 36.3444 81.8022 19.4767 108.727 10.228C118.869 6.74414 147.324 -2.63179 181.404 5.17545C194.856 8.25703 221.571 14.3771 231.929 35.8788C235.994 44.3185 235.8 51.5183 235.426 65.416C234.93 83.875 231.068 92.942 220.658 129.543C210.678 164.63 211.56 165.675 207.055 173.849C198.572 189.027 186.578 201.953 172.077 211.548C167.253 214.743 124.033 242.734 99.3995 227.482C93.4321 223.787 89.7622 218.302 72.9715 206.884C69.1586 204.291 65.3624 201.709 60.146 198.722C39.3715 186.825 31.3173 188.678 17.0061 177.735C8.84719 171.497 5.94513 166.674 4.9581 164.91C1.93141 159.501 0.660873 153.816 0.294248 143.923Z" fill="white"/>
<path d="M239.702 73.9682L173.891 166.985L62.9966 182.012L10.6587 122.938L13.1201 111.667L66.3649 175.405L169.357 164.135L85.4086 107.478L172.336 161.025L231.67 74.2273L112.225 19.687L239.702 73.9682Z" fill="black"/>
<path d="M131.139 19.685C133.357 19.685 135.155 17.8869 135.155 15.6689C135.155 13.4509 133.357 11.6529 131.139 11.6529C128.921 11.6529 127.123 13.4509 127.123 15.6689C127.123 17.8869 128.921 19.685 131.139 19.685Z" fill="#E57BD8"/>
<path d="M142.539 19.685C144.757 19.685 146.555 17.8869 146.555 15.6689C146.555 13.4509 144.757 11.6529 142.539 11.6529C140.321 11.6529 138.523 13.4509 138.523 15.6689C138.523 17.8869 140.321 19.685 142.539 19.685Z" fill="#E57BD8"/>
<path d="M153.94 19.685C156.158 19.685 157.956 17.8869 157.956 15.6689C157.956 13.4509 156.158 11.6529 153.94 11.6529C151.722 11.6529 149.924 13.4509 149.924 15.6689C149.924 17.8869 151.722 19.685 153.94 19.685Z" fill="#E57BD8"/>
<path d="M84.3969 208.431C86.6149 208.431 88.4129 206.633 88.4129 204.415C88.4129 202.197 86.6149 200.399 84.3969 200.399C82.1789 200.399 80.3809 202.197 80.3809 204.415C80.3809 206.633 82.1789 208.431 84.3969 208.431Z" fill="#E57BD8"/>
<path d="M95.7968 208.431C98.0148 208.431 99.8128 206.633 99.8128 204.415C99.8128 202.197 98.0148 200.399 95.7968 200.399C93.5788 200.399 91.7808 202.197 91.7808 204.415C91.7808 206.633 93.5788 208.431 95.7968 208.431Z" fill="#E57BD8"/>
<path d="M107.197 208.431C109.415 208.431 111.213 206.633 111.213 204.415C111.213 202.197 109.415 200.399 107.197 200.399C104.979 200.399 103.181 202.197 103.181 204.415C103.181 206.633 104.979 208.431 107.197 208.431Z" fill="#E57BD8"/>
<path d="M66.3651 176.483C66.2069 176.483 66.0507 176.448 65.9075 176.381C65.7643 176.314 65.6376 176.217 65.5364 176.095L12.2913 112.357C12.163 112.203 12.0798 112.017 12.0512 111.819C12.0225 111.621 12.0494 111.419 12.1289 111.236C12.2084 111.052 12.3373 110.895 12.5014 110.78C12.6654 110.666 12.8581 110.599 13.0577 110.588L85.3462 106.399C85.5824 106.384 85.8168 106.448 86.0125 106.581L169.96 163.237C170.144 163.361 170.284 163.538 170.364 163.744C170.443 163.951 170.457 164.177 170.404 164.391C170.351 164.606 170.233 164.799 170.067 164.945C169.9 165.09 169.693 165.181 169.473 165.205L66.4821 176.477C66.4432 176.481 66.4042 176.483 66.3651 176.483ZM15.3234 112.619L66.8226 174.267L166.311 163.379L85.1069 108.575L15.3234 112.619Z" fill="black"/>
<path d="M62.9967 183.09C62.844 183.091 62.6929 183.058 62.5537 182.995C62.4144 182.933 62.2903 182.841 62.1891 182.727L9.85071 123.653C9.73796 123.526 9.6569 123.374 9.61402 123.209C9.57115 123.045 9.56768 122.873 9.60401 122.707L12.0657 111.434C12.1159 111.204 12.24 110.997 12.4192 110.844C12.5983 110.691 12.8227 110.601 13.0578 110.588L84.5957 106.443L111.193 19.3698C111.237 19.2251 111.311 19.0913 111.411 18.9771C111.51 18.8629 111.632 18.7707 111.769 18.7068C111.907 18.6429 112.056 18.6086 112.207 18.606C112.358 18.6034 112.509 18.6327 112.648 18.6919L240.124 72.9735C240.273 73.0366 240.405 73.132 240.511 73.2529C240.618 73.3738 240.696 73.517 240.74 73.672C240.784 73.827 240.793 73.9899 240.765 74.1487C240.738 74.3074 240.676 74.4582 240.583 74.5897L174.772 167.606C174.687 167.727 174.577 167.829 174.45 167.906C174.324 167.983 174.183 168.033 174.036 168.053L63.1422 183.081C63.094 183.087 63.0454 183.09 62.9967 183.09ZM11.8296 122.631L63.4226 180.864L173.28 165.976L238.048 74.4358L112.907 21.1485L86.4406 107.792C86.3763 108.003 86.2488 108.189 86.0753 108.325C85.9019 108.462 85.6909 108.542 85.4707 108.554L14.0003 112.695L11.8296 122.631Z" fill="black"/>
<path d="M85.4082 107.476L117.804 29.9193L224.674 76.2979L169.356 154.805L85.4082 107.476Z" fill="black"/>
<path d="M172.335 162.103C172.136 162.103 171.94 162.047 171.77 161.942L84.8419 108.396C84.6386 108.27 84.4824 108.081 84.398 107.858C84.3137 107.634 84.306 107.389 84.3759 107.161L111.194 19.3716C111.238 19.2246 111.314 19.0887 111.415 18.9733C111.517 18.8578 111.642 18.7654 111.782 18.7023C111.923 18.6392 112.075 18.6069 112.228 18.6074C112.382 18.6079 112.534 18.6413 112.674 18.7053L232.118 73.244C232.261 73.3091 232.388 73.4048 232.491 73.5244C232.593 73.6439 232.668 73.7845 232.71 73.9362C232.753 74.0878 232.761 74.2469 232.735 74.4022C232.709 74.5574 232.65 74.7052 232.561 74.8349L173.227 161.632C173.128 161.778 172.995 161.896 172.839 161.978C172.684 162.06 172.511 162.103 172.335 162.103ZM86.6837 106.995L172.026 159.564L230.055 74.6747L112.898 21.1808L86.6837 106.995Z" fill="black"/>
<path d="M66.3651 176.483C66.2069 176.483 66.0507 176.448 65.9075 176.381C65.7643 176.314 65.6376 176.217 65.5364 176.095L12.2913 112.357C12.163 112.203 12.0798 112.017 12.0512 111.819C12.0225 111.621 12.0494 111.419 12.1289 111.236C12.2084 111.052 12.3373 110.895 12.5014 110.78C12.6654 110.666 12.8581 110.599 13.0577 110.588L85.3462 106.399C85.5824 106.384 85.8168 106.448 86.0125 106.581L169.96 163.237C170.144 163.361 170.284 163.538 170.364 163.744C170.443 163.951 170.457 164.177 170.404 164.391C170.351 164.606 170.233 164.799 170.067 164.945C169.9 165.09 169.693 165.181 169.473 165.205L66.4821 176.477C66.4432 176.481 66.4042 176.483 66.3651 176.483ZM15.3234 112.619L66.8226 174.267L166.311 163.379L85.1069 108.575L15.3234 112.619Z" fill="black"/>
<path d="M172.335 162.103C172.136 162.103 171.94 162.047 171.77 161.942L84.8419 108.396C84.6386 108.27 84.4824 108.081 84.398 107.858C84.3137 107.634 84.306 107.389 84.3759 107.161L111.194 19.3716C111.238 19.2246 111.314 19.0887 111.415 18.9733C111.517 18.8578 111.642 18.7654 111.782 18.7023C111.923 18.6392 112.075 18.6069 112.228 18.6074C112.382 18.6079 112.534 18.6413 112.674 18.7053L232.118 73.244C232.261 73.3091 232.388 73.4048 232.491 73.5244C232.593 73.6439 232.668 73.7845 232.71 73.9362C232.753 74.0878 232.761 74.2469 232.735 74.4022C232.709 74.5574 232.65 74.7052 232.561 74.8349L173.227 161.632C173.128 161.778 172.995 161.896 172.839 161.978C172.684 162.06 172.511 162.103 172.335 162.103ZM86.6837 106.995L172.026 159.564L230.055 74.6747L112.898 21.1808L86.6837 106.995Z" fill="black"/>
<path d="M53.5396 154.071C53.3814 154.071 53.2252 154.036 53.0818 153.969C52.9385 153.902 52.8115 153.805 52.7099 153.683L34.5722 131.919C34.445 131.766 34.3624 131.582 34.3334 131.385C34.3044 131.189 34.33 130.988 34.4077 130.805C34.4854 130.622 34.6122 130.465 34.7738 130.349C34.9354 130.234 35.1258 130.165 35.3239 130.151L54.8859 128.725C55.0581 128.713 55.2305 128.743 55.3891 128.811C55.5477 128.879 55.688 128.984 55.7979 129.117L73.1576 150.234C73.2809 150.384 73.3614 150.565 73.3906 150.757C73.4197 150.949 73.3964 151.146 73.3231 151.326C73.2498 151.506 73.129 151.663 72.9739 151.78C72.8187 151.898 72.635 151.971 72.4417 151.992L53.6577 154.065C53.6185 154.069 53.5791 154.071 53.5396 154.071ZM37.5768 132.151L53.9972 151.855L70.2235 150.065L54.4853 130.919L37.5768 132.151Z" fill="black"/>
<path d="M98.0395 167.933C97.8864 167.933 97.7349 167.9 97.5954 167.837C97.4558 167.775 97.3313 167.683 97.2298 167.568L53.6292 118.191C53.4988 118.044 53.4113 117.863 53.3762 117.669C53.3411 117.475 53.3597 117.276 53.4299 117.092C53.5002 116.907 53.6193 116.746 53.7747 116.625C53.93 116.504 54.1157 116.428 54.3113 116.404L85.2806 112.731C85.5394 112.699 85.8009 112.763 86.0155 112.911L154.223 159.354C154.405 159.478 154.545 159.654 154.623 159.859C154.702 160.065 154.717 160.289 154.664 160.503C154.612 160.716 154.496 160.909 154.331 161.055C154.167 161.201 153.962 161.293 153.743 161.318L98.167 167.926C98.1247 167.931 98.0821 167.933 98.0395 167.933ZM56.6117 118.306L98.4738 165.715L150.624 159.515L85.1341 114.923L56.6117 118.306Z" fill="black"/>
<path d="M87.3996 155.885C87.125 155.884 86.8608 155.78 86.6608 155.591C86.4608 155.403 86.3399 155.146 86.3229 154.872C86.3058 154.598 86.3939 154.328 86.5691 154.116C86.7442 153.905 86.9933 153.768 87.2657 153.734L136.416 147.555C136.7 147.519 136.987 147.597 137.213 147.773C137.439 147.949 137.586 148.207 137.622 148.491C137.658 148.775 137.579 149.062 137.404 149.288C137.228 149.514 136.97 149.661 136.686 149.697L87.5356 155.876C87.4904 155.882 87.445 155.884 87.3996 155.885Z" fill="black"/>
<path d="M79.0887 146.473C78.816 146.473 78.5536 146.369 78.3541 146.184C78.1546 145.998 78.0327 145.743 78.0131 145.471C77.9934 145.199 78.0774 144.93 78.2482 144.718C78.4189 144.505 78.6639 144.365 78.9337 144.326L122.315 137.972C122.455 137.951 122.599 137.958 122.736 137.992C122.874 138.027 123.003 138.088 123.117 138.173C123.231 138.257 123.327 138.364 123.4 138.486C123.473 138.608 123.521 138.743 123.541 138.883C123.562 139.024 123.555 139.167 123.52 139.304C123.485 139.442 123.423 139.571 123.338 139.685C123.253 139.799 123.147 139.895 123.025 139.967C122.903 140.04 122.768 140.087 122.627 140.107L79.2458 146.462C79.1938 146.47 79.1413 146.474 79.0887 146.473Z" fill="black"/>
<path d="M110.677 166.431C110.533 166.431 110.39 166.402 110.257 166.346C110.125 166.29 110.004 166.208 109.904 166.105L62.2572 117.212C62.157 117.11 62.0778 116.99 62.0242 116.858C61.9706 116.726 61.9436 116.585 61.9449 116.443C61.9461 116.3 61.9754 116.159 62.0313 116.028C62.0872 115.897 62.1684 115.779 62.2704 115.679C62.3723 115.58 62.493 115.501 62.6254 115.449C62.7578 115.396 62.8994 115.37 63.0418 115.373C63.1843 115.375 63.3248 115.405 63.4554 115.462C63.586 115.519 63.7041 115.601 63.8028 115.704L111.45 164.597C111.598 164.749 111.698 164.942 111.737 165.15C111.777 165.359 111.754 165.575 111.672 165.77C111.589 165.966 111.451 166.133 111.274 166.25C111.097 166.368 110.889 166.431 110.677 166.431Z" fill="black"/>
<path d="M132.026 163.892C131.775 163.892 131.532 163.804 131.339 163.643L73.7616 115.934C73.5422 115.751 73.4043 115.489 73.3781 115.204C73.3519 114.92 73.4394 114.637 73.6216 114.417C73.8039 114.197 74.0658 114.058 74.3501 114.031C74.6344 114.004 74.918 114.091 75.1385 114.272L132.716 161.981C132.887 162.123 133.01 162.314 133.068 162.528C133.126 162.743 133.117 162.97 133.042 163.179C132.966 163.388 132.828 163.568 132.647 163.696C132.465 163.823 132.248 163.892 132.026 163.892Z" fill="black"/>
<path d="M60.906 13.7455C60.7496 23.2943 61.2759 33.6371 63.9687 42.7711C64.2641 43.6632 64.2135 44.6337 63.8269 45.4902C63.4402 46.3467 62.7457 47.0267 61.8812 47.3952C61.0167 47.7636 60.0453 47.7937 59.1596 47.4795C58.2739 47.1653 57.5388 46.5298 57.0998 45.6988C52.1281 35.7067 49.7687 25.3463 47.9692 14.4667C47.0866 5.11673 60.738 4.34256 60.906 13.7455Z" fill="#A876F5"/>
<path d="M64.8099 56.8659C66.6343 56.8659 68.1134 55.3869 68.1134 53.5624C68.1134 51.7379 66.6343 50.2589 64.8099 50.2589C62.9854 50.2589 61.5063 51.7379 61.5063 53.5624C61.5063 55.3869 62.9854 56.8659 64.8099 56.8659Z" fill="#A876F5"/>
<path d="M79.0706 18.7639C77.0973 25.8602 75.4936 33.8166 75.751 41.1389C75.7789 42.0527 75.4724 42.9452 74.8888 43.6489C74.3053 44.3526 73.485 44.8191 72.5818 44.9608C71.6787 45.1025 70.7548 44.9095 69.9838 44.4182C69.2128 43.927 68.6479 43.1713 68.3947 42.2928C66.1338 33.6569 65.9442 25.2937 66.3046 16.4921C66.3601 15.5729 66.6093 14.6758 67.0361 13.8598C67.4628 13.0438 68.0575 12.3274 68.7809 11.7576C69.5042 11.1878 70.3399 10.7773 71.2331 10.5535C72.1263 10.3296 73.0568 10.2974 73.9634 10.4587C74.87 10.6201 75.7323 10.9714 76.4934 11.4897C77.2546 12.0079 77.8974 12.6814 78.3798 13.4658C78.8621 14.2502 79.1729 15.1277 79.292 16.0408C79.411 16.954 79.3357 17.8821 79.0706 18.7639Z" fill="#A876F5"/>
<path d="M73.6936 52.0434C75.1163 52.0434 76.2695 50.8901 76.2695 49.4675C76.2695 48.0448 75.1163 46.8915 73.6936 46.8915C72.271 46.8915 71.1177 48.0448 71.1177 49.4675C71.1177 50.8901 72.271 52.0434 73.6936 52.0434Z" fill="#A876F5"/>
<path d="M44.0821 101.172C43.8028 85.3835 52.7456 74.5831 56.2597 70.339C72.1414 51.1584 95.5713 49.751 98.7518 49.6111C122.504 48.5667 138.21 62.3079 141.762 65.416C146.808 69.8307 150.915 73.4245 153.163 79.6665C159.114 96.1949 146.291 115.368 135.285 125.009C119.124 139.166 99.7112 139.052 90.9791 139C80.1329 138.936 64.7158 138.846 53.928 127.341C44.556 117.346 44.142 104.564 44.0821 101.172Z" fill="#FFF2ED"/>
<path d="M97.0674 86.8954C104.154 86.8954 109.899 81.4564 109.899 74.747C109.899 68.0376 104.154 62.5986 97.0674 62.5986C89.9807 62.5986 84.2358 68.0376 84.2358 74.747C84.2358 81.4564 89.9807 86.8954 97.0674 86.8954Z" fill="#FE897B"/>
<path d="M96.0632 88.2565C81.4047 88.2565 69.3835 104.403 68.1587 124.969C75.7543 129.674 84.5171 129.751 91.1403 129.796C97.5619 129.838 111.25 129.921 123.435 119.873C120.7 101.798 109.487 88.2565 96.0632 88.2565Z" fill="#FE897B"/>
<path d="M162.555 47.7328L155.041 59.7809L167.219 56.8661C167.219 56.8661 194.424 73.9666 217.937 53.7569C241.45 33.5472 221.629 0.31778 200.448 1.09508C179.267 1.87237 160.806 8.47934 162.555 47.7328Z" fill="#FFF2ED"/>
<path d="M191.867 64.6414C183.175 64.5016 174.652 62.2269 167.046 58.0174L155.292 60.8313C155.084 60.8809 154.865 60.8675 154.665 60.7928C154.464 60.7181 154.29 60.5855 154.165 60.4117C154.04 60.2379 153.969 60.0308 153.962 59.8168C153.955 59.6028 154.012 59.3914 154.125 59.2097L161.462 47.445C160.742 30.2392 163.816 18.1583 170.855 10.5232C178.824 1.87924 190.835 0.367475 200.408 0.016407C211.331 -0.426393 222.664 8.13847 227.419 20.2785C232.328 32.8106 229.046 45.6317 218.64 54.5761C211.256 61.108 201.725 64.6913 191.867 64.6414ZM167.219 55.7866C167.422 55.7867 167.621 55.8441 167.793 55.9521C168.058 56.1187 194.615 72.3798 217.234 52.9379C226.911 44.6197 229.967 32.7053 225.409 21.0661C220.977 9.75165 210.478 1.82449 200.488 2.17345C191.332 2.50977 179.871 3.92891 172.443 11.9867C165.767 19.2274 162.886 30.9046 163.633 47.6845C163.643 47.9027 163.586 48.1187 163.471 48.3044L157.35 58.1186L166.968 55.8161C167.05 55.7963 167.134 55.7864 167.219 55.7866Z" fill="#A876F5"/>
<path d="M194.618 37.4334C200.629 37.4334 205.501 32.5613 205.501 26.5513C205.501 20.5413 200.629 15.6692 194.618 15.6692C188.608 15.6692 183.736 20.5413 183.736 26.5513C183.736 32.5613 188.608 37.4334 194.618 37.4334Z" fill="#A876F5"/>
<path d="M213.34 57.2161C211.619 47.1393 203.238 39.7678 193.679 40.3913C183.703 41.0418 176.143 50.1619 176.372 60.9761C185.339 64.0019 199.614 66.1977 213.34 57.2161Z" fill="#A876F5"/>
<path d="M106.075 192.502C105.954 192.502 105.836 192.461 105.741 192.386C105.646 192.311 105.578 192.206 105.55 192.088C105.522 191.97 105.534 191.846 105.585 191.736C105.635 191.626 105.722 191.536 105.83 191.481C106.018 191.385 124.976 181.841 142.595 187.049C153.106 190.145 164.063 191.448 175.007 190.902C175.148 190.894 175.288 190.94 175.397 191.031C175.505 191.122 175.575 191.252 175.592 191.393C175.604 191.535 175.56 191.677 175.468 191.787C175.376 191.896 175.244 191.965 175.102 191.978C164.023 192.532 152.931 191.215 142.289 188.084C125.09 183.003 106.507 192.348 106.321 192.443C106.245 192.482 106.161 192.502 106.075 192.502Z" fill="#A876F5"/>
<path d="M123.531 187.158C123.42 187.158 123.313 187.124 123.222 187.061C123.131 186.998 123.062 186.908 123.024 186.805C122.986 186.701 122.98 186.588 123.008 186.481C123.036 186.374 123.097 186.278 123.181 186.207L129.526 180.802C129.58 180.756 129.643 180.721 129.71 180.699C129.778 180.677 129.849 180.669 129.92 180.674C129.99 180.68 130.059 180.7 130.122 180.732C130.186 180.764 130.242 180.809 130.288 180.863C130.334 180.917 130.368 180.979 130.39 181.047C130.412 181.114 130.42 181.185 130.415 181.256C130.409 181.327 130.39 181.396 130.357 181.459C130.325 181.522 130.28 181.578 130.226 181.624L123.881 187.029C123.783 187.113 123.659 187.158 123.531 187.158Z" fill="#A876F5"/>
<path d="M145.472 188.945C145.355 188.945 145.241 188.907 145.148 188.837C145.054 188.767 144.986 188.668 144.954 188.556C144.921 188.443 144.926 188.323 144.968 188.214C145.009 188.104 145.086 188.012 145.184 187.949C147.314 186.59 149.616 185.52 152.028 184.768C152.167 184.738 152.313 184.764 152.434 184.841C152.554 184.918 152.639 185.039 152.67 185.179C152.701 185.318 152.676 185.465 152.599 185.585C152.523 185.706 152.401 185.791 152.262 185.823C149.973 186.553 147.788 187.574 145.76 188.862C145.674 188.917 145.574 188.946 145.472 188.945Z" fill="#A876F5"/>
<path d="M161.951 191.756C161.837 191.756 161.726 191.72 161.634 191.653C161.541 191.586 161.473 191.492 161.438 191.384C161.402 191.275 161.402 191.159 161.438 191.05C161.473 190.942 161.541 190.847 161.633 190.78L166.163 187.489C166.22 187.447 166.285 187.417 166.354 187.4C166.423 187.383 166.494 187.38 166.564 187.391C166.635 187.402 166.702 187.427 166.762 187.464C166.823 187.501 166.876 187.55 166.917 187.607C166.959 187.664 166.989 187.73 167.006 187.799C167.022 187.868 167.025 187.939 167.014 188.009C167.003 188.079 166.978 188.147 166.941 188.207C166.903 188.268 166.855 188.32 166.797 188.362L162.268 191.653C162.176 191.72 162.065 191.757 161.951 191.756Z" fill="#A876F5"/>
<path d="M142.929 193.531C142.828 193.531 142.728 193.503 142.642 193.449C142.556 193.395 142.487 193.318 142.443 193.226C140.417 189.033 134.018 186.646 133.954 186.623C133.82 186.574 133.71 186.473 133.65 186.343C133.59 186.214 133.583 186.065 133.632 185.931C133.682 185.796 133.782 185.687 133.912 185.626C134.042 185.566 134.191 185.56 134.325 185.609C134.605 185.711 141.197 188.168 143.415 192.756C143.455 192.838 143.473 192.929 143.468 193.021C143.463 193.112 143.435 193.2 143.386 193.278C143.338 193.355 143.271 193.419 143.191 193.463C143.11 193.508 143.02 193.531 142.929 193.531Z" fill="#A876F5"/>
<path d="M163.068 196.367C162.965 196.367 162.864 196.337 162.777 196.282C162.69 196.227 162.621 196.147 162.578 196.054C161.83 194.436 158.146 191.955 156.789 191.136C156.728 191.099 156.675 191.051 156.633 190.994C156.591 190.937 156.56 190.872 156.543 190.803C156.526 190.734 156.523 190.662 156.534 190.592C156.545 190.522 156.569 190.455 156.606 190.394C156.642 190.333 156.691 190.281 156.748 190.239C156.805 190.197 156.87 190.166 156.939 190.149C157.008 190.132 157.079 190.129 157.149 190.14C157.22 190.151 157.287 190.175 157.348 190.212C157.558 190.339 162.519 193.354 163.558 195.601C163.597 195.683 163.613 195.773 163.607 195.864C163.601 195.954 163.572 196.042 163.523 196.118C163.474 196.195 163.407 196.257 163.328 196.301C163.248 196.344 163.159 196.367 163.068 196.367Z" fill="#A876F5"/>
<path d="M128.732 182.188C128.732 182.188 132.357 167.146 140.748 169.871C149.139 172.595 137.007 183.507 128.732 182.188Z" fill="#A876F5"/>
<path d="M149.893 186.068C149.893 186.068 155.926 172.753 161.509 176.246C167.092 179.739 154.477 188.884 149.893 186.068Z" fill="#A876F5"/>
<path d="M164.345 189.476C164.345 189.476 168.866 178.682 175.954 180.969C183.042 183.257 167.694 190.749 164.345 189.476Z" fill="#A876F5"/>
<path d="M173.206 191.542C173.206 191.542 184.808 183.326 187.882 187.03C190.957 190.734 180.882 195.907 173.206 191.542Z" fill="#A876F5"/>
<path d="M140.519 189.925C140.519 189.925 145.174 197.452 144.5 200.589C143.826 203.725 141.672 208.467 149.386 210.573C157.1 212.679 159.33 203.209 153.082 197.421C146.834 191.632 141.493 189.95 140.519 189.925Z" fill="#A876F5"/>
<path d="M160.731 193.628C161.672 194.564 162.394 195.697 162.843 196.946C163.293 198.195 163.46 199.528 163.332 200.849C163.047 205.637 165.799 209.303 170.745 210.704C175.69 212.105 182.524 204.467 175.936 198.913C169.349 193.359 160.731 193.628 160.731 193.628Z" fill="#A876F5"/>
<path d="M92.5456 130.882C92.0385 130.882 91.5683 130.878 91.1329 130.875C82.6206 130.819 69.7574 130.734 60.8625 120.026C55.8041 113.936 52.9365 105.361 52.7889 95.8775C52.5612 81.3506 59.9094 71.3339 62.6759 67.5628C66.7267 62.0825 71.9154 57.5436 77.8859 54.2577C83.8564 50.9719 90.4672 49.0168 97.2645 48.5268C109.928 47.9006 122.026 52.9084 132.26 63.0157C136.264 66.9703 139.722 70.3851 141.592 76.2395C141.816 76.9469 142.011 77.6701 142.181 78.4387L153.143 84.1506C153.303 84.2337 153.439 84.3553 153.539 84.5042C153.64 84.6532 153.701 84.8248 153.719 85.0037C153.736 85.1825 153.709 85.3628 153.639 85.5283C153.569 85.6938 153.459 85.8393 153.318 85.9515L140.923 95.8457C138.067 104.189 133.343 111.771 127.112 118.012C114.788 130.198 99.9845 130.882 92.5456 130.882ZM99.3741 50.6343C98.7078 50.6343 98.0405 50.6508 97.3721 50.6839C90.8942 51.1525 84.5945 53.018 78.9059 56.152C73.2173 59.286 68.2748 63.6143 64.4175 68.8395C61.7681 72.4504 54.7308 82.0433 54.948 95.8437C55.0882 104.836 57.7788 112.934 62.524 118.647C70.7759 128.581 82.55 128.659 91.1476 128.716C98.2524 128.773 113.067 128.864 125.594 116.477C131.66 110.407 136.237 103.014 138.966 94.878C139.031 94.6744 139.155 94.4946 139.322 94.3614L150.675 85.2989L140.732 80.1182C140.59 80.044 140.465 79.9389 140.369 79.8105C140.272 79.682 140.205 79.5335 140.174 79.376C140.005 78.5381 139.792 77.7099 139.534 76.8953C137.828 71.548 134.701 68.4611 130.743 64.5529C121.495 55.4196 110.688 50.6343 99.3741 50.6343Z" fill="#FE897B"/>
<path d="M193.544 94.2805L182.273 97.2851L191.017 103.309C191.017 103.309 192.961 121.964 220.555 121.187C248.149 120.41 251.117 94.0538 232.991 80.9619C214.866 67.87 196.07 85.2521 193.544 94.2805Z" fill="#FFF2ED"/>
<path d="M218.223 100.006C223.374 100.006 227.55 96.1775 227.55 91.4553C227.55 86.7331 223.374 82.905 218.223 82.905C213.071 82.905 208.895 86.7331 208.895 91.4553C208.895 96.1775 213.071 100.006 218.223 100.006Z" fill="#E57BD8"/>
<path d="M220.555 121.187C225.305 121.17 229.986 120.05 234.229 117.916C233.64 109.367 227.229 102.629 219.389 102.629C211.281 102.629 204.7 109.835 204.509 118.799C209.641 120.673 215.1 121.485 220.555 121.187Z" fill="#E57BD8"/>
<path d="M218.915 122.29C194.742 122.291 190.608 106.973 190.027 103.938L181.66 98.1735C181.49 98.0565 181.357 97.8932 181.277 97.7031C181.197 97.513 181.173 97.304 181.209 97.1007C181.244 96.8975 181.337 96.7085 181.476 96.5563C181.615 96.4041 181.795 96.2951 181.994 96.242L192.69 93.3913C194.645 87.6065 201.961 79.749 210.939 76.6114C214.708 75.2378 218.762 74.8361 222.726 75.4434C226.691 76.0508 230.439 77.6476 233.623 80.0863C243.094 86.9275 247.509 97.8519 244.61 107.271C241.783 116.45 233.028 121.916 220.585 122.267C220.019 122.282 219.46 122.29 218.915 122.29ZM184.815 97.7243L191.629 102.42C191.758 102.509 191.866 102.624 191.945 102.758C192.025 102.892 192.074 103.042 192.09 103.197C192.169 103.916 194.328 120.82 220.524 120.108C231.983 119.785 240.01 114.874 242.547 106.636C245.174 98.1018 241.079 88.1357 232.358 81.8364C229.452 79.6083 226.032 78.1483 222.413 77.5912C218.794 77.0342 215.093 77.3982 211.652 78.6493C202.53 81.8375 195.878 89.9447 194.583 94.5719C194.533 94.7527 194.436 94.9173 194.303 95.0491C194.169 95.181 194.004 95.2757 193.822 95.3238L184.815 97.7243Z" fill="#E57BD8"/>
</svg>