<svg width="23" height="22" viewBox="0 0 23 22" fill="none" xmlns="http://www.w3.org/2000/svg">
<path d="M2.47656 8.14844V15.5027C2.47656 16.1847 2.74748 16.8388 3.22972 17.321C3.71195 17.8032 4.36601 18.0742 5.04799 18.0742H17.9051C18.5871 18.0742 19.2412 17.8032 19.7234 17.321C20.2056 16.8388 20.4766 16.1847 20.4766 15.5027V8.14844L12.824 12.8567C12.4188 13.106 11.9523 13.238 11.4766 13.238C11.0008 13.238 10.5344 13.106 10.1291 12.8567L2.47656 8.14844Z" fill="#171A15"/>
<path d="M20.4766 6.63654V6.50112C20.4766 5.81913 20.2056 5.16508 19.7234 4.68284C19.2412 4.20061 18.5871 3.92969 17.9051 3.92969H5.04799C4.36601 3.92969 3.71195 4.20061 3.22972 4.68284C2.74748 5.16508 2.47656 5.81913 2.47656 6.50112V6.63654L10.8028 11.7605C11.0055 11.8852 11.2387 11.9512 11.4766 11.9512C11.7144 11.9512 11.9477 11.8852 12.1503 11.7605L20.4766 6.63654Z" fill="#171A15"/>
</svg>