<svg width="23" height="22" viewBox="0 0 23 22" fill="none" xmlns="http://www.w3.org/2000/svg">
<g clip-path="url(#clip0_6521_5448)">
<path d="M11.4766 1C5.97656 1 1.47656 5.52261 1.47656 11.0503C1.47656 16.0251 5.07656 20.1457 9.82656 21L9.88656 20.9497C9.88656 20.9497 9.88156 20.9497 9.87656 20.9497V13.8643H7.37656V11.0503H9.87656V8.8392C9.87656 6.32663 11.4766 4.9196 13.7766 4.9196C14.4766 4.9196 15.2766 5.0201 15.9766 5.1206V7.68342H14.6766C13.4766 7.68342 13.1766 8.28643 13.1766 9.09045V11.0503H15.8266L15.3766 13.8643H13.1766V20.9497C13.1466 20.9548 13.1116 20.9598 13.0816 20.9648L13.1266 21C17.8766 20.1457 21.4766 16.0251 21.4766 11.0503C21.4766 5.52261 16.9766 1 11.4766 1Z" fill="#171A15"/>
</g>
<defs>
<clipPath id="clip0_6521_5448">
<rect width="20" height="20" fill="white" transform="translate(1.47656 1)"/>
</clipPath>
</defs>
</svg>