<svg width="21" height="20" viewBox="0 0 21 20" fill="none" xmlns="http://www.w3.org/2000/svg">
<g clip-path="url(#clip0_6521_5456)">
<path d="M10.4766 1.79944C13.1469 1.79944 13.4628 1.80976 14.5175 1.8578C15.4924 1.90225 16.022 2.065 16.3745 2.20195C16.8093 2.36208 17.2027 2.61778 17.5256 2.95021C17.858 3.27309 18.1137 3.66648 18.2739 4.10137C18.4108 4.45386 18.5736 4.98339 18.618 5.9583C18.6661 7.013 18.6764 7.32898 18.6764 9.99927C18.6764 12.6696 18.6661 12.9855 18.618 14.0402C18.5736 15.0151 18.4108 15.5447 18.2739 15.8972C18.1073 16.3283 17.8525 16.7199 17.5256 17.0467C17.1988 17.3736 16.8072 17.6285 16.3761 17.795C16.0236 17.9319 15.494 18.0947 14.5191 18.1392C13.4648 18.1872 13.1484 18.1975 10.4781 18.1975C7.80786 18.1975 7.49149 18.1872 6.43718 18.1392C5.46227 18.0947 4.93274 17.9319 4.58025 17.795C4.14536 17.6349 3.75197 17.3792 3.42909 17.0467C3.09666 16.7239 2.84096 16.3305 2.68083 15.8956C2.54388 15.5431 2.38113 15.0136 2.33668 14.0386C2.28865 12.9839 2.27832 12.668 2.27832 9.99768C2.27832 7.32739 2.28865 7.01142 2.33668 5.95672C2.38113 4.9818 2.54388 4.45227 2.68083 4.09978C2.84096 3.6649 3.09666 3.27151 3.42909 2.94862C3.75197 2.61619 4.14536 2.36049 4.58025 2.20036C4.93274 2.06342 5.46227 1.90067 6.43718 1.85621C7.49188 1.80818 7.80786 1.79786 10.4781 1.79786L10.4766 1.79944ZM10.4781 -0.00390625C7.76221 -0.00390625 7.42162 0.00760534 6.35501 0.0564304C5.28841 0.105255 4.56199 0.275548 3.92686 0.522451C3.25943 0.7737 2.65474 1.16734 2.15487 1.67599C1.64622 2.17586 1.25258 2.78055 1.00133 3.44798C0.754428 4.08311 0.585327 4.81111 0.536899 5.87534C0.488471 6.93957 0.476562 7.28174 0.476562 9.99768C0.476562 12.7136 0.488074 13.0542 0.536899 14.1208C0.585724 15.1874 0.754428 15.9123 1.00133 16.5474C1.25268 17.2145 1.64632 17.8189 2.15487 18.3186C2.65457 18.8275 3.2593 19.2213 3.92686 19.4725C4.56199 19.7198 5.28999 19.8889 6.35422 19.9373C7.41845 19.9858 7.76141 19.9977 10.4774 19.9977C13.1933 19.9977 13.5339 19.9862 14.6005 19.9373C15.6671 19.8885 16.3911 19.7198 17.0263 19.4725C17.6908 19.2158 18.2943 18.8229 18.798 18.3192C19.3018 17.8154 19.6946 17.2119 19.9514 16.5474C20.1987 15.9123 20.3678 15.1842 20.4162 14.12C20.4646 13.0558 20.4766 12.7128 20.4766 9.99689C20.4766 7.28095 20.465 6.94036 20.4162 5.87375C20.3674 4.80714 20.1987 4.08311 19.9514 3.44798C19.7003 2.78078 19.3068 2.17634 18.7982 1.67679C18.2985 1.16785 17.6938 0.773933 17.0263 0.522451C16.3911 0.275548 15.6631 0.106446 14.5989 0.0580182C13.5347 0.00959009 13.1925 -0.00231845 10.4766 -0.00231845L10.4781 -0.00390625Z" fill="#171A15"/>
<path d="M10.4787 4.86328C9.46312 4.86328 8.47032 5.16444 7.62588 5.72868C6.78144 6.29292 6.12328 7.09489 5.73463 8.03318C5.34597 8.97147 5.24429 10.0039 5.44242 11C5.64055 11.9961 6.12961 12.9111 6.84775 13.6292C7.56589 14.3473 8.48085 14.8364 9.47693 15.0345C10.473 15.2327 11.5055 15.131 12.4438 14.7423C13.3821 14.3537 14.184 13.6955 14.7483 12.8511C15.3125 12.0066 15.6137 11.0138 15.6137 9.99824C15.6137 9.3239 15.4809 8.65614 15.2229 8.03312C14.9649 7.41009 14.5866 6.844 14.1098 6.36716C13.633 5.89033 13.0669 5.51209 12.4438 5.25405C11.8208 4.99601 11.1531 4.86323 10.4787 4.86328V4.86328ZM10.4787 13.3326C9.81924 13.3326 9.17457 13.1371 8.62623 12.7707C8.07789 12.4043 7.65051 11.8835 7.39814 11.2743C7.14577 10.665 7.07974 9.99455 7.20839 9.34774C7.33705 8.70093 7.65462 8.1068 8.12094 7.64047C8.58727 7.17415 9.1814 6.85658 9.82821 6.72792C10.475 6.59926 11.1455 6.6653 11.7547 6.91767C12.364 7.17004 12.8848 7.59742 13.2512 8.14576C13.6175 8.69409 13.8131 9.33876 13.8131 9.99824C13.8131 10.8826 13.4618 11.7307 12.8365 12.356C12.2112 12.9813 11.3631 13.3326 10.4787 13.3326Z" fill="#171A15"/>
<path d="M15.8133 5.8609C16.476 5.8609 17.0133 5.32365 17.0133 4.66092C17.0133 3.99819 16.476 3.46094 15.8133 3.46094C15.1505 3.46094 14.6133 3.99819 14.6133 4.66092C14.6133 5.32365 15.1505 5.8609 15.8133 5.8609Z" fill="#171A15"/>
</g>
<defs>
<clipPath id="clip0_6521_5456">
<rect width="20" height="20" fill="white" transform="translate(0.476562)"/>
</clipPath>
</defs>
</svg>