<svg width="21" height="18" viewBox="0 0 21 18" fill="none" xmlns="http://www.w3.org/2000/svg">
<g clip-path="url(#clip0_6521_5461)">
<path d="M18.4618 0H2.49368C2.22833 0.000407269 1.96567 0.047296 1.72069 0.137991C1.47572 0.228685 1.25323 0.36141 1.06592 0.528584C0.878619 0.695758 0.730168 0.894109 0.629047 1.11231C0.527926 1.33052 0.476116 1.5643 0.476575 1.80031V16.2007C0.475656 16.4369 0.527138 16.671 0.628067 16.8895C0.728996 17.108 0.877394 17.3067 1.06476 17.4741C1.25213 17.6415 1.47478 17.7744 1.71998 17.8652C1.96517 17.956 2.22809 18.0028 2.49368 18.0031H18.4618C18.727 18.0027 18.9895 17.9558 19.2343 17.8652C19.4792 17.7745 19.7015 17.6419 19.8887 17.4748C20.0759 17.3077 20.2243 17.1095 20.3254 16.8914C20.4264 16.6733 20.4782 16.4397 20.4777 16.2038V1.80031C20.4787 1.32384 20.2668 0.866542 19.8888 0.528948C19.5108 0.191355 18.9975 0.00109651 18.4618 0V0ZM6.89431 14.2431H4.20368V6.54319H6.89431V14.2431ZM5.53212 5.59855C4.68178 5.59855 4.13621 5.0626 4.13621 4.40145C4.13272 3.72478 4.69923 3.20745 5.56935 3.20745C6.43947 3.20745 6.96526 3.72478 6.98504 4.40352C6.98271 5.06259 6.43482 5.59855 5.53212 5.59855ZM16.7192 14.2431H14.0286V9.97516C14.0286 8.98396 13.6389 8.30626 12.6653 8.30626C11.9219 8.30626 11.4799 8.76357 11.2845 9.20434C11.2156 9.39749 11.1857 9.59995 11.1961 9.80237V14.2431H8.50543V9.00155C8.50543 8.04138 8.46937 7.24263 8.43447 6.54526H10.7715L10.8948 7.61614H10.9483C11.2973 7.11226 12.1697 6.37454 13.6238 6.37454C15.3943 6.37454 16.7216 7.4299 16.7216 9.69684L16.7192 14.2431Z" fill="#171A15"/>
</g>
<defs>
<clipPath id="clip0_6521_5461">
<rect width="20" height="18" fill="white" transform="translate(0.476562)"/>
</clipPath>
</defs>
</svg>