<svg width="23" height="22" viewBox="0 0 23 22" fill="none" xmlns="http://www.w3.org/2000/svg">
<path d="M19.508 7.7937C19.5197 7.96312 19.5197 8.13254 19.5197 8.30352C19.5197 13.5133 15.5536 19.5218 8.30143 19.5218V19.5187C6.15911 19.5218 4.0613 18.9082 2.25781 17.7511C2.56932 17.7886 2.8824 17.8073 3.19625 17.8081C4.97162 17.8097 6.69625 17.214 8.09298 16.117C6.40582 16.085 4.92634 14.985 4.4095 13.379C5.00051 13.493 5.60948 13.4696 6.18956 13.3111C4.35017 12.9395 3.02683 11.3234 3.02683 9.4465C3.02683 9.42933 3.02683 9.41293 3.02683 9.39654C3.5749 9.7018 4.18855 9.87122 4.81626 9.88996C3.08382 8.73214 2.5498 6.42743 3.59598 4.62551C5.59777 7.0887 8.55127 8.58614 11.7218 8.74463C11.404 7.37523 11.8381 5.94025 12.8624 4.97761C14.4505 3.48486 16.948 3.56137 18.4408 5.14859C19.3238 4.97449 20.1701 4.65049 20.9446 4.19142C20.6502 5.10409 20.0342 5.87936 19.2113 6.372C19.9928 6.27987 20.7564 6.07063 21.4754 5.75132C20.9461 6.54454 20.2794 7.23548 19.508 7.7937Z" fill="#171A15"/>
</svg>